<?xml version="1.0" encoding="UTF-8" standalone="no"?>
<!DOCTYPE svg PUBLIC "-//W3C//DTD SVG 1.1//EN" "http://www.w3.org/Graphics/SVG/1.1/DTD/svg11.dtd">
<svg width="100%" height="100%" viewBox="0 0 231 89" version="1.1" xmlns="http://www.w3.org/2000/svg" xmlns:xlink="http://www.w3.org/1999/xlink" xml:space="preserve" xmlns:serif="http://www.serif.com/" style="fill-rule:evenodd;clip-rule:evenodd;stroke-linejoin:round;stroke-miterlimit:2;">
    <g transform="matrix(1,0,0,1,-2192.27,-453.108)">
        <g transform="matrix(4.16667,0,0,4.16667,0,0)">
            <path d="M560.07,116.866L562.997,116.866C563.142,116.866 563.258,116.984 563.258,117.128L563.263,129.273C563.263,129.418 563.146,129.536 563,129.536L560.124,129.536C559.978,129.536 559.86,129.418 559.86,129.273L559.856,117.08C559.856,116.961 559.952,116.866 560.07,116.866Z" style="fill:rgb(104,110,111);fill-rule:nonzero;"/>
            <path d="M571.827,119.77C569.906,119.77 568.332,121.371 568.332,123.24C568.332,125.133 569.906,126.735 571.827,126.735C573.775,126.735 575.349,125.133 575.349,123.24C575.349,121.371 573.775,119.77 571.827,119.77ZM575.349,128.708C574.334,129.536 573.134,129.883 571.827,129.883C568.091,129.883 565.103,126.894 565.103,123.24C565.103,119.556 568.091,116.622 571.827,116.622C573.108,116.622 574.309,116.968 575.349,117.795L575.349,109.015C575.349,108.87 575.466,108.753 575.611,108.753L578.52,108.753C578.666,108.753 578.782,108.87 578.782,109.015L578.782,129.273C578.782,129.417 578.666,129.536 578.52,129.536L575.611,129.536C575.466,129.536 575.349,129.417 575.349,129.273L575.349,128.708Z" style="fill:rgb(104,110,111);fill-rule:nonzero;"/>
            <path d="M561.562,113.009C560.358,113.009 559.416,112.066 559.416,110.863C559.416,109.675 560.358,108.746 561.562,108.746C562.786,108.746 563.708,109.656 563.708,110.863C563.708,112.086 562.786,113.009 561.562,113.009Z" style="fill:rgb(104,110,111);fill-rule:nonzero;"/>
            <path d="M532.87,119.734C530.949,119.734 529.375,121.335 529.375,123.204C529.375,125.097 530.949,126.699 532.87,126.699C534.818,126.699 536.392,125.097 536.392,123.204C536.392,121.335 534.818,119.734 532.87,119.734ZM536.392,128.708C535.377,129.536 534.177,129.883 532.87,129.883C529.134,129.883 526.146,126.894 526.146,123.239C526.146,119.556 529.134,116.621 532.87,116.621C534.151,116.621 535.352,116.967 536.392,117.795L536.392,117.123C536.392,116.978 536.509,116.861 536.654,116.861L539.52,116.861C539.664,116.861 539.782,116.978 539.782,117.123L539.782,129.273C539.782,129.417 539.664,129.536 539.52,129.536L536.654,129.536C536.509,129.536 536.392,129.417 536.392,129.273L536.392,128.708Z" style="fill:rgb(104,110,111);fill-rule:nonzero;"/>
            <path d="M556.375,114.697L548.072,125.082L543.642,119.452C543.511,119.287 543.265,119.273 543.117,119.424L540.862,121.543C540.786,121.622 540.779,121.743 540.846,121.829L546.855,129.48C546.947,129.595 547.088,129.664 547.237,129.664L548.894,129.664C549.042,129.664 549.182,129.595 549.275,129.48L559.073,117.032C559.142,116.945 559.133,116.82 559.053,116.743L556.857,114.665C556.718,114.53 556.494,114.545 556.375,114.697Z" style="fill:rgb(104,110,111);fill-rule:nonzero;"/>
            <path d="M580.881,109.446C580.881,109.346 580.823,109.323 580.705,109.323L580.52,109.323L580.52,109.571L580.705,109.571C580.821,109.571 580.881,109.544 580.881,109.446ZM580.638,109.76L580.52,109.76L580.52,110.153L580.305,110.153L580.305,109.13L580.756,109.13C580.964,109.13 581.104,109.213 581.104,109.431C581.104,109.599 581.024,109.701 580.875,109.741L581.118,110.153L580.87,110.153L580.638,109.76ZM581.367,109.651C581.367,109.268 581.062,108.949 580.673,108.949C580.286,108.949 579.981,109.265 579.981,109.651C579.981,110.035 580.286,110.353 580.673,110.353C581.062,110.353 581.367,110.035 581.367,109.651ZM580.673,110.554C580.177,110.554 579.77,110.153 579.77,109.651C579.77,109.15 580.177,108.748 580.676,108.748C581.175,108.748 581.577,109.155 581.577,109.651C581.577,110.148 581.172,110.554 580.673,110.554Z" style="fill:rgb(104,110,111);fill-rule:nonzero;"/>
        </g>
    </g>
</svg>
