<?xml version="1.0" encoding="UTF-8" standalone="no"?>
<!DOCTYPE svg PUBLIC "-//W3C//DTD SVG 1.1//EN" "http://www.w3.org/Graphics/SVG/1.1/DTD/svg11.dtd">
<svg width="100%" height="100%" viewBox="0 0 163 47" version="1.1" xmlns="http://www.w3.org/2000/svg" xmlns:xlink="http://www.w3.org/1999/xlink" xml:space="preserve" xmlns:serif="http://www.serif.com/" style="fill-rule:evenodd;clip-rule:evenodd;stroke-linejoin:round;stroke-miterlimit:2;">
    <g transform="matrix(1,0,0,1,-811.714,-104.844)">
        <g transform="matrix(2,0,0,2,0,0)">
            <path d="M445.99,63.409C439.396,63.409 434.05,61.06 434.05,58.162C434.05,55.265 439.396,52.915 445.99,52.915C452.583,52.915 457.929,55.265 457.929,58.162C457.929,61.06 452.583,63.409 445.99,63.409ZM445.991,52.422C438.599,52.422 432.607,54.99 432.607,58.157C432.607,61.325 438.599,63.893 445.991,63.893C453.381,63.893 459.373,61.325 459.373,58.157C459.373,54.99 453.381,52.422 445.991,52.422ZM445.753,60.008C445.309,61.278 442.867,60.087 441.608,59.497C440.681,59.062 440.04,58.702 439.683,58.497L440.603,59.666L439.356,59.666C439.714,59.874 440.349,60.229 441.26,60.654C442.518,61.245 444.96,62.436 445.404,61.167C446.175,58.972 450.675,61.734 451.044,61.963L451.385,60.803C450.98,60.549 446.52,57.824 445.753,60.008ZM446.377,57.917C445.933,59.185 443.491,57.994 442.233,57.405C441.304,56.97 440.664,56.609 440.307,56.405L441.227,57.574L439.98,57.574C440.339,57.781 440.974,58.137 441.884,58.562C443.142,59.152 445.585,60.343 446.028,59.075C446.795,56.891 451.258,59.616 451.662,59.868L452.004,58.707C451.568,58.434 447.141,55.742 446.377,57.917ZM447,55.825C446.557,57.093 444.115,55.902 442.857,55.313C441.928,54.878 441.288,54.519 440.932,54.312L441.851,55.481L440.604,55.481C440.963,55.688 441.597,56.044 442.507,56.47C443.767,57.061 446.208,58.251 446.653,56.982C447.416,54.806 451.845,57.501 452.281,57.773L452.624,56.611C452.157,56.32 447.761,53.658 447,55.825ZM473.738,67.716L473.738,68.524L477.204,68.524L473.512,74.712L473.512,75.364L478.884,75.364L478.884,74.52L475.017,74.52L478.683,68.368L478.683,67.716L473.738,67.716ZM469.627,67.716L472.246,75.364L470.885,75.364L470.07,72.863L467.97,72.863L467.174,75.364L466.221,75.364L468.813,67.716L469.627,67.716ZM468.204,72.111L469.833,72.111L469.028,69.54L468.204,72.111ZM460.989,67.716L460.989,75.364L464.955,75.364L464.955,74.527L462.27,74.527L462.27,67.716L460.989,67.716ZM456.494,67.716C457.38,67.716 457.988,67.735 458.539,68.096C459.218,68.541 459.317,69.304 459.317,69.715C459.317,70.858 458.568,72.013 456.672,72.013L455.739,72.013L455.739,75.364L454.458,75.364L454.458,67.716L456.494,67.716ZM455.739,68.5L455.739,71.21L456.426,71.21C457.167,71.21 457.956,71.084 457.956,69.726C457.956,69.08 457.737,68.784 457.451,68.642C457.305,68.568 457.136,68.532 456.958,68.516C456.78,68.499 456.597,68.5 456.429,68.5L455.739,68.5ZM483.537,67.716L486.156,75.364L484.793,75.364L483.98,72.863L481.88,72.863L481.084,75.364L480.13,75.364L482.722,67.716L483.537,67.716ZM482.114,72.111L483.742,72.111L482.938,69.54L482.114,72.111ZM485.8,69.078L485.971,69.078L485.971,68.696L486.105,68.696C486.196,68.696 486.259,68.707 486.295,68.728C486.356,68.764 486.386,68.837 486.386,68.95L486.386,69.027L486.39,69.078L486.554,69.078L486.541,69.016L486.539,68.943L486.539,68.873L486.485,68.723L486.318,68.628L486.458,68.581L486.553,68.39C486.553,68.269 486.504,68.187 486.403,68.144C486.347,68.122 486.259,68.109 486.139,68.109L485.8,68.109L485.8,69.078ZM486.287,68.555L486.125,68.578L485.971,68.578L485.971,68.227L486.117,68.227C486.21,68.227 486.28,68.238 486.323,68.263L486.386,68.404L486.287,68.555ZM486.78,67.974C486.608,67.803 486.4,67.717 486.156,67.717C485.913,67.717 485.707,67.803 485.535,67.974C485.363,68.146 485.276,68.354 485.276,68.597C485.276,68.842 485.362,69.05 485.533,69.222C485.704,69.395 485.912,69.482 486.156,69.482C486.4,69.482 486.608,69.395 486.78,69.222C486.953,69.049 487.039,68.841 487.039,68.597C487.039,68.354 486.953,68.146 486.78,67.974ZM486.692,68.06C486.84,68.207 486.914,68.387 486.914,68.597C486.914,68.808 486.84,68.988 486.692,69.138C486.545,69.285 486.367,69.361 486.156,69.361C485.946,69.361 485.766,69.285 485.619,69.138C485.472,68.988 485.4,68.808 485.4,68.597C485.4,68.387 485.473,68.207 485.621,68.06C485.768,67.91 485.947,67.837 486.156,67.837C486.365,67.837 486.544,67.91 486.692,68.06ZM414.886,67.716C415.695,67.716 416.22,67.725 416.793,68.038C417.501,68.429 417.677,69.151 417.677,69.606C417.677,70.461 417.243,71.407 415.88,71.737L418.384,75.364L416.887,75.364L414.712,71.93L414.348,71.93L414.348,75.364L413.082,75.364L413.082,67.716L414.886,67.716ZM414.348,68.5L414.348,71.222L414.734,71.222C415.344,71.222 416.367,71.222 416.367,69.748C416.367,69.103 416.151,68.803 415.867,68.654C415.72,68.578 415.549,68.54 415.368,68.519C415.185,68.5 414.995,68.5 414.816,68.5L414.348,68.5ZM410.927,68.023L410.871,67.994C410.294,67.7 409.7,67.613 409.181,67.613C407.016,67.613 405.857,69.437 405.857,71.579C405.857,73.686 406.925,75.478 409.006,75.478C409.866,75.478 410.48,75.18 410.887,74.965L410.947,74.934L410.567,74.215L410.507,74.249C410.208,74.423 409.755,74.669 409.22,74.669C408.251,74.669 407.272,73.759 407.272,71.551C407.272,69.565 408.142,68.422 409.293,68.422C409.806,68.422 410.231,68.593 410.535,68.738L410.596,68.768L410.927,68.023ZM444.722,67.716L444.722,75.364L448.784,75.364L448.784,74.52L446.003,74.52L446.003,71.803L448.558,71.803L448.558,71.008L446.003,71.008L446.003,68.524L448.74,68.524L448.74,67.716L444.722,67.716ZM436.965,67.716L436.965,75.364L437.893,75.364L437.893,69.943L441.404,75.364L442.252,75.364L442.252,67.716L441.323,67.716L441.323,73.138L437.812,67.716L436.965,67.716ZM426.871,67.716L428.765,75.364L429.592,75.364L430.946,69.782L432.254,75.364L433.083,75.364L434.977,67.716L434.058,67.716L432.813,73.129L431.542,67.716L430.731,67.716L429.419,73.147L428.186,67.716L426.871,67.716ZM419.453,71.542C419.453,68.903 420.925,67.614 422.575,67.614C423.926,67.614 425.552,68.482 425.552,71.442C425.552,74.055 424.214,75.478 422.455,75.478C420.809,75.478 419.453,74.185 419.453,71.554L419.453,71.542ZM420.857,71.58C420.857,73.949 421.719,74.701 422.493,74.701C423.15,74.701 424.149,74.194 424.149,71.545C424.149,70.566 424.051,68.369 422.543,68.369C421.545,68.369 420.857,69.344 420.857,71.568L420.857,71.58Z" style="fill:rgb(154,25,107);fill-rule:nonzero;"/>
        </g>
    </g>
</svg>
