<?xml version="1.0" encoding="UTF-8" standalone="no"?>
<!DOCTYPE svg PUBLIC "-//W3C//DTD SVG 1.1//EN" "http://www.w3.org/Graphics/SVG/1.1/DTD/svg11.dtd">
<svg width="100%" height="100%" viewBox="0 0 137 66" version="1.1" xmlns="http://www.w3.org/2000/svg" xmlns:xlink="http://www.w3.org/1999/xlink" xml:space="preserve" xmlns:serif="http://www.serif.com/" style="fill-rule:evenodd;clip-rule:evenodd;stroke-linejoin:round;stroke-miterlimit:2;">
    <g transform="matrix(1,0,0,1,-1251.09,-206.036)">
        <g transform="matrix(2,0,0,2,0,0)">
            <rect x="625.544" y="107.241" width="6.815" height="24.183" style="fill:rgb(247,149,64);fill-rule:nonzero;"/>
            <rect x="633.676" y="103.018" width="6.814" height="24.182" style="fill:rgb(20,161,188);fill-rule:nonzero;"/>
            <rect x="641.806" y="111.449" width="6.815" height="24.181" style="fill:rgb(101,154,92);fill-rule:nonzero;"/>
            <rect x="649.938" y="103.018" width="6.813" height="24.182" style="fill:rgb(122,80,35);fill-rule:nonzero;"/>
            <path d="M656.096,114.739L654.618,114.739L654.618,118.042L650.827,114.617L650.626,114.651L650.626,121.112L652.105,121.112L652.105,117.782L655.947,121.233L656.096,121.208L656.096,114.739ZM647.323,114.739L642.89,114.739L642.89,121.112L647.323,121.112L647.323,119.763L644.369,119.763L644.369,118.521L647.095,118.521L647.095,117.234L644.369,117.234L644.369,116.095L647.323,116.095L647.323,114.739ZM640.224,114.734L638.564,114.734L637.112,118.177L635.66,114.734L633.964,114.734L637.008,121.159L637.181,121.159L640.224,114.734ZM631.161,116.095L628.208,116.095L628.208,117.234L630.935,117.234L630.935,118.521L628.208,118.521L628.208,119.763L631.161,119.763L631.161,121.112L626.729,121.112L626.729,114.739L631.161,114.739L631.161,116.095Z" style="fill:white;fill-rule:nonzero;"/>
            <path d="M658.194,126.342L658.26,126.338L658.385,126.438L658.253,126.552L658.194,126.549L658.194,126.342ZM658.076,126.866L658.194,126.866L658.194,126.645L658.242,126.649L658.283,126.645L658.418,126.866L658.555,126.866L658.393,126.619L658.511,126.434C658.511,126.324 658.426,126.235 658.249,126.235L658.076,126.247L658.076,126.866ZM658.279,127.094C657.999,127.094 657.766,126.851 657.766,126.56C657.766,126.265 657.999,126.022 658.279,126.022C658.562,126.022 658.792,126.265 658.792,126.56C658.792,126.847 658.562,127.094 658.279,127.094ZM658.279,127.198C658.625,127.198 658.906,126.907 658.906,126.56C658.906,126.206 658.625,125.918 658.279,125.918C657.932,125.918 657.652,126.206 657.652,126.56C657.652,126.911 657.932,127.198 658.279,127.198ZM691.523,121.242C692.837,121.242 693.629,120.364 693.629,119.336C693.629,118.5 693.264,117.987 692.002,117.44C691.209,117.091 690.896,116.838 690.896,116.412C690.896,115.986 691.209,115.62 691.881,115.62C692.315,115.62 692.821,115.837 693.16,116.073L693.507,115.116C693.133,114.863 692.524,114.654 691.906,114.654C690.574,114.654 689.809,115.515 689.809,116.438C689.809,117.205 690.209,117.779 691.323,118.249C692.333,118.675 692.524,118.954 692.524,119.397C692.524,119.841 692.229,120.233 691.557,120.233C691.01,120.233 690.401,120.006 689.895,119.641L689.522,120.616C690.079,120.981 690.801,121.242 691.523,121.242ZM688.951,121.138L688.951,120.146L686.148,120.146L686.148,114.759L685.06,114.759L685.06,121.138L688.951,121.138ZM683.314,121.138L683.314,120.146L680.114,120.146L680.114,118.379L683.043,118.379L683.043,117.421L680.114,117.421L680.114,115.75L683.314,115.75L683.314,114.759L679.026,114.759L679.026,121.138L683.314,121.138ZM677.941,115.75L677.941,114.759L672.806,114.759L672.806,115.75L674.834,115.75L674.834,121.138L675.921,121.138L675.921,115.75L677.941,115.75ZM669.485,115.628C670.695,115.628 671.54,116.621 671.54,117.953C671.54,119.276 670.695,120.277 669.485,120.277C668.266,120.277 667.422,119.276 667.422,117.953C667.422,116.621 668.266,115.628 669.485,115.628ZM669.45,121.242C671.294,121.242 672.706,119.841 672.706,117.953C672.706,116.055 671.356,114.654 669.511,114.654C667.666,114.654 666.256,116.055 666.256,117.953C666.256,119.841 667.605,121.242 669.45,121.242ZM664.13,121.113L664.13,118.372L661.197,118.372L661.197,121.113L660.11,121.113L660.11,114.734L661.197,114.734L661.197,117.397L664.13,117.397L664.13,114.734L665.218,114.734L665.218,121.113L664.13,121.113Z" style="fill:rgb(109,120,128);fill-rule:nonzero;"/>
        </g>
    </g>
</svg>
