<?xml version="1.0" encoding="UTF-8" standalone="no"?>
<!DOCTYPE svg PUBLIC "-//W3C//DTD SVG 1.1//EN" "http://www.w3.org/Graphics/SVG/1.1/DTD/svg11.dtd">
<svg width="100%" height="100%" viewBox="0 0 226 181" version="1.1" xmlns="http://www.w3.org/2000/svg" xmlns:xlink="http://www.w3.org/1999/xlink" xml:space="preserve" xmlns:serif="http://www.serif.com/" style="fill-rule:evenodd;clip-rule:evenodd;stroke-linejoin:round;stroke-miterlimit:2;">
    <g transform="matrix(1,0,0,1,-2635.65,-177.75)">
        <g transform="matrix(4.16667,0,0,4.16667,0,0)">
            <path d="M663.634,53.598C663.297,54.837 662.953,56.181 662.562,57.73C661.908,60.329 660.683,67.037 660.305,71.466C660.107,71.556 659.535,71.632 659.254,71.632C658.36,71.632 657.306,71.084 657.238,69.651C657.153,67.884 658.189,61.372 659.734,55.33C659.783,55.139 659.831,54.955 659.879,54.768C657.876,55.451 656.015,56.181 654.334,56.9C653.708,59.639 652.877,63.842 652.569,67.996C652.503,68.062 651.923,68.147 651.629,68.147C650.563,68.147 649.818,67.437 649.823,66.227C649.833,63.856 650.36,60.749 650.812,58.508C648.553,59.606 646.862,60.561 645.917,61.126C645.749,60.809 645.698,60.286 645.737,60.037C645.788,59.679 646,58.896 646.865,58.299C648.259,57.336 649.79,56.396 651.483,55.495C652.354,51.968 653.518,48.393 654.502,46.271C655.133,44.907 655.941,44.381 657.331,44.381C657.695,44.381 658.199,44.466 658.461,44.551C657.207,47.273 656.028,50.519 655.125,53.736C656.842,52.986 658.706,52.275 660.735,51.615C661.717,48.182 662.608,45.723 663.432,44.158C663.947,43.182 664.808,42.788 665.577,42.692C666.257,42.609 666.859,42.698 667.393,42.839C666.105,45.904 665.263,48.166 664.536,50.493C665.928,50.123 667.389,49.774 668.925,49.45C669.759,49.275 672.788,48.738 673.338,51.662C669.948,52.043 666.675,52.741 663.634,53.598ZM650.35,75.563C649.82,75.563 649.301,76.048 649.301,76.59C649.301,76.993 649.589,77.27 649.98,77.27C650.511,77.27 651.041,76.786 651.041,76.244C651.041,75.843 650.742,75.563 650.35,75.563ZM646.728,76.039C646.43,77.49 645.484,82.062 645.484,82.062C645.425,82.314 645.086,83.629 646.462,83.629L646.669,83.629L648.478,74.868C648.478,74.868 647.023,74.6 646.728,76.039ZM648.876,79.088C648.572,80.507 648.262,82.062 648.262,82.062C648.207,82.314 647.867,83.629 649.244,83.629L649.447,83.629L650.622,77.934C650.569,77.927 649.176,77.691 648.876,79.088ZM644.878,79.86C644.878,81.073 644.383,82.223 643.53,82.913C642.991,83.363 642.277,83.629 641.47,83.629C640.191,83.629 639.269,82.936 639.269,81.59C639.269,80.381 639.765,79.24 640.618,78.55C641.158,78.1 641.873,77.835 642.679,77.835C643.957,77.835 644.878,78.514 644.878,79.86ZM643.334,79.873C643.334,79.275 643.105,78.849 642.497,78.849C642.116,78.849 641.779,79.067 641.527,79.391C641.053,79.988 640.812,80.944 640.812,81.59C640.812,82.188 641.053,82.616 641.665,82.616C642.045,82.616 642.367,82.396 642.621,82.072C643.094,81.476 643.334,80.519 643.334,79.873ZM672.159,75.662C671.931,76.726 670.838,82.061 670.838,82.061C670.769,82.368 670.466,83.629 671.817,83.629L672.025,83.629L673.897,74.536C673.541,74.472 672.412,74.48 672.159,75.662ZM677.542,77.835C676.812,77.835 676.188,78.164 675.789,78.607C675.789,78.607 675.737,77.499 674.274,77.94C674.539,78.715 674.394,78.988 674.097,80.551L673.788,82.062C673.734,82.323 673.392,83.629 674.768,83.629L674.972,83.629L675.515,81.002C675.667,80.299 675.947,78.963 677.012,78.963C677.542,78.963 677.813,79.292 677.647,80.101L677.243,82.061C677.185,82.311 676.836,83.629 678.222,83.629L678.426,83.629L679.167,80.042C679.496,78.508 678.699,77.835 677.542,77.835ZM637.893,75.728C637.825,76.06 637.672,76.786 637.426,77.977L634.884,78.483L635.631,74.868C635.4,74.827 634.14,74.727 633.881,76.039C633.8,76.45 632.634,82.062 632.634,82.062C632.576,82.354 632.236,83.629 633.61,83.629L633.822,83.629L634.556,80.078L637.098,79.572C636.845,80.793 636.582,82.062 636.582,82.062C636.525,82.315 636.186,83.629 637.562,83.629L637.768,83.629L639.648,74.536C639.648,74.536 638.191,74.275 637.893,75.728ZM683.783,77.835C683.052,77.835 682.429,78.164 682.03,78.607C682.03,78.607 681.977,77.499 680.515,77.94C680.78,78.715 680.635,78.988 680.338,80.551L680.028,82.062C679.975,82.323 679.632,83.629 681.009,83.629L681.213,83.629L681.756,81.002C681.907,80.299 682.188,78.963 683.253,78.963C683.783,78.963 684.054,79.292 683.888,80.101L683.484,82.061C683.426,82.311 683.078,83.629 684.462,83.629L684.667,83.629L685.408,80.042C685.737,78.508 684.939,77.835 683.783,77.835ZM655.034,78.892C654.953,78.844 654.758,78.804 654.585,78.804C653.411,78.804 652.46,80.244 652.46,81.579C652.46,82.235 652.767,82.592 653.285,82.592C653.653,82.592 653.907,82.454 654.116,82.223C654.322,81.981 654.46,81.625 654.552,81.21L655.034,78.892ZM657.371,74.868L655.564,83.629L655.36,83.629C654.898,83.629 654.496,83.461 654.362,83.042C654.042,83.378 653.504,83.629 652.813,83.629C651.66,83.629 650.901,82.857 650.901,81.625C650.901,79.62 652.467,77.835 654.666,77.835C654.883,77.835 655.103,77.853 655.241,77.886C655.227,77.955 655.481,76.752 655.617,76.064C655.895,74.653 657.25,74.853 657.371,74.868ZM662.716,78.365L661.629,83.629L661.425,83.629C660.965,83.629 660.559,83.469 660.425,83.038C660.115,83.373 659.568,83.629 658.876,83.629C657.725,83.629 657.023,82.87 657.023,81.636C657.023,79.529 658.692,77.835 660.788,77.835C661.508,77.835 662.13,78.044 662.716,78.365ZM661.098,78.888C661.002,78.841 660.891,78.804 660.754,78.804C659.418,78.804 658.575,80.415 658.575,81.59C658.575,82.245 658.829,82.592 659.347,82.592C659.716,82.592 659.983,82.454 660.19,82.223C660.396,81.981 660.524,81.625 660.614,81.21L661.098,78.888ZM667.262,79.144C667.575,77.689 669.041,77.936 669.041,77.936L668.006,82.788C667.799,83.765 667.521,84.456 667.073,84.962C666.523,85.583 665.658,85.951 664.565,85.951C663.292,85.951 662.334,85.378 662.334,84.41C662.334,83.753 662.749,83.295 663.634,83.076C663.403,82.821 663.254,82.489 663.254,82.076C663.254,81.787 663.324,81.443 663.392,81.107C663.392,81.107 663.45,80.843 663.792,79.242C664.134,77.641 665.59,77.936 665.59,77.936L664.912,81.154C664.854,81.431 664.549,82.489 665.508,82.489C666.583,82.489 666.831,81.154 666.98,80.454C666.98,80.454 666.95,80.598 667.262,79.144ZM666.405,83.087C666.108,83.352 665.59,83.491 665.002,83.558C664.175,83.65 663.611,83.79 663.611,84.363C663.611,84.812 664.048,85.065 664.578,85.065C665.002,85.065 665.395,84.916 665.682,84.643C665.979,84.353 666.187,83.952 666.302,83.501L666.405,83.087ZM686.287,78.173C686.287,78.112 686.252,78.092 686.18,78.092L686.123,78.092L686.123,78.261L686.191,78.261C686.263,78.261 686.287,78.225 686.287,78.173ZM686.386,78.479C686.375,78.486 686.358,78.493 686.341,78.493C686.307,78.493 686.287,78.482 686.267,78.447L686.194,78.319L686.123,78.319L686.123,78.49L686.045,78.49L686.045,78.092L686.007,78.092L686.007,78.033L686.191,78.033C686.296,78.033 686.367,78.076 686.367,78.17C686.367,78.24 686.333,78.289 686.269,78.308L686.33,78.415C686.34,78.433 686.347,78.436 686.356,78.436C686.367,78.436 686.379,78.431 686.39,78.425L686.386,78.479ZM686.548,78.261C686.548,78.03 686.406,77.893 686.195,77.893C685.984,77.893 685.84,78.03 685.84,78.261C685.84,78.492 685.984,78.629 686.195,78.629C686.406,78.629 686.548,78.492 686.548,78.261ZM686.62,78.261C686.62,78.514 686.453,78.688 686.195,78.688C685.936,78.688 685.769,78.514 685.769,78.261C685.769,78.008 685.936,77.835 686.195,77.835C686.453,77.835 686.62,78.008 686.62,78.261ZM662.383,67.632C662.383,67.57 662.349,67.551 662.277,67.551L662.219,67.551L662.219,67.72L662.288,67.72C662.36,67.72 662.383,67.684 662.383,67.632ZM662.483,67.937C662.471,67.945 662.454,67.952 662.438,67.952C662.405,67.952 662.383,67.941 662.364,67.906L662.29,67.777L662.219,67.777L662.219,67.949L662.142,67.949L662.142,67.551L662.104,67.551L662.104,67.492L662.288,67.492C662.392,67.492 662.463,67.535 662.463,67.629C662.463,67.699 662.43,67.747 662.366,67.767L662.426,67.873C662.437,67.891 662.443,67.894 662.453,67.894C662.463,67.894 662.476,67.89 662.487,67.884L662.483,67.937ZM662.645,67.72C662.645,67.489 662.502,67.352 662.292,67.352C662.081,67.352 661.937,67.489 661.937,67.72C661.937,67.951 662.081,68.088 662.292,68.088C662.502,68.088 662.645,67.951 662.645,67.72ZM662.716,67.72C662.716,67.973 662.549,68.147 662.292,68.147C662.034,68.147 661.865,67.973 661.865,67.72C661.865,67.467 662.034,67.294 662.292,67.294C662.549,67.294 662.716,67.467 662.716,67.72Z" style="fill:rgb(104,110,111);fill-rule:nonzero;"/>
        </g>
    </g>
</svg>
