<?xml version="1.0" encoding="UTF-8" standalone="no"?>
<!DOCTYPE svg PUBLIC "-//W3C//DTD SVG 1.1//EN" "http://www.w3.org/Graphics/SVG/1.1/DTD/svg11.dtd">
<svg width="100%" height="100%" viewBox="0 0 116 57" version="1.1" xmlns="http://www.w3.org/2000/svg" xmlns:xlink="http://www.w3.org/1999/xlink" xml:space="preserve" xmlns:serif="http://www.serif.com/" style="fill-rule:evenodd;clip-rule:evenodd;stroke-linejoin:round;stroke-miterlimit:2;">
    <g transform="matrix(1,0,0,1,-1474.32,-210.264)">
        <g transform="matrix(2,0,0,2,0,0)">
            <path d="M765.541,105.132L737.162,105.132L737.162,133.511L765.541,133.511L765.541,105.132ZM794.766,133.515L766.383,133.515L766.383,105.132L794.766,105.132L794.766,133.515Z" style="fill:rgb(32,59,110);fill-rule:nonzero;"/>
            <path d="M765.541,114.322C761.901,114.449 758.52,114.955 755.17,115.854C753.726,121.01 752.72,126.497 752.264,131.422C752.133,131.476 751.678,131.542 751.436,131.542C750.292,131.542 749.634,131.083 749.634,129.997C749.634,127.357 750.668,121.849 751.974,116.831C750.383,117.375 748.787,118.01 747.167,118.734C746.42,121.91 745.89,125.21 745.626,128.447C745.48,128.517 745.071,128.575 744.818,128.575C743.9,128.575 743.264,127.964 743.264,126.924C743.264,125.168 743.607,122.728 744.132,120.183C742.761,120.877 741.371,121.633 739.95,122.454C739.806,122.182 739.763,121.814 739.794,121.603C739.839,121.296 740.03,120.641 740.756,120.119C742.176,119.098 742.984,118.702 744.668,117.798C745.417,114.733 746.355,111.776 747.209,109.931C747.752,108.759 748.448,108.306 749.64,108.306C749.955,108.306 750.389,108.381 750.615,108.453C749.526,110.816 748.581,113.464 747.804,116.255C749.343,115.563 750.961,114.929 752.647,114.372C753.418,111.697 754.236,109.352 754.963,107.935C755.402,107.081 756.077,106.633 757.083,106.633C757.549,106.633 758.063,106.708 758.357,106.817C757.452,108.854 756.63,111.086 755.897,113.417C758.898,112.647 762.095,112.134 765.541,111.969L765.541,114.322ZM754.324,127.767L754.422,127.767L754.527,127.687L754.422,127.614L754.324,127.614L754.324,127.767ZM754.24,127.548L754.435,127.548C754.552,127.548 754.61,127.596 754.61,127.692L754.478,127.833L754.623,128.056L754.536,128.056L754.392,127.833L754.324,127.833L754.324,128.056L754.24,128.056L754.24,127.548ZM754.408,128.171C754.607,128.171 754.756,128.01 754.756,127.804C754.756,127.596 754.607,127.433 754.408,127.433C754.205,127.433 754.055,127.596 754.055,127.804C754.055,128.01 754.205,128.171 754.408,128.171ZM754.407,127.369C754.646,127.369 754.841,127.563 754.841,127.804C754.841,128.043 754.646,128.238 754.407,128.238C754.167,128.238 753.971,128.043 753.971,127.804C753.971,127.563 754.167,127.369 754.407,127.369ZM769.596,117.025L772.882,117.025L772.838,117.212C772.702,117.574 772.487,117.652 772.123,117.655L771.072,117.654L771.071,117.653L770.362,117.653L769.991,119.391L771.235,119.391L771.919,119.392L771.876,119.575C771.742,119.931 771.53,120.007 771.173,120.01L771.036,120.01L771.036,120.012L769.861,120.012L769.447,122.047L771.32,122.047L771.32,122.048L772.018,122.048L771.972,122.234C771.836,122.596 771.622,122.675 771.257,122.678L770.206,122.677L770.206,122.676L769.221,122.676L769.221,122.675L769.195,122.675C768.384,122.675 768.584,121.902 768.619,121.753L769.596,117.025ZM791.478,118.984C791.822,118.984 792.236,119.086 792.501,119.225L792.623,118.648C792.364,118.52 791.89,118.417 791.521,118.417C790.497,118.417 789.748,118.941 789.748,119.708C789.748,120.31 790.212,120.602 790.711,120.827C791.279,121.084 791.53,121.231 791.53,121.541C791.53,121.893 791.185,122.169 790.575,122.169C790.151,122.169 789.678,122.057 789.334,121.808L789.204,122.41C789.575,122.642 790.083,122.746 790.53,122.746C791.579,122.746 792.339,122.255 792.339,121.412C792.339,120.827 791.932,120.55 791.279,120.241C790.833,120.035 790.548,119.862 790.548,119.586C790.548,119.25 790.909,118.984 791.478,118.984ZM788.093,120.241C787.645,120.035 787.362,119.862 787.362,119.586C787.362,119.25 787.723,118.984 788.292,118.984C788.634,118.984 789.048,119.086 789.315,119.225L789.435,118.648C789.177,118.52 788.704,118.417 788.333,118.417C787.309,118.417 786.56,118.941 786.56,119.708C786.56,120.31 787.025,120.602 787.525,120.827C788.093,121.084 788.341,121.231 788.341,121.541C788.341,121.893 787.999,122.169 787.387,122.169C786.964,122.169 786.493,122.057 786.148,121.808L786.018,122.41C786.388,122.642 786.897,122.746 787.343,122.746C788.394,122.746 789.151,122.255 789.151,121.412C789.151,120.827 788.747,120.55 788.093,120.241ZM784.891,119.001C785.236,119.001 785.425,119.208 785.425,119.509C785.425,120.111 784.934,120.49 784.099,120.49C783.875,120.49 783.54,120.448 783.402,120.404C783.591,119.759 784.16,119.001 784.891,119.001ZM784.142,121.059C785.399,121.059 786.216,120.353 786.216,119.5C786.216,118.761 785.596,118.417 784.917,118.417C783.488,118.417 782.412,119.871 782.412,121.231C782.412,122.194 783.092,122.746 784.031,122.746C784.555,122.746 785.141,122.583 785.511,122.35L785.64,121.713C785.296,121.937 784.719,122.152 784.246,122.152C783.625,122.152 783.274,121.799 783.274,121.196L783.29,120.947C783.523,121.016 783.884,121.059 784.142,121.059ZM782.794,119.148L782.95,118.451L782.656,118.417C782.124,118.417 781.744,118.726 781.504,119.139L781.504,118.495L780.876,118.495C780.876,118.495 780.886,118.682 780.824,119.105L780.323,121.453L780.244,121.812C780.212,121.954 780.023,122.684 780.79,122.684L780.904,122.684L781.087,121.822L781.088,121.822L781.297,120.851C781.426,120.249 781.555,119.689 781.865,119.38C782.028,119.217 782.235,119.123 782.528,119.123C782.623,119.123 782.751,119.139 782.794,119.148ZM777.451,122.177C777.278,122.177 777.081,122.152 776.977,122.109L777.17,121.205L777.167,121.205L777.605,119.13C777.787,119.053 778.087,119.001 778.311,119.001C778.915,119.001 779.206,119.303 779.206,119.913C779.206,121.067 778.5,122.177 777.451,122.177ZM778.491,118.417C778.491,118.417 777.995,118.387 776.872,118.633L776.587,119.979L776.585,119.979L776.325,121.205L776.323,121.205L775.836,123.5C775.803,123.642 775.616,124.373 776.381,124.373L776.495,124.373L776.859,122.661C777.041,122.711 777.305,122.746 777.502,122.746C779.059,122.746 780.066,121.369 780.066,119.871C780.066,118.881 779.429,118.417 778.491,118.417ZM775.282,121.893L774.723,120.585L776.471,118.495L775.695,118.495L774.482,120.018L773.836,118.495L772.951,118.495L773.828,120.542L772.002,122.668L772.786,122.668L774.069,121.119L774.439,121.988C774.552,122.246 774.637,122.402 774.757,122.521C774.912,122.668 775.119,122.746 775.369,122.746L775.634,122.71L775.305,121.941L775.282,121.893ZM792.955,118.046L793.025,118.046L793.1,117.99L793.025,117.937L792.955,117.937L792.955,118.046ZM792.896,117.89L793.035,117.89L793.16,117.993L793.066,118.092L793.168,118.253L793.107,118.253L793.004,118.092L792.955,118.092L792.955,118.253L792.896,118.253L792.896,117.89ZM793.014,118.335C793.158,118.335 793.265,118.221 793.265,118.072C793.265,117.924 793.158,117.809 793.014,117.809C792.871,117.809 792.763,117.924 792.763,118.072C792.763,118.221 792.871,118.335 793.014,118.335ZM793.014,117.762C793.185,117.762 793.325,117.901 793.325,118.072C793.325,118.244 793.185,118.382 793.014,118.382C792.843,118.382 792.704,118.244 792.704,118.072C792.704,117.901 792.843,117.762 793.014,117.762ZM771.307,111.382L770.997,112.871L770.997,112.874C770.473,112.974 770.08,113.067 769.704,113.172L769.766,112.871L770.077,111.382L769.386,111.382L768.954,113.456C768.855,113.499 768.751,113.548 768.63,113.61C768.443,113.707 768.376,113.851 768.356,113.921L768.362,114.124C768.529,114.058 768.692,113.996 768.854,113.936L768.687,114.741C768.661,114.855 768.506,115.453 769.131,115.453L769.226,115.453L769.583,113.74C769.97,113.635 770.365,113.545 770.877,113.447L770.871,113.478L770.608,114.741C770.582,114.855 770.426,115.453 771.052,115.453L771.146,115.453L771.998,111.382L771.307,111.382ZM786.691,111.401L785.991,114.759C785.965,114.874 785.81,115.471 786.436,115.471L786.531,115.471L787.382,111.401L786.691,111.401ZM788.992,112.819C788.66,112.819 788.375,112.968 788.196,113.168L788.131,112.866L787.604,112.866C787.604,113.08 787.57,113.378 787.475,113.827L787.144,115.403L787.835,115.403L788.082,114.257C788.148,113.938 788.266,113.331 788.75,113.331C788.991,113.331 789.116,113.484 789.041,113.848L788.856,114.738C788.83,114.854 788.671,115.451 789.299,115.451L789.393,115.451L789.74,113.822C789.889,113.125 789.518,112.819 788.992,112.819ZM784,115.419C783.948,115.623 783.853,115.807 783.718,115.937C783.587,116.063 783.409,116.13 783.215,116.13C782.975,116.13 782.777,116.014 782.777,115.812C782.777,115.549 783.033,115.487 783.409,115.445C783.675,115.414 783.912,115.351 784.048,115.23L784,115.419ZM784.308,114.033C784.242,114.352 784.128,114.958 783.639,114.958C783.202,114.958 783.341,114.477 783.367,114.352L783.675,112.886L782.985,112.886L782.677,114.331C782.646,114.482 782.614,114.639 782.614,114.769C782.614,114.958 782.681,115.11 782.786,115.225C782.382,115.325 782.195,115.534 782.195,115.833C782.195,116.272 782.629,116.533 783.21,116.533C783.708,116.533 784.099,116.366 784.351,116.083C784.555,115.853 784.681,115.54 784.775,115.095L785.246,112.886L784.555,112.886L784.308,114.033ZM791.795,112.819C791.462,112.819 791.179,112.968 790.999,113.168L790.936,112.866L790.408,112.866C790.408,113.08 790.375,113.378 790.279,113.827L789.948,115.403L790.638,115.403L790.884,114.257C790.952,113.938 791.07,113.331 791.554,113.331C791.795,113.331 791.92,113.484 791.844,113.848L791.659,114.738C791.632,114.854 791.475,115.451 792.104,115.451L792.196,115.451L792.543,113.822C792.693,113.125 792.321,112.819 791.795,112.819ZM781.371,114.372C781.33,114.561 781.272,114.722 781.177,114.833C781.083,114.937 780.962,115 780.795,115C780.56,115 780.439,114.844 780.439,114.545C780.439,114.011 780.827,113.279 781.434,113.279L781.596,113.32L781.371,114.372ZM781.45,112.838C780.497,112.838 779.739,113.609 779.739,114.566C779.739,115.125 780.057,115.471 780.581,115.471C780.895,115.471 781.162,115.346 781.308,115.172C781.356,115.356 781.536,115.451 781.745,115.451L781.837,115.451L782.342,113.09C782.083,112.931 781.777,112.838 781.45,112.838ZM773.271,114.765C773.157,114.912 773.011,115.011 772.837,115.011C772.56,115.011 772.452,114.817 772.452,114.545C772.452,114.252 772.56,113.817 772.776,113.545C772.89,113.4 773.042,113.299 773.215,113.299C773.492,113.299 773.596,113.493 773.596,113.765C773.596,114.058 773.487,114.493 773.271,114.765ZM773.298,112.838C772.932,112.838 772.607,112.959 772.362,113.164C771.975,113.478 771.75,113.996 771.75,114.545C771.75,115.158 772.167,115.471 772.75,115.471C773.116,115.471 773.44,115.351 773.685,115.146C774.073,114.833 774.297,114.31 774.297,113.76C774.297,113.148 773.879,112.838 773.298,112.838ZM775.8,114.759C775.774,114.875 775.62,115.471 776.246,115.471L776.338,115.471L776.888,112.886L776.197,112.886L775.8,114.759ZM774.454,114.759C774.428,114.875 774.273,115.471 774.9,115.471L774.994,115.471L775.724,111.983L775.034,111.983L774.454,114.759ZM776.768,111.807C776.528,111.807 776.292,112.027 776.292,112.273C776.292,112.457 776.423,112.582 776.601,112.582C776.841,112.582 777.083,112.362 777.083,112.117C777.083,111.934 776.947,111.807 776.768,111.807ZM778.652,114.372C778.61,114.561 778.547,114.722 778.453,114.833C778.358,114.937 778.244,115 778.076,115C777.84,115 777.695,114.837 777.695,114.54C777.695,113.932 778.133,113.279 778.667,113.279L778.876,113.315L778.652,114.372ZM779.259,111.517L778.97,112.866C778.909,112.849 778.803,112.838 778.704,112.838C777.704,112.838 776.993,113.65 776.993,114.561C776.993,115.121 777.338,115.471 777.862,115.471C778.175,115.471 778.442,115.346 778.588,115.172C778.636,115.356 778.813,115.451 779.023,115.451L779.116,115.451L779.958,111.517L779.259,111.517Z" style="fill:white;fill-rule:nonzero;"/>
        </g>
    </g>
</svg>
