<?xml version="1.0" encoding="UTF-8" standalone="no"?>
<!DOCTYPE svg PUBLIC "-//W3C//DTD SVG 1.1//EN" "http://www.w3.org/Graphics/SVG/1.1/DTD/svg11.dtd">
<svg width="100%" height="100%" viewBox="0 0 244 211" version="1.1" xmlns="http://www.w3.org/2000/svg" xmlns:xlink="http://www.w3.org/1999/xlink" xml:space="preserve" xmlns:serif="http://www.serif.com/" style="fill-rule:evenodd;clip-rule:evenodd;stroke-linejoin:round;stroke-miterlimit:2;">
    <g transform="matrix(1,0,0,1,-3525.5,-265.075)">
        <g transform="matrix(4.16667,0,0,4.16667,0,0)">
            <path d="M902.233,66.639C902.483,66.639 902.613,66.529 902.613,66.32L902.613,66.31C902.613,66.081 902.473,66 902.233,66L901.954,66L901.954,66.639L902.233,66.639ZM901.475,65.632L902.244,65.632C902.752,65.632 903.082,65.841 903.082,66.29L903.082,66.3C903.082,66.629 902.892,66.808 902.631,66.889L903.211,67.816L902.711,67.816L902.183,66.968L901.954,66.968L901.954,67.816L901.475,67.816L901.475,65.632ZM904.049,66.749C904.049,65.661 903.292,64.903 902.233,64.903C901.176,64.903 900.417,65.672 900.417,66.759C900.417,67.856 901.215,68.595 902.233,68.595C903.261,68.595 904.049,67.836 904.049,66.749ZM900.018,66.759C900.018,65.532 900.996,64.543 902.233,64.543C903.491,64.543 904.449,65.521 904.449,66.749C904.449,67.996 903.47,68.954 902.233,68.954C901.005,68.954 900.018,68.006 900.018,66.759ZM888.533,68.166C887.257,68.166 886.139,68.464 885.177,69.06C884.215,69.656 883.478,70.472 882.965,71.507C882.454,72.541 882.198,73.728 882.198,75.066C882.198,76.468 882.475,77.691 883.029,78.736C883.583,79.781 884.335,80.582 885.288,81.136C886.239,81.689 887.321,81.967 888.533,81.967C890.143,81.967 891.502,81.528 892.611,80.649C893.719,79.77 894.326,78.653 894.43,77.293L888.031,77.293L888.031,72.839L899.417,72.839C899.584,73.739 899.668,74.575 899.668,75.349C899.668,77.586 899.171,79.547 898.177,81.229C897.184,82.913 895.846,84.215 894.164,85.135C892.48,86.055 890.603,86.515 888.533,86.515C886.317,86.515 884.335,86.013 882.59,85.009C880.843,84.005 879.505,82.646 878.575,80.932C877.644,79.217 877.179,77.262 877.179,75.066C877.179,72.745 877.681,70.722 878.685,68.997C879.689,67.272 881.053,65.945 882.778,65.014C884.502,64.084 886.421,63.618 888.533,63.618C890.269,63.618 891.879,63.943 893.363,64.591C894.848,65.239 896.082,66.148 897.065,67.319L893.74,70.425C892.171,68.918 890.436,68.166 888.533,68.166ZM855.287,64.089L860.085,64.089L860.085,72.839L869.557,72.839L869.557,64.089L874.356,64.089L874.356,86.044L869.557,86.044L869.557,77.293L860.085,77.293L860.085,86.044L855.287,86.044L855.287,64.089ZM851.523,86.044L846.723,86.044L846.723,64.089L851.523,64.089L851.523,86.044ZM873.013,110.682L873.013,110.577C873.013,108.82 872.042,107.942 870.871,107.942C869.58,107.942 868.595,108.793 868.595,110.577L868.595,110.682C868.595,112.465 869.526,113.304 870.883,113.304C872.268,113.304 873.013,112.373 873.013,110.682ZM868.635,112.958L868.635,114.103L867.531,114.103L867.531,103.817L868.635,103.817L868.635,108.315C869.034,107.635 869.979,107.024 870.99,107.024C872.813,107.024 874.157,108.354 874.157,110.523L874.157,110.629C874.157,112.758 872.907,114.222 870.99,114.222C869.859,114.222 869.034,113.65 868.635,112.958ZM859.56,111.548L859.56,107.143L860.665,107.143L860.665,111.495C860.665,112.718 861.183,113.264 862.274,113.264C863.259,113.264 864.191,112.612 864.191,111.362L864.191,107.143L865.295,107.143L865.295,114.103L864.191,114.103L864.191,112.998C863.872,113.65 863.1,114.222 861.982,114.222C860.597,114.222 859.56,113.464 859.56,111.548ZM856.247,103.817L857.365,103.817L857.365,114.103L856.247,114.103L856.247,103.817ZM846.121,109.406L846.121,109.298C846.121,106.478 848.01,104.442 850.591,104.442C852.575,104.442 854.25,105.494 854.451,107.555L853.306,107.555C853.067,106.105 852.229,105.36 850.605,105.36C848.635,105.36 847.319,106.891 847.319,109.286L847.319,109.392C847.319,111.814 848.542,113.277 850.591,113.277C852.149,113.277 853.226,112.493 853.466,110.95L854.543,110.95C854.211,113.145 852.694,114.222 850.565,114.222C847.81,114.222 846.121,112.333 846.121,109.406ZM892.4,99.134L893.477,99.134C893.557,99.959 893.997,100.478 895.114,100.478C896.166,100.478 896.631,100.119 896.631,99.373C896.631,98.642 896.085,98.402 895.007,98.202C893.198,97.87 892.586,97.364 892.586,96.153C892.586,94.862 893.85,94.197 894.942,94.197C896.192,94.197 897.27,94.703 897.456,96.206L896.391,96.206C896.232,95.448 895.806,95.115 894.928,95.115C894.129,95.115 893.61,95.515 893.61,96.113C893.61,96.739 893.957,96.991 895.234,97.217C896.67,97.484 897.682,97.804 897.682,99.28C897.682,100.544 896.817,101.395 895.127,101.395C893.464,101.395 892.466,100.558 892.4,99.134ZM889.672,97.844L889.672,97.736C889.672,95.953 888.82,95.115 887.463,95.115C886.079,95.115 885.254,96.087 885.254,97.776L885.254,97.883C885.254,99.64 886.199,100.478 887.371,100.478C888.661,100.478 889.672,99.626 889.672,97.844ZM884.109,97.936L884.109,97.83C884.109,95.7 885.44,94.197 887.356,94.197C888.514,94.197 889.233,94.756 889.632,95.435L889.632,90.99L890.737,90.99L890.737,101.276L889.632,101.276L889.632,100.079C889.233,100.756 888.261,101.395 887.25,101.395C885.427,101.395 884.109,100.105 884.109,97.936ZM879.812,94.316L880.917,94.316L880.917,95.567C881.356,94.783 881.955,94.237 883.206,94.197L883.206,95.235C881.808,95.301 880.917,95.74 880.917,97.457L880.917,101.276L879.812,101.276L879.812,94.316ZM876.539,98.841L876.539,97.976L875.581,97.976C874.184,97.976 873.159,98.322 873.159,99.347C873.159,100.065 873.505,100.518 874.476,100.518C875.647,100.518 876.539,99.919 876.539,98.841ZM872.054,99.347C872.054,97.736 873.757,97.191 875.541,97.191L876.539,97.191L876.539,96.686C876.539,95.581 876.113,95.115 875.048,95.115C874.09,95.115 873.558,95.515 873.452,96.366L872.348,96.366C872.494,94.783 873.757,94.197 875.101,94.197C876.432,94.197 877.643,94.743 877.643,96.686L877.643,101.276L876.539,101.276L876.539,100.398C876.02,101.049 875.394,101.395 874.37,101.395C873.079,101.395 872.054,100.77 872.054,99.347ZM861.436,94.316L862.633,94.316L864.257,99.919L865.947,94.316L866.905,94.316L868.488,99.919L870.125,94.316L871.256,94.316L869.086,101.276L867.863,101.276L866.413,96.061L864.79,101.276L863.579,101.276L861.436,94.316ZM859.414,97.124C859.307,95.687 858.562,95.115 857.417,95.115C856.287,95.115 855.528,95.887 855.341,97.124L859.414,97.124ZM854.158,97.87L854.158,97.764C854.158,95.66 855.501,94.197 857.417,94.197C859.028,94.197 860.544,95.169 860.544,97.656L860.544,98.016L855.302,98.016C855.355,99.6 856.114,100.478 857.538,100.478C858.615,100.478 859.241,100.079 859.387,99.267L860.492,99.267C860.251,100.664 859.094,101.395 857.524,101.395C855.555,101.395 854.158,100.012 854.158,97.87ZM849.527,96.22C850.884,96.22 851.617,95.634 851.617,94.464L851.617,94.41C851.617,93.119 850.818,92.693 849.527,92.693L847.745,92.693L847.745,96.22L849.527,96.22ZM846.586,91.762L849.448,91.762C851.271,91.762 852.774,92.507 852.774,94.41L852.774,94.464C852.774,96.033 851.722,96.805 850.418,97.059L853.333,101.276L852.042,101.276L849.208,97.138L847.745,97.138L847.745,101.276L846.586,101.276L846.586,91.762Z" style="fill:rgb(104,110,111);fill-rule:nonzero;"/>
        </g>
    </g>
</svg>
