<?xml version="1.0" encoding="UTF-8" standalone="no"?>
<!DOCTYPE svg PUBLIC "-//W3C//DTD SVG 1.1//EN" "http://www.w3.org/Graphics/SVG/1.1/DTD/svg11.dtd">
<svg width="100%" height="100%" viewBox="0 0 277 63" version="1.1" xmlns="http://www.w3.org/2000/svg" xmlns:xlink="http://www.w3.org/1999/xlink" xml:space="preserve" xmlns:serif="http://www.serif.com/" style="fill-rule:evenodd;clip-rule:evenodd;stroke-linejoin:round;stroke-miterlimit:2;">
    <g transform="matrix(1,0,0,1,-710.029,-466.096)">
        <g transform="matrix(4.16667,0,0,4.16667,0,0)">
            <path d="M234.378,112.306L234.712,112.306L234.712,113.379L234.988,113.379L234.988,112.306L235.316,112.306L235.316,112.047L234.378,112.047L234.378,112.306Z" style="fill:rgb(104,110,111);fill-rule:nonzero;"/>
            <path d="M236.615,112.047L236.229,112.526L235.869,112.047L235.586,112.047L235.586,113.379L235.861,113.379L235.861,112.461L236.168,112.855L236.29,112.855L236.597,112.458L236.597,113.379L236.875,113.379L236.875,112.047L236.615,112.047Z" style="fill:rgb(104,110,111);fill-rule:nonzero;"/>
            <path d="M216.187,122.492C215.521,123.62 213.303,124.81 211.337,124.529C209.119,124.184 207.027,122.585 207.027,118.793C207.027,117.302 207.259,116.151 207.621,115.258C208.654,113.034 210.513,112.552 211.359,112.552C212.616,112.552 213.375,112.938 213.559,113.172C213.202,113.346 212.906,113.667 212.764,114.088C212.415,114.965 212.827,116 213.746,116.344C214.665,116.689 215.711,116.188 216.06,115.31C216.345,114.715 216.123,113.962 215.743,113.493C215.331,113.023 214.19,111.863 211.496,111.863C206.362,111.863 203.541,115.534 203.541,119.232L203.541,119.246C203.548,123.376 206.651,126.785 210.482,126.785C214.412,126.785 216.155,124.278 216.567,122.71L216.187,122.492Z" style="fill:rgb(104,110,111);fill-rule:nonzero;"/>
            <path d="M179.917,112.047L179.917,112.549C182.676,112.815 181.667,115.187 180.912,117.19C180.332,118.725 179.451,120.862 179.007,121.929L179.005,121.94C178.273,120.141 176.29,115.264 176.097,114.779C175.806,114.046 175.308,112.536 177.01,112.536L177.01,112.047L170.407,112.047L170.407,112.536C170.946,112.536 171.694,112.417 172.379,114.06C172.379,114.06 172.608,114.409 177.696,126.502L178.049,126.502L179.398,123.182L181.787,117.304C182.722,115.117 183.429,113.933 184.012,113.292C184.735,112.495 185.265,112.536 185.794,112.536L185.794,112.047L179.917,112.047Z" style="fill:rgb(104,110,111);fill-rule:nonzero;"/>
            <path d="M193.602,125.864C191.2,125.864 190.054,124.621 189.992,119.365C190.058,114.139 191.204,112.689 193.602,112.689C195.979,112.689 197.105,114.139 197.17,119.365L197.171,119.365C197.11,124.621 195.984,125.864 193.602,125.864ZM200.766,119.365C200.76,115.305 198.166,111.863 193.602,111.863C189.038,111.863 186.443,115.305 186.437,119.365L186.437,119.377C186.437,123.464 189.033,126.687 193.602,126.687C198.17,126.687 200.766,123.464 200.766,119.377L200.766,119.365Z" style="fill:rgb(104,110,111);fill-rule:nonzero;"/>
            <path d="M226.32,125.864C223.918,125.864 222.772,124.621 222.71,119.365C222.776,114.139 223.923,112.689 226.32,112.689C228.698,112.689 229.824,114.139 229.889,119.365C229.828,124.621 228.703,125.864 226.32,125.864ZM233.484,119.365C233.479,115.371 230.966,111.978 226.54,111.869L226.54,111.863L226.32,111.863L226.101,111.863L226.101,111.869C221.674,111.978 219.162,115.371 219.156,119.365L219.156,119.377C219.156,123.464 221.751,126.687 226.32,126.687C230.889,126.687 233.485,123.464 233.485,119.377C233.485,119.374 233.484,119.369 233.484,119.365Z" style="fill:rgb(104,110,111);fill-rule:nonzero;"/>
        </g>
    </g>
</svg>
