<?xml version="1.0" encoding="UTF-8" standalone="no"?>
<!DOCTYPE svg PUBLIC "-//W3C//DTD SVG 1.1//EN" "http://www.w3.org/Graphics/SVG/1.1/DTD/svg11.dtd">
<svg width="100%" height="100%" viewBox="0 0 294 137" version="1.1" xmlns="http://www.w3.org/2000/svg" xmlns:xlink="http://www.w3.org/1999/xlink" xml:space="preserve" xmlns:serif="http://www.serif.com/" style="fill-rule:evenodd;clip-rule:evenodd;stroke-linejoin:round;stroke-miterlimit:2;">
    <g transform="matrix(1,0,0,1,-1713.7,-428.917)">
        <g transform="matrix(4.16667,0,0,4.16667,0,0)">
            <rect x="411.383" y="128.263" width="69.747" height="0.72" style="fill:rgb(104,110,111);fill-rule:nonzero;"/>
            <path d="M443.975,104.328L444.47,104.982C444.797,104.542 445.192,104.155 445.645,103.842C445.11,103.531 444.504,103.355 443.864,103.355C441.678,103.355 439.903,105.4 439.903,107.921C439.903,110.443 441.678,112.487 443.864,112.487C444.512,112.487 445.122,112.308 445.662,111.991C445.243,111.703 444.869,111.352 444.557,110.955L443.975,111.724L444.396,110.738C444.314,110.623 444.241,110.505 444.172,110.383L443.16,111.249L444.005,110.074C443.975,110.015 443.949,109.957 443.923,109.896L442.296,110.821L443.762,109.483L443.722,109.356L441.809,109.963L443.605,108.909L443.588,108.82L441.513,109.024L443.526,108.355L443.518,108.271L441.261,108.025L443.507,107.781L443.512,107.692L441.513,107.028L443.552,107.227L443.57,107.12L441.809,106.087L443.661,106.674L443.706,106.516L442.296,105.229L443.845,106.11C443.875,106.034 443.908,105.959 443.939,105.887L443.16,104.8L444.084,105.592C444.16,105.449 444.246,105.308 444.336,105.173L443.975,104.328ZM438.837,107.912C438.837,105.166 441.089,102.94 443.864,102.94C444.706,102.94 445.502,103.145 446.197,103.506C446.897,103.145 447.689,102.94 448.533,102.94C451.309,102.94 453.559,105.166 453.559,107.912C453.559,110.656 451.309,112.882 448.533,112.882C447.689,112.882 446.897,112.677 446.197,112.315C445.502,112.677 444.706,112.882 443.864,112.882C441.089,112.882 438.837,110.656 438.837,107.912ZM448.446,104.328L448.083,105.173C448.176,105.308 448.26,105.449 448.337,105.592L449.262,104.8L448.481,105.887C448.514,105.959 448.546,106.034 448.575,106.11L450.125,105.229L448.715,106.516L448.759,106.674L450.611,106.087L448.852,107.12L448.871,107.227L450.908,107.028L448.91,107.692L448.913,107.781L451.16,108.025L448.903,108.271L448.896,108.355L450.908,109.024L448.832,108.82L448.814,108.909L450.611,109.963L448.698,109.356L448.659,109.483L450.125,110.821L448.498,109.896C448.471,109.957 448.445,110.015 448.417,110.074L449.262,111.249L448.249,110.383C448.18,110.505 448.105,110.623 448.024,110.738L448.446,111.724L447.863,110.955C447.551,111.352 447.179,111.703 446.759,111.991C447.299,112.308 447.91,112.487 448.556,112.487C450.746,112.487 452.519,110.443 452.519,107.921C452.519,105.4 450.746,103.355 448.556,103.355C447.916,103.355 447.31,103.531 446.776,103.842C447.229,104.155 447.625,104.542 447.95,104.982L448.446,104.328ZM447.607,109.553C447.715,108.621 446.592,107.212 446.191,106.484C446.116,106.333 446.053,106.178 446.008,106.026C445.739,104.978 446.368,104.237 446.368,104.237C446.368,104.237 445.296,104.879 444.779,105.636C443.321,107.766 445.208,108.937 445.208,108.937C444.942,108.234 445.268,107.65 445.268,107.692C445.268,108.115 446.189,108.631 446.368,110.093C446.463,110.845 445.867,111.85 445.867,111.85C446.175,111.727 446.607,111.404 447.016,110.937C447.082,110.86 447.149,110.776 447.208,110.687C447.399,110.409 447.54,110.083 447.585,109.708C447.595,109.658 447.601,109.606 447.607,109.553ZM411.288,121.149C411.288,123.284 412.804,124.736 414.917,124.736C417.216,124.736 417.966,123.972 417.98,123.908L418.216,122.883C418.232,122.817 418.166,122.739 418.097,122.739C418.021,122.739 417.952,122.814 417.928,122.891C417.78,123.349 416.787,124.367 415.192,124.367C413.25,124.367 412.231,122.606 412.231,120.833C412.231,118.941 413.185,117.626 415.161,117.626C416.468,117.626 417.188,118.284 417.819,119.373L417.834,119.406L417.854,119.453C417.869,119.489 417.886,119.529 417.906,119.568C417.941,119.639 417.997,119.724 418.079,119.724C418.135,119.724 418.169,119.694 418.188,119.646C418.205,119.599 418.21,119.536 418.208,119.46C418.204,119.307 418.177,119.086 418.165,118.816C418.15,118.482 418.143,118.275 418.125,118.15C418.106,118.028 418.079,117.96 417.996,117.96C417.935,117.96 417.888,117.992 417.85,118.016C417.831,118.03 417.814,118.042 417.797,118.05C417.78,118.059 417.766,118.063 417.751,118.063C417.686,118.063 417.603,118.02 417.48,117.945C417.357,117.87 417.202,117.772 416.996,117.672C416.581,117.474 415.964,117.276 414.997,117.276C412.823,117.276 411.288,119.019 411.288,121.149ZM475.195,118.489C475.195,117.978 474.991,117.81 474.791,117.731C474.687,117.689 474.585,117.672 474.505,117.648C474.427,117.623 474.354,117.586 474.354,117.498C474.354,117.4 474.463,117.368 474.526,117.368C474.842,117.368 475.139,117.409 475.447,117.409C476.123,117.409 476.788,117.368 477.666,117.368C479.489,117.368 481.286,118.748 481.286,120.658C481.286,123.024 480.161,124.667 477.309,124.667C476.788,124.667 476.265,124.625 475.744,124.625C475.651,124.625 474.668,124.667 474.598,124.667C474.498,124.667 474.468,124.608 474.468,124.536C474.468,124.458 474.533,124.422 474.6,124.399C474.634,124.388 474.673,124.375 474.717,124.364C474.757,124.349 474.803,124.333 474.845,124.313C475.017,124.23 475.195,124.063 475.195,123.584L475.195,118.489ZM476.056,123.155C476.056,123.237 476.049,123.399 476.053,123.554C476.056,123.715 476.074,123.847 476.11,123.881C476.439,124.211 477.207,124.335 477.666,124.335C479.105,124.335 480.473,123.568 480.473,121.221C480.473,118.965 478.972,117.688 477.042,117.677C476.079,117.677 476.056,117.835 476.056,118.295L476.056,123.155ZM466.625,120.977C466.625,118.832 468.295,117.276 470.406,117.276C472.507,117.276 474.125,118.791 474.125,120.923C474.125,123.243 472.526,124.736 470.232,124.736C467.994,124.736 466.625,123.149 466.625,120.977ZM467.424,120.679C467.424,122.564 468.656,124.375 470.662,124.375C472.138,124.375 473.326,123.194 473.326,121.313C473.326,119.461 472.074,117.667 470.098,117.667C468.401,117.667 467.424,119.072 467.424,120.679ZM462.962,120.977C462.962,118.832 464.635,117.276 466.747,117.276C468.846,117.276 470.465,118.791 470.465,120.923C470.465,123.243 468.867,124.736 466.573,124.736C464.333,124.736 462.962,123.149 462.962,120.977ZM463.765,120.679C463.765,122.564 464.995,124.375 467,124.375C468.477,124.375 469.667,123.194 469.667,121.313C469.667,119.461 468.415,117.667 466.438,117.667C464.74,117.667 463.765,119.072 463.765,120.679ZM458.348,119.839C458.328,119.798 458.298,119.732 458.258,119.635L457.727,118.286C457.677,118.165 457.657,118.107 457.657,117.988C457.657,117.835 457.749,117.765 457.852,117.711L457.927,117.673C457.954,117.661 457.978,117.649 457.998,117.635C458.039,117.609 458.076,117.573 458.076,117.517C458.076,117.485 458.071,117.45 458.059,117.422C458.046,117.396 458.024,117.368 457.988,117.368C457.761,117.368 457.486,117.409 456.993,117.409C456.852,117.409 456.309,117.368 455.961,117.368C455.869,117.368 455.782,117.378 455.782,117.508C455.782,117.609 455.836,117.659 455.916,117.686C455.956,117.701 455.998,117.708 456.046,117.716C456.093,117.724 456.143,117.729 456.196,117.738C456.406,117.775 456.644,117.847 456.777,118.173L457.799,120.638C457.826,120.705 457.849,120.767 457.868,120.824C457.89,120.878 457.901,120.92 457.901,120.946C457.901,121 457.86,121.149 457.779,121.355L457.023,123.155C456.979,123.273 456.93,123.323 456.874,123.305C456.861,123.292 456.846,123.271 456.833,123.246C456.802,123.194 456.775,123.13 456.753,123.074L454.81,118.264C454.771,118.175 454.75,118.076 454.75,118.019C454.75,117.861 454.849,117.781 454.957,117.718C455.013,117.687 455.068,117.662 455.109,117.633C455.152,117.606 455.192,117.571 455.192,117.517C455.192,117.445 455.168,117.368 455.082,117.368C454.836,117.368 454.591,117.409 454.347,117.409C454.049,117.409 453.743,117.368 453.445,117.368C453.343,117.368 453.184,117.409 453.184,117.559C453.184,117.625 453.225,117.662 453.278,117.689C453.328,117.715 453.396,117.737 453.475,117.771C453.625,117.837 453.802,117.95 453.921,118.245L456.16,123.809C456.306,124.163 456.395,124.414 456.467,124.577C456.539,124.734 456.602,124.83 456.699,124.83C456.827,124.83 456.907,124.764 456.979,124.557L458.125,121.712C458.139,121.681 458.154,121.668 458.164,121.663C458.173,121.658 458.181,121.658 458.21,121.673C458.22,121.687 458.229,121.708 458.239,121.734L459.362,124.424C459.505,124.744 459.552,124.83 459.666,124.83C459.754,124.83 459.823,124.772 459.871,124.703C459.896,124.668 459.917,124.627 459.937,124.588C459.956,124.551 459.971,124.51 459.988,124.476L462.616,118.276C462.784,117.874 462.929,117.747 463.029,117.692C463.053,117.676 463.075,117.667 463.098,117.658L463.155,117.63C463.194,117.606 463.212,117.571 463.212,117.508C463.212,117.371 463.139,117.368 463.062,117.368C462.828,117.368 462.519,117.409 462.214,117.409C461.97,117.409 461.733,117.368 461.497,117.368C461.402,117.368 461.356,117.461 461.356,117.548C461.356,117.618 461.414,117.658 461.477,117.686C461.54,117.716 461.624,117.74 461.708,117.772C461.873,117.834 462.021,117.921 462.021,118.122C462.021,118.241 462.003,118.339 461.953,118.449L460.092,123.033C460.046,123.144 460.007,123.237 459.971,123.304C459.934,123.375 459.909,123.395 459.892,123.395C459.851,123.395 459.796,123.336 459.691,123.092L458.83,120.977C458.771,120.824 458.699,120.591 458.699,120.495C458.699,120.407 458.71,120.32 458.79,120.116L459.516,118.438C459.746,117.904 459.919,117.738 460.031,117.669C460.061,117.652 460.084,117.641 460.107,117.63L460.167,117.6C460.209,117.572 460.225,117.532 460.225,117.457C460.225,117.406 460.167,117.368 460.126,117.368C459.953,117.368 459.829,117.409 459.38,117.409C459.154,117.409 458.94,117.368 458.714,117.368C458.697,117.368 458.677,117.368 458.655,117.371C458.63,117.371 458.606,117.374 458.582,117.38C458.535,117.394 458.481,117.421 458.481,117.488C458.481,117.559 458.531,117.603 458.589,117.637C458.619,117.655 458.652,117.67 458.689,117.685L458.799,117.733C458.948,117.799 459.081,117.888 459.076,118.09C459.076,118.186 459.026,118.346 458.987,118.449L458.486,119.646C458.455,119.717 458.427,119.78 458.403,119.826C458.391,119.847 458.381,119.864 458.37,119.882C458.364,119.875 458.356,119.861 458.348,119.839ZM449.227,118.469C449.227,118.299 449.226,118.174 449.238,118.083C449.252,117.994 449.277,117.945 449.329,117.913C449.381,117.878 449.462,117.863 449.6,117.855C449.734,117.849 449.917,117.851 450.162,117.851C450.367,117.851 450.734,117.836 451.085,117.865C451.436,117.893 451.756,117.964 451.88,118.126C451.917,118.18 451.937,118.25 451.947,118.327C451.96,118.406 451.963,118.489 451.968,118.564C451.972,118.64 451.98,118.713 452.002,118.768C452.029,118.825 452.074,118.865 452.147,118.865C452.243,118.865 452.379,118.739 452.379,117.62C452.379,117.558 452.375,117.498 452.357,117.453C452.338,117.406 452.307,117.368 452.25,117.368C451.933,117.368 450.991,117.409 450.786,117.409C450.357,117.409 449.825,117.368 447.891,117.368C447.604,117.368 447.506,117.405 447.506,117.517C447.506,117.599 447.581,117.641 447.646,117.664C447.715,117.686 447.794,117.698 447.834,117.708C448.36,117.787 448.367,118.249 448.367,118.715L448.367,123.38C448.367,123.868 448.343,124.131 448.096,124.248C447.932,124.328 447.823,124.364 447.754,124.395C447.683,124.426 447.642,124.458 447.629,124.534C447.629,124.642 447.717,124.667 447.808,124.667C448.219,124.667 448.65,124.635 449.058,124.625C449.834,124.604 450.612,124.667 451.39,124.667C451.503,124.667 451.602,124.667 451.694,124.664C451.781,124.66 451.864,124.65 451.944,124.627C452.105,124.585 452.248,124.497 452.414,124.31C452.658,124.042 452.932,123.678 452.932,123.299C452.932,123.287 452.929,123.252 452.915,123.218C452.904,123.186 452.875,123.149 452.824,123.149C452.807,123.149 452.79,123.157 452.778,123.167C452.766,123.174 452.753,123.186 452.739,123.202C452.713,123.23 452.68,123.273 452.634,123.323C452.547,123.421 452.42,123.549 452.221,123.679C451.829,123.939 451.155,124.203 449.979,124.203C449.548,124.203 449.37,124.139 449.29,124.016C449.249,123.954 449.233,123.872 449.229,123.765C449.223,123.659 449.227,123.531 449.227,123.38L449.227,121.498C449.227,121.458 449.226,121.419 449.226,121.382C449.226,121.346 449.229,121.312 449.237,121.284C449.254,121.235 449.289,121.198 449.385,121.198L450.899,121.198C451.313,121.198 451.434,121.411 451.49,121.627C451.521,121.741 451.534,121.853 451.559,121.938C451.586,122.024 451.628,122.097 451.727,122.097C451.819,122.097 451.868,122.041 451.868,121.938C451.868,121.663 451.847,121.395 451.847,121.13C451.847,120.801 451.868,120.454 451.868,120.095C451.868,120.052 451.86,120 451.838,119.957C451.819,119.915 451.783,119.875 451.727,119.875C451.647,119.875 451.612,119.947 451.587,120.021C451.575,120.059 451.561,120.105 451.548,120.154C451.534,120.199 451.516,120.25 451.494,120.3C451.403,120.495 451.216,120.692 450.695,120.692L449.59,120.692C449.377,120.692 449.294,120.692 449.262,120.658C449.243,120.642 449.235,120.617 449.23,120.571C449.226,120.523 449.227,120.457 449.227,120.373L449.227,118.469ZM443.521,118.408C443.521,117.973 443.701,117.825 443.876,117.751C443.97,117.714 444.063,117.697 444.131,117.673C444.2,117.651 444.266,117.618 444.266,117.539C444.266,117.391 444.183,117.368 444.045,117.368C443.894,117.368 443.646,117.409 443.064,117.409C442.563,117.409 442.246,117.368 442.031,117.368C441.9,117.368 441.8,117.388 441.8,117.528C441.8,117.6 441.873,117.64 441.95,117.669C442.031,117.7 442.139,117.726 442.247,117.763C442.462,117.838 442.657,117.947 442.657,118.193L442.657,123.38C442.657,123.868 442.634,124.131 442.387,124.248C442.224,124.328 442.116,124.364 442.048,124.395C441.975,124.426 441.933,124.458 441.922,124.534C441.922,124.642 442.011,124.667 442.102,124.667C442.512,124.667 442.94,124.635 443.351,124.625C444.128,124.604 444.906,124.667 445.683,124.667C445.795,124.667 445.896,124.667 445.984,124.664C446.075,124.66 446.158,124.65 446.236,124.627C446.398,124.585 446.539,124.497 446.705,124.31C446.952,124.042 447.224,123.678 447.224,123.299C447.224,123.287 447.221,123.252 447.208,123.218C447.194,123.186 447.168,123.149 447.114,123.149C447.099,123.149 447.083,123.157 447.071,123.167C447.058,123.174 447.046,123.186 447.032,123.202C447.005,123.23 446.971,123.273 446.925,123.323C446.839,123.421 446.712,123.549 446.514,123.679C446.121,123.939 445.449,124.203 444.271,124.203C443.84,124.203 443.659,124.139 443.582,124.016C443.542,123.954 443.527,123.872 443.521,123.765C443.515,123.659 443.521,123.531 443.521,123.38L443.521,118.408ZM435.405,118.489C435.405,117.978 435.202,117.81 435.004,117.731C434.899,117.689 434.794,117.672 434.716,117.648C434.638,117.623 434.566,117.586 434.566,117.498C434.566,117.4 434.676,117.368 434.737,117.368C435.054,117.368 435.35,117.409 435.658,117.409C436.333,117.409 436.998,117.368 437.878,117.368C439.701,117.368 441.496,118.748 441.496,120.658C441.496,123.024 440.371,124.667 437.52,124.667C436.998,124.667 436.476,124.625 435.954,124.625C435.862,124.625 434.881,124.667 434.807,124.667C434.707,124.667 434.679,124.608 434.679,124.536C434.679,124.458 434.743,124.422 434.81,124.399C434.845,124.388 434.885,124.375 434.929,124.364C434.968,124.349 435.014,124.333 435.059,124.313C435.228,124.23 435.405,124.063 435.405,123.584L435.405,118.489ZM436.267,123.155C436.267,123.237 436.261,123.399 436.264,123.554C436.267,123.715 436.285,123.847 436.322,123.881C436.651,124.211 437.417,124.335 437.878,124.335C439.317,124.335 440.686,123.568 440.686,121.221C440.686,118.965 439.183,117.688 437.255,117.677C436.289,117.677 436.267,117.835 436.267,118.295L436.267,123.155ZM432.788,123.127C432.77,123.108 432.745,123.08 432.713,123.045L427.833,117.613C427.804,117.577 427.764,117.517 427.719,117.468C427.674,117.417 427.616,117.368 427.547,117.368C427.394,117.368 427.229,117.409 427.076,117.409C426.913,117.409 426.76,117.368 426.595,117.368C426.545,117.368 426.416,117.409 426.416,117.498C426.416,117.615 426.516,117.653 426.628,117.683C426.686,117.698 426.753,117.712 426.827,117.733C426.897,117.755 426.974,117.782 427.049,117.822C427.345,117.98 427.653,118.351 427.653,119.411L427.653,123.186C427.653,123.895 427.431,124.128 427.218,124.235C427.164,124.261 427.109,124.282 427.057,124.296C427.004,124.313 426.954,124.326 426.91,124.341C426.824,124.373 426.753,124.419 426.753,124.526C426.753,124.587 426.771,124.667 426.913,124.667C426.985,124.667 427.516,124.625 427.875,124.625C428.376,124.625 428.663,124.667 428.909,124.667C429.037,124.667 429.048,124.557 429.048,124.504C429.048,124.414 428.97,124.38 428.887,124.362C428.802,124.341 428.689,124.333 428.578,124.3C428.362,124.245 428.146,124.113 428.146,123.667L428.146,119.481C428.146,119.38 428.154,119.326 428.193,119.274C428.201,119.274 428.215,119.28 428.237,119.295C428.256,119.311 428.278,119.333 428.298,119.355C428.32,119.377 428.337,119.4 428.353,119.418L428.387,119.46L432.787,124.411C433.001,124.645 433.11,124.706 433.195,124.706C433.258,124.706 433.286,124.647 433.298,124.575C433.311,124.5 433.314,124.388 433.314,124.238L433.314,118.315C433.314,117.953 433.459,117.821 433.602,117.745C433.677,117.705 433.752,117.679 433.809,117.647C433.87,117.614 433.918,117.568 433.918,117.488C433.918,117.407 433.86,117.368 433.788,117.368C433.542,117.368 433.104,117.409 432.754,117.409C432.427,117.409 432.131,117.368 431.824,117.368C431.752,117.368 431.685,117.406 431.685,117.498C431.685,117.602 431.777,117.647 431.88,117.678C431.985,117.709 432.128,117.735 432.269,117.792C432.542,117.899 432.819,118.127 432.819,118.787L432.819,123.063C432.819,123.104 432.816,123.127 432.81,123.146L432.788,123.127ZM423.547,122.204C423.52,122.146 423.498,122.092 423.472,122.045C423.45,122 423.423,121.959 423.395,121.928C423.337,121.869 423.26,121.832 423.121,121.832L420.869,121.832C420.673,121.832 420.507,121.833 420.412,122.032L419.758,123.462C419.729,123.531 419.689,123.681 419.689,123.809C419.689,124.152 419.858,124.248 420.032,124.29C420.123,124.313 420.213,124.323 420.282,124.341C420.354,124.364 420.415,124.399 420.415,124.486C420.415,124.587 420.373,124.637 420.307,124.658C420.279,124.667 420.245,124.667 420.211,124.667L420.113,124.667C419.825,124.667 419.539,124.625 419.254,124.625C418.977,124.625 418.7,124.667 418.434,124.667C418.352,124.667 418.315,124.595 418.315,124.526C418.315,124.458 418.357,124.421 418.41,124.395C418.46,124.373 418.529,124.356 418.606,124.328C418.754,124.273 418.935,124.174 419.066,123.891L421.509,118.673C421.813,118.028 421.971,117.666 422.071,117.462C422.168,117.264 422.215,117.205 422.301,117.205C422.342,117.205 422.375,117.231 422.399,117.262C422.424,117.293 422.446,117.336 422.465,117.379C422.501,117.464 422.526,117.559 422.541,117.6L424.67,122.869C424.746,123.058 424.816,123.26 424.894,123.458C424.972,123.659 425.062,123.853 425.179,124.032C425.326,124.255 425.542,124.317 425.725,124.351L425.856,124.373C425.899,124.38 425.937,124.39 425.968,124.401C426.035,124.426 426.083,124.466 426.083,124.546C426.083,124.601 426.06,124.635 426.022,124.652C426.005,124.66 425.986,124.664 425.968,124.664C425.951,124.667 425.933,124.667 425.915,124.667C425.494,124.667 425.074,124.625 424.655,124.625C424.377,124.625 424.102,124.667 423.827,124.667C423.81,124.667 423.788,124.667 423.764,124.664C423.738,124.664 423.711,124.66 423.683,124.652C423.631,124.639 423.575,124.608 423.575,124.536C423.575,124.46 423.624,124.414 423.683,124.379C423.714,124.365 423.749,124.351 423.786,124.338L423.899,124.299C424.054,124.245 424.187,124.179 424.187,124.003C424.187,123.897 424.135,123.728 424.069,123.546C424.004,123.367 423.924,123.18 423.872,123.042L423.547,122.204ZM420.833,121.183C420.775,121.296 420.814,121.328 420.941,121.328L422.966,121.328C423.167,121.328 423.152,121.281 423.105,121.16L422.104,118.694C422.062,118.595 422.04,118.59 421.989,118.696L420.833,121.183ZM465.259,132.098L465.175,132.073C465.158,132.088 465.148,132.11 465.082,132.11C465.017,132.11 464.375,131.709 463.459,131.709C462.439,131.709 461.506,132.079 461.506,132.961C461.506,134.708 464.565,133.431 464.565,134.46C464.565,134.75 464.239,135.024 463.28,135.024C462.607,135.024 461.928,134.802 461.928,134.492C461.928,134.452 461.938,134.429 461.938,134.408L461.854,134.367L461.419,135.262L461.486,135.276C461.513,135.262 461.528,135.234 461.56,135.234C461.682,135.234 462.05,135.646 463.333,135.646C464.68,135.646 465.355,135.109 465.355,134.414C465.355,132.507 462.256,133.772 462.256,132.909C462.256,132.583 462.607,132.331 463.428,132.331C464.286,132.331 464.779,132.699 464.779,132.767C464.779,132.792 464.774,132.821 464.77,132.839L464.856,132.888L465.259,132.098ZM454.321,135.592L457.785,135.592C457.912,135.592 457.963,135.634 457.963,135.708L458.039,135.708L458.039,134.846L457.963,134.846C457.963,134.93 457.912,134.972 457.785,134.972L455.206,134.972L455.206,133.94L456.858,133.94C456.985,133.94 457.037,133.982 457.037,134.067L457.112,134.067L457.112,133.184L457.037,133.184C457.037,133.278 456.985,133.32 456.858,133.32L455.206,133.32L455.206,132.382L457.738,132.382C457.863,132.382 457.917,132.424 457.917,132.52L457.991,132.52L457.991,131.647L457.917,131.647C457.917,131.719 457.863,131.763 457.738,131.763L454.321,131.763L454.321,131.834C454.439,131.834 454.459,131.878 454.459,131.995L454.459,135.361C454.459,135.478 454.439,135.519 454.321,135.519L454.321,135.592ZM449.355,132.382L450.625,132.382C450.751,132.382 450.805,132.424 450.805,132.514L450.878,132.514L450.878,131.636L450.805,131.636C450.805,131.719 450.751,131.763 450.625,131.763L447.341,131.763C447.216,131.763 447.163,131.719 447.163,131.636L447.088,131.636L447.088,132.514L447.163,132.514C447.163,132.424 447.216,132.382 447.341,132.382L448.611,132.382L448.611,135.361C448.611,135.478 448.589,135.519 448.451,135.519L448.451,135.592L449.519,135.592L449.519,135.519C449.384,135.519 449.355,135.478 449.355,135.361L449.355,132.382ZM443.39,131.995C443.39,131.878 443.418,131.834 443.585,131.834L443.585,131.763L442.456,131.763L442.456,131.834C442.623,131.834 442.645,131.878 442.645,131.995L442.645,135.361C442.645,135.478 442.623,135.519 442.456,135.519L442.456,135.592L443.585,135.592L443.585,135.519C443.418,135.519 443.39,135.478 443.39,135.361L443.39,131.995ZM435.432,131.995C435.432,131.878 435.457,131.834 435.583,131.834L435.583,131.763L434.537,131.763L434.537,131.834C434.663,131.834 434.684,131.878 434.684,131.995L434.684,134.298C434.684,135.309 435.41,135.646 436.621,135.646C437.831,135.646 438.557,135.309 438.557,134.298L438.557,131.995C438.557,131.878 438.579,131.834 438.704,131.834L438.704,131.763L437.657,131.763L437.657,131.834C437.784,131.834 437.811,131.878 437.811,131.995L437.811,134.171C437.811,134.792 437.568,135.024 436.621,135.024C435.674,135.024 435.432,134.792 435.432,134.171L435.432,131.995ZM430.924,132.098L430.841,132.073C430.824,132.088 430.815,132.11 430.746,132.11C430.683,132.11 430.04,131.709 429.126,131.709C428.104,131.709 427.173,132.079 427.173,132.961C427.173,134.708 430.231,133.431 430.231,134.46C430.231,134.75 429.904,135.024 428.946,135.024C428.273,135.024 427.594,134.802 427.594,134.492C427.594,134.452 427.605,134.429 427.605,134.408L427.522,134.367L427.083,135.262L427.152,135.276C427.176,135.262 427.195,135.234 427.225,135.234C427.347,135.234 427.714,135.646 428.999,135.646C430.347,135.646 431.02,135.109 431.02,134.414C431.02,132.507 427.919,133.772 427.919,132.909C427.919,132.583 428.273,132.331 429.093,132.331C429.952,132.331 430.445,132.699 430.445,132.767C430.445,132.792 430.44,132.821 430.436,132.839L430.521,132.888L430.924,132.098ZM465.259,132.098L465.175,132.073C465.158,132.088 465.148,132.11 465.082,132.11C465.017,132.11 464.375,131.709 463.459,131.709C462.439,131.709 461.506,132.079 461.506,132.961C461.506,134.708 464.565,133.431 464.565,134.46C464.565,134.75 464.239,135.024 463.28,135.024C462.607,135.024 461.928,134.802 461.928,134.492C461.928,134.452 461.938,134.429 461.938,134.408L461.854,134.367L461.419,135.262L461.486,135.276C461.513,135.262 461.528,135.234 461.56,135.234C461.682,135.234 462.05,135.646 463.333,135.646C464.68,135.646 465.355,135.109 465.355,134.414C465.355,132.507 462.256,133.772 462.256,132.909C462.256,132.583 462.607,132.331 463.428,132.331C464.286,132.331 464.779,132.699 464.779,132.767C464.779,132.792 464.774,132.821 464.77,132.839L464.856,132.888L465.259,132.098ZM454.321,135.592L457.785,135.592C457.912,135.592 457.963,135.634 457.963,135.708L458.039,135.708L458.039,134.846L457.963,134.846C457.963,134.93 457.912,134.972 457.785,134.972L455.206,134.972L455.206,133.94L456.858,133.94C456.985,133.94 457.037,133.982 457.037,134.067L457.112,134.067L457.112,133.184L457.037,133.184C457.037,133.278 456.985,133.32 456.858,133.32L455.206,133.32L455.206,132.382L457.738,132.382C457.863,132.382 457.917,132.424 457.917,132.52L457.991,132.52L457.991,131.647L457.917,131.647C457.917,131.719 457.863,131.763 457.738,131.763L454.321,131.763L454.321,131.834C454.439,131.834 454.459,131.878 454.459,131.995L454.459,135.361C454.459,135.478 454.439,135.519 454.321,135.519L454.321,135.592ZM449.355,132.382L450.625,132.382C450.751,132.382 450.805,132.424 450.805,132.514L450.878,132.514L450.878,131.636L450.805,131.636C450.805,131.719 450.751,131.763 450.625,131.763L447.341,131.763C447.216,131.763 447.163,131.719 447.163,131.636L447.088,131.636L447.088,132.514L447.163,132.514C447.163,132.424 447.216,132.382 447.341,132.382L448.611,132.382L448.611,135.361C448.611,135.478 448.589,135.519 448.451,135.519L448.451,135.592L449.519,135.592L449.519,135.519C449.384,135.519 449.355,135.478 449.355,135.361L449.355,132.382ZM443.39,131.995C443.39,131.878 443.418,131.834 443.585,131.834L443.585,131.763L442.456,131.763L442.456,131.834C442.623,131.834 442.645,131.878 442.645,131.995L442.645,135.361C442.645,135.478 442.623,135.519 442.456,135.519L442.456,135.592L443.585,135.592L443.585,135.519C443.418,135.519 443.39,135.478 443.39,135.361L443.39,131.995ZM435.432,131.995C435.432,131.878 435.457,131.834 435.583,131.834L435.583,131.763L434.537,131.763L434.537,131.834C434.663,131.834 434.684,131.878 434.684,131.995L434.684,134.298C434.684,135.309 435.41,135.646 436.621,135.646C437.831,135.646 438.557,135.309 438.557,134.298L438.557,131.995C438.557,131.878 438.579,131.834 438.704,131.834L438.704,131.763L437.657,131.763L437.657,131.834C437.784,131.834 437.811,131.878 437.811,131.995L437.811,134.171C437.811,134.792 437.568,135.024 436.621,135.024C435.674,135.024 435.432,134.792 435.432,134.171L435.432,131.995ZM430.924,132.098L430.841,132.073C430.824,132.088 430.815,132.11 430.746,132.11C430.683,132.11 430.04,131.709 429.126,131.709C428.104,131.709 427.173,132.079 427.173,132.961C427.173,134.708 430.231,133.431 430.231,134.46C430.231,134.75 429.904,135.024 428.946,135.024C428.273,135.024 427.594,134.802 427.594,134.492C427.594,134.452 427.605,134.429 427.605,134.408L427.522,134.367L427.083,135.262L427.152,135.276C427.176,135.262 427.195,135.234 427.225,135.234C427.347,135.234 427.714,135.646 428.999,135.646C430.347,135.646 431.02,135.109 431.02,134.414C431.02,132.507 427.919,133.772 427.919,132.909C427.919,132.583 428.273,132.331 429.093,132.331C429.952,132.331 430.445,132.699 430.445,132.767C430.445,132.792 430.44,132.821 430.436,132.839L430.521,132.888L430.924,132.098ZM480.743,125.281L480.864,125.281L480.864,125.013L480.956,125.013C481.02,125.013 481.062,125.021 481.089,125.035C481.129,125.06 481.153,125.112 481.153,125.19L481.153,125.243L481.157,125.265L481.157,125.275C481.157,125.276 481.158,125.278 481.158,125.281L481.271,125.281L481.266,125.271C481.262,125.266 481.261,125.254 481.259,125.235C481.259,125.218 481.258,125.201 481.258,125.187L481.258,125.136C481.258,125.102 481.246,125.068 481.22,125.032C481.197,124.996 481.158,124.974 481.105,124.966C481.147,124.958 481.18,124.947 481.204,124.932C481.249,124.905 481.269,124.86 481.269,124.798C481.269,124.714 481.233,124.658 481.166,124.629C481.125,124.613 481.062,124.605 480.979,124.605L480.743,124.605L480.743,125.281ZM481.083,124.915C481.058,124.923 481.02,124.93 480.968,124.93L480.864,124.93L480.864,124.686L480.963,124.686C481.031,124.686 481.077,124.694 481.108,124.711C481.139,124.727 481.153,124.761 481.153,124.81C481.153,124.861 481.128,124.896 481.083,124.915ZM481.427,124.507C481.308,124.388 481.163,124.33 480.992,124.33C480.823,124.33 480.677,124.388 480.558,124.507C480.438,124.629 480.378,124.775 480.378,124.944C480.378,125.115 480.436,125.26 480.557,125.38C480.676,125.502 480.822,125.561 480.992,125.561C481.163,125.561 481.308,125.502 481.427,125.38C481.547,125.258 481.609,125.115 481.609,124.944C481.609,124.774 481.547,124.629 481.427,124.507ZM481.368,124.567C481.467,124.672 481.521,124.797 481.521,124.944C481.521,125.091 481.467,125.218 481.368,125.322C481.262,125.424 481.139,125.476 480.992,125.476C480.843,125.476 480.719,125.424 480.618,125.322C480.513,125.218 480.463,125.091 480.463,124.944C480.463,124.797 480.514,124.672 480.618,124.567C480.721,124.463 480.846,124.414 480.992,124.414C481.139,124.414 481.262,124.463 481.368,124.567Z" style="fill:rgb(104,110,111);fill-rule:nonzero;"/>
        </g>
    </g>
</svg>
