<?xml version="1.0" encoding="UTF-8" standalone="no"?>
<!DOCTYPE svg PUBLIC "-//W3C//DTD SVG 1.1//EN" "http://www.w3.org/Graphics/SVG/1.1/DTD/svg11.dtd">
<svg width="100%" height="100%" viewBox="0 0 240 119" version="1.1" xmlns="http://www.w3.org/2000/svg" xmlns:xlink="http://www.w3.org/1999/xlink" xml:space="preserve" xmlns:serif="http://www.serif.com/" style="fill-rule:evenodd;clip-rule:evenodd;stroke-linejoin:round;stroke-miterlimit:2;">
    <g transform="matrix(1,0,0,1,-3071.58,-208.721)">
        <g transform="matrix(4.16667,0,0,4.16667,0,0)">
            <path d="M754.269,72.502L754.466,72.502C754.586,72.502 754.64,72.555 754.64,72.644C754.64,72.728 754.591,72.785 754.513,72.785L754.655,73.012L754.565,73.012L754.421,72.785L754.357,72.785L754.357,73.012L754.269,73.012L754.269,72.502ZM754.443,73.124C754.64,73.124 754.788,72.966 754.788,72.758C754.788,72.555 754.64,72.391 754.443,72.391C754.235,72.391 754.088,72.555 754.088,72.758C754.088,72.966 754.235,73.124 754.443,73.124ZM754.435,72.326C754.674,72.326 754.871,72.52 754.871,72.758C754.871,73.002 754.674,73.188 754.435,73.188C754.196,73.188 754.004,73.002 754.004,72.758C754.004,72.52 754.196,72.326 754.435,72.326ZM737.18,78.506L765.603,78.506L765.603,59.282C762.07,59.41 758.631,59.918 755.239,60.826C753.792,65.99 752.783,71.482 752.33,76.415C752.199,76.471 751.746,76.537 751.501,76.537C750.357,76.537 749.698,76.079 749.698,74.989C749.698,72.348 750.735,66.828 752.041,61.805C750.449,62.349 748.851,62.986 747.226,63.71C746.478,66.89 745.945,70.198 745.684,73.438C745.539,73.507 745.129,73.566 744.875,73.566C743.954,73.566 743.315,72.956 743.315,71.915C743.315,70.158 743.663,67.71 744.189,65.164C742.816,65.86 741.421,66.615 739.999,67.439C739.853,67.165 739.811,66.796 739.841,66.585C739.888,66.279 740.077,65.618 740.806,65.1C742.227,64.077 743.038,63.68 744.724,62.773C745.474,59.706 746.419,56.745 747.27,54.896C747.811,53.721 748.508,53.271 749.704,53.271C750.019,53.271 750.455,53.343 750.678,53.417C749.592,55.781 748.641,58.432 747.868,61.227C749.406,60.534 751.029,59.898 752.715,59.342C753.488,56.666 754.303,54.316 755.033,52.898C755.473,52.039 756.153,51.593 757.153,51.593C757.624,51.593 758.139,51.667 758.427,51.777C757.526,53.817 756.707,56.052 755.968,58.388C759.003,57.609 762.265,57.088 765.603,56.932L765.603,50.093L737.18,50.093L737.18,78.506ZM792.688,69.07C792.688,69.038 792.659,69.028 792.628,69.028L792.573,69.028L792.573,69.116L792.628,69.116C792.665,69.116 792.688,69.108 792.688,69.07ZM754.56,72.641C754.56,72.589 754.503,72.568 754.455,72.568L754.357,72.568L754.357,72.727L754.455,72.727C754.517,72.727 754.56,72.709 754.56,72.641ZM792.62,69.383C792.483,69.383 792.373,69.272 792.373,69.136C792.373,68.999 792.483,68.889 792.62,68.889C792.756,68.889 792.867,68.999 792.867,69.136C792.867,69.272 792.756,69.383 792.62,69.383ZM792.022,60.425L791.934,60.425C791.301,60.425 791.459,59.826 791.488,59.716L791.668,58.828C791.748,58.46 791.623,58.301 791.384,58.301C790.896,58.301 790.777,58.912 790.708,59.231L790.463,60.377L789.774,60.377L790.103,58.802C790.199,58.349 790.234,58.057 790.234,57.838L790.765,57.838L790.827,58.14C791.009,57.941 791.293,57.79 791.623,57.79C792.148,57.79 792.518,58.1 792.37,58.793L792.022,60.425ZM792.22,70.071C792.012,69.954 791.682,69.873 791.407,69.873C790.952,69.873 790.664,70.086 790.664,70.358C790.664,70.575 790.89,70.711 791.25,70.879C791.768,71.127 792.095,71.349 792.095,71.812C792.095,72.485 791.488,72.878 790.652,72.878C790.294,72.878 789.887,72.793 789.589,72.607L789.694,72.124C789.968,72.328 790.346,72.414 790.683,72.414C791.176,72.414 791.448,72.195 791.448,71.915C791.448,71.668 791.25,71.556 790.796,71.349C790.4,71.166 790.025,70.935 790.025,70.45C790.025,69.84 790.616,69.421 791.438,69.421C791.74,69.421 792.111,69.508 792.319,69.609L792.22,70.071ZM789.481,71.396L789.481,71.409L789.31,72.183L789.158,72.87L789.071,72.87C788.459,72.87 788.611,72.283 788.632,72.172L788.698,71.885L788.763,71.582L788.898,70.945C788.945,70.722 788.979,70.537 788.979,70.417C788.979,70.276 788.938,70.151 788.849,70.061C788.765,69.976 788.625,69.938 788.461,69.938C788.177,69.938 787.919,70.099 787.756,70.33C787.578,70.581 787.471,70.962 787.368,71.436L787.074,72.81L786.396,72.81L786.786,70.994L786.782,70.994L787.004,69.964C787.049,69.633 787.045,69.476 787.045,69.476L787.554,69.476L787.554,69.972C787.772,69.659 788.181,69.418 788.654,69.418C789.245,69.418 789.66,69.736 789.66,70.335C789.66,70.505 789.62,70.729 789.57,70.962L789.481,71.396ZM784.496,72.87C783.748,72.87 783.277,72.429 783.277,71.69C783.277,71.019 783.559,70.309 784.036,69.872C784.349,69.586 784.764,69.418 785.235,69.418C785.976,69.418 786.454,69.853 786.454,70.598C786.454,71.268 786.17,71.973 785.692,72.418C785.381,72.697 784.963,72.87 784.496,72.87ZM782.743,72.183L782.739,72.183L782.589,72.87L782.499,72.87C781.887,72.87 782.042,72.283 782.066,72.172L782.118,71.915L782.162,71.731L782.202,71.535L782.541,69.964L782.535,69.964L782.64,69.476L783.313,69.476L782.8,71.879L782.743,72.183ZM781.516,70.363L780.977,72.878L780.888,72.878C780.275,72.878 780.432,72.293 780.454,72.183L780.525,71.863C780.529,71.823 780.533,71.794 780.542,71.757L780.928,69.968L780.422,69.968L780.525,69.476L781.029,69.476L781.248,68.425L781.933,68.425L781.703,69.476L782.32,69.476L782.214,69.968L781.601,69.968L781.516,70.363ZM779.264,66.198C779.264,66.027 779.31,65.804 779.358,65.569L779.754,63.709L780.432,63.709L780.033,65.578C779.985,65.81 779.949,65.998 779.949,66.117C779.949,66.255 779.997,66.383 780.083,66.474C780.16,66.556 780.306,66.596 780.465,66.596C780.759,66.596 781.013,66.434 781.176,66.203C781.359,65.946 781.47,65.569 781.576,65.091L781.871,63.709L782.548,63.709L782.058,65.986L781.823,67.096L781.734,67.096C781.391,67.096 781.268,66.904 781.26,66.71C781.045,66.934 780.669,67.123 780.273,67.123C779.677,67.123 779.264,66.798 779.264,66.198ZM780.135,69.818L779.834,71.206L779.477,72.878L779.383,72.878C779.05,72.878 778.946,72.695 778.92,72.521C778.719,72.719 778.394,72.87 778.015,72.87C777.33,72.87 776.911,72.398 776.911,71.69C776.911,70.543 777.846,69.432 779.112,69.418L779.155,69.418C779.521,69.418 779.864,69.508 780.167,69.659L780.135,69.818ZM776.367,72.55C776.097,72.731 775.688,72.87 775.279,72.87C774.495,72.87 773.933,72.476 773.933,71.658C773.933,70.591 774.681,69.418 775.882,69.418C776.483,69.418 776.929,69.763 776.929,70.372C776.929,70.405 776.921,70.442 776.921,70.468L776.268,70.489C776.288,70.105 776.152,69.883 775.821,69.883C775.061,69.883 774.616,70.962 774.616,71.636C774.616,72.134 774.883,72.398 775.38,72.398C775.706,72.398 776.136,72.265 776.483,72.05L776.367,72.55ZM773.269,72.878L773.184,72.878C772.844,72.878 772.741,72.695 772.717,72.521C772.517,72.719 772.185,72.87 771.808,72.87C771.125,72.87 770.708,72.398 770.708,71.69C770.708,70.543 771.641,69.432 772.909,69.418L772.954,69.418C773.317,69.418 773.657,69.508 773.958,69.659L773.933,69.818L773.631,71.206L773.269,72.878ZM768.432,72.183L768.399,71.799L768.383,71.665L768.059,68.46L768.806,68.46L769.072,71.474L769.112,71.922C769.159,71.794 769.213,71.668 769.266,71.556L770.871,68.46L771.606,68.46L769.277,72.744C768.459,73.046 768.445,72.308 768.432,72.183ZM768.165,58.9C768.186,58.828 768.251,58.679 768.445,58.584C768.559,58.521 768.665,58.471 768.762,58.431L769.195,56.354L769.881,56.354L769.575,57.846L769.514,58.144C769.892,58.037 770.285,57.946 770.811,57.846L771.115,56.354L771.808,56.354L770.958,60.425L770.863,60.425C770.239,60.425 770.39,59.832 770.417,59.716L770.682,58.452L770.688,58.419C770.172,58.521 769.783,58.608 769.392,58.711L769.036,60.425L768.941,60.425C768.316,60.425 768.474,59.832 768.499,59.716L768.665,58.91C768.503,58.967 768.335,59.029 768.172,59.094C768.15,59.027 768.153,58.943 768.165,58.9ZM772.173,58.136C772.416,57.936 772.746,57.813 773.111,57.813C773.69,57.813 774.116,58.122 774.116,58.731C774.116,59.282 773.893,59.809 773.496,60.127C773.251,60.325 772.927,60.449 772.561,60.449C771.983,60.449 771.562,60.131 771.562,59.516C771.562,58.967 771.789,58.452 772.173,58.136ZM774.268,59.738L774.846,56.956L775.539,56.956L774.804,60.449L774.713,60.449C774.087,60.449 774.243,59.848 774.268,59.738ZM776.979,62.624C777.682,62.624 778.255,62.976 778.255,63.793C778.255,63.829 778.251,63.874 778.251,63.914L777.529,63.93C777.563,63.518 777.423,63.156 776.924,63.156C775.917,63.156 775.355,64.645 775.355,65.589C775.355,66.206 775.656,66.582 776.286,66.582C776.743,66.582 777.26,66.401 777.629,66.168L777.507,66.755C777.131,66.981 776.619,67.123 776.152,67.123C775.192,67.123 774.62,66.596 774.62,65.622C774.62,64.268 775.49,62.624 776.979,62.624ZM775.615,59.738L776.012,57.86L776.703,57.86L776.156,60.449L776.065,60.449C775.436,60.449 775.589,59.848 775.615,59.738ZM776.583,56.778C776.758,56.778 776.899,56.907 776.899,57.089C776.899,57.337 776.657,57.554 776.415,57.554C776.236,57.554 776.111,57.428 776.111,57.248C776.111,56.998 776.345,56.778 776.583,56.778ZM779.529,62.651L778.573,67.132L778.482,67.132C777.87,67.132 778.025,66.544 778.048,66.434L778.5,64.265L778.851,62.651L779.529,62.651ZM778.517,57.813C778.615,57.813 778.722,57.825 778.79,57.838L779.077,56.49L779.773,56.49L778.93,60.425L778.841,60.425C778.632,60.425 778.454,60.329 778.409,60.15C778.259,60.323 777.991,60.449 777.682,60.449C777.158,60.449 776.808,60.094 776.808,59.532C776.808,58.623 777.519,57.813 778.517,57.813ZM781.268,57.813C781.597,57.813 781.903,57.905 782.162,58.062L781.661,60.425L781.565,60.425C781.355,60.425 781.172,60.329 781.129,60.15C780.977,60.323 780.715,60.449 780.401,60.449C779.875,60.449 779.558,60.105 779.558,59.54C779.558,58.581 780.319,57.813 781.268,57.813ZM782.495,59.304L782.8,57.86L783.492,57.86L783.19,59.33C783.166,59.451 783.027,59.931 783.463,59.931C783.949,59.931 784.062,59.33 784.127,59.005L784.373,57.86L785.066,57.86L784.599,60.072C784.503,60.511 784.373,60.829 784.178,61.06C783.92,61.343 783.526,61.506 783.031,61.506C782.449,61.506 782.016,61.245 782.016,60.807C782.016,60.507 782.202,60.298 782.608,60.201C782.504,60.083 782.435,59.931 782.435,59.742C782.435,59.613 782.467,59.457 782.495,59.304ZM783.553,68.46C783.553,68.716 783.292,68.951 783.044,68.951C782.864,68.951 782.727,68.809 782.727,68.623C782.727,68.374 782.963,68.144 783.219,68.144C783.404,68.144 783.553,68.274 783.553,68.46ZM785.598,64.814C785.598,66.046 784.81,67.123 783.503,67.123C783.106,67.123 782.635,67.022 782.301,66.839L783.194,62.651L783.876,62.651L783.575,64.069C783.793,63.825 784.161,63.646 784.538,63.646C785.218,63.646 785.598,64.161 785.598,64.814ZM785.819,59.738L786.516,56.369L787.207,56.369L786.351,60.445L786.263,60.445C785.631,60.445 785.787,59.848 785.819,59.738ZM787.427,57.838L787.955,57.838L788.019,58.14C788.198,57.941 788.483,57.79 788.815,57.79C789.345,57.79 789.71,58.1 789.567,58.793L789.222,60.425L789.119,60.425C788.496,60.425 788.65,59.826 788.682,59.716L788.869,58.828C788.942,58.46 788.815,58.301 788.575,58.301C788.09,58.301 787.969,58.912 787.906,59.231L787.662,60.377L786.966,60.377L787.301,58.802C787.391,58.349 787.427,58.057 787.427,57.838ZM766.326,50.093L766.326,78.506L794.743,78.506L794.743,50.093L766.326,50.093ZM792.694,69.281L792.612,69.152L792.573,69.152L792.573,69.281L792.526,69.281L792.526,68.991L792.636,68.991C792.704,68.991 792.736,69.018 792.736,69.073C792.736,69.12 792.706,69.152 792.661,69.152L792.743,69.281L792.694,69.281ZM792.62,68.926C792.505,68.926 792.419,69.018 792.419,69.136C792.419,69.255 792.505,69.346 792.62,69.346C792.735,69.346 792.82,69.255 792.82,69.136C792.82,69.018 792.735,68.926 792.62,68.926ZM777.598,71.677C777.598,72.157 777.817,72.398 778.182,72.398C778.454,72.398 778.661,72.283 778.814,72.116C778.97,71.93 779.058,71.658 779.127,71.349L779.429,69.958C779.358,69.905 779.234,69.872 779.103,69.872C778.369,69.872 777.598,70.687 777.598,71.677ZM771.391,71.677C771.391,72.157 771.61,72.398 771.979,72.398C772.249,72.398 772.454,72.283 772.606,72.116C772.769,71.93 772.854,71.658 772.927,71.349L773.226,69.958C773.153,69.905 773.028,69.872 772.894,69.872C772.16,69.872 771.391,70.687 771.391,71.677ZM777.891,59.974C778.057,59.974 778.174,59.913 778.27,59.809C778.369,59.697 778.424,59.532 778.471,59.349L778.696,58.288C778.657,58.266 778.565,58.254 778.482,58.254C777.95,58.254 777.512,58.906 777.512,59.513C777.512,59.812 777.658,59.974 777.891,59.974ZM783.035,61.104C783.227,61.104 783.409,61.039 783.54,60.914C783.672,60.782 783.767,60.597 783.821,60.391L783.871,60.205C783.731,60.325 783.492,60.389 783.227,60.421C782.852,60.458 782.598,60.524 782.598,60.784C782.598,60.988 782.792,61.104 783.035,61.104ZM783.69,64.468C783.503,64.693 783.365,65.069 783.267,65.498L783.044,66.556C783.138,66.619 783.376,66.665 783.553,66.665C784.405,66.665 784.905,65.748 784.905,64.857C784.905,64.399 784.699,64.148 784.341,64.148C784.091,64.148 783.867,64.268 783.69,64.468ZM785.143,69.883C784.885,69.883 784.659,70.023 784.478,70.222C784.141,70.598 783.961,71.188 783.961,71.677C783.961,72.12 784.17,72.398 784.587,72.398C784.845,72.398 785.074,72.265 785.252,72.067C785.592,71.69 785.771,71.096 785.771,70.611C785.771,70.17 785.562,69.883 785.143,69.883ZM780.615,59.974C780.78,59.974 780.9,59.913 780.998,59.809C781.089,59.697 781.148,59.532 781.186,59.349L781.413,58.292C781.376,58.266 781.317,58.254 781.256,58.254C780.648,58.254 780.258,58.987 780.258,59.516C780.258,59.82 780.38,59.974 780.615,59.974ZM772.654,59.983C772.829,59.983 772.967,59.887 773.084,59.742C773.301,59.466 773.409,59.029 773.409,58.739C773.409,58.467 773.309,58.273 773.03,58.273C772.854,58.273 772.698,58.372 772.59,58.521C772.374,58.79 772.267,59.226 772.267,59.516C772.267,59.792 772.374,59.983 772.654,59.983Z" style="fill:rgb(104,110,111);fill-rule:nonzero;"/>
        </g>
    </g>
</svg>
