<?xml version="1.0" encoding="UTF-8" standalone="no"?>
<!DOCTYPE svg PUBLIC "-//W3C//DTD SVG 1.1//EN" "http://www.w3.org/Graphics/SVG/1.1/DTD/svg11.dtd">
<svg width="100%" height="100%" viewBox="0 0 240 119" version="1.1" xmlns="http://www.w3.org/2000/svg" xmlns:xlink="http://www.w3.org/1999/xlink" xml:space="preserve" xmlns:serif="http://www.serif.com/" style="fill-rule:evenodd;clip-rule:evenodd;stroke-linejoin:round;stroke-miterlimit:2;">
    <g transform="matrix(1,0,0,1,-3071.51,-438.05)">
        <g transform="matrix(4.16667,0,0,4.16667,0,0)">
            <path d="M792.98,118.374C792.809,118.374 792.67,118.235 792.67,118.064C792.67,117.893 792.809,117.754 792.98,117.754C793.151,117.754 793.291,117.893 793.291,118.064C793.291,118.235 793.151,118.374 792.98,118.374ZM792.467,119.216C792.203,119.078 791.789,118.976 791.445,118.976C790.876,118.976 790.516,119.243 790.516,119.578C790.516,119.853 790.799,120.025 791.247,120.232C791.899,120.542 792.305,120.817 792.305,121.401C792.305,122.245 791.546,122.735 790.498,122.735C790.051,122.735 789.542,122.631 789.172,122.4L789.302,121.797C789.646,122.046 790.119,122.159 790.542,122.159C791.152,122.159 791.497,121.883 791.497,121.531C791.497,121.221 791.247,121.075 790.679,120.817C790.18,120.593 789.715,120.3 789.715,119.699C789.715,118.933 790.464,118.408 791.488,118.408C791.857,118.408 792.331,118.511 792.588,118.64L792.467,119.216ZM787.313,122.735C786.867,122.735 786.359,122.631 785.988,122.4L786.119,121.797C786.462,122.046 786.935,122.159 787.357,122.159C787.968,122.159 788.311,121.883 788.311,121.531C788.311,121.221 788.062,121.075 787.495,120.817C786.996,120.593 786.53,120.3 786.53,119.699C786.53,118.933 787.279,118.408 788.303,118.408C788.672,118.408 789.146,118.511 789.404,118.64L789.283,119.216C789.017,119.078 788.603,118.976 788.26,118.976C787.693,118.976 787.332,119.243 787.332,119.578C787.332,119.853 787.615,120.025 788.062,120.232C788.715,120.542 789.12,120.817 789.12,121.401C789.12,122.245 788.363,122.735 787.313,122.735ZM784.217,122.141C784.691,122.141 785.267,121.926 785.611,121.703L785.482,122.339C785.112,122.572 784.526,122.735 784.002,122.735C783.064,122.735 782.384,122.184 782.384,121.221C782.384,119.862 783.459,118.408 784.888,118.408C785.567,118.408 786.187,118.752 786.187,119.492C786.187,120.343 785.37,121.049 784.114,121.049C783.856,121.049 783.495,121.006 783.261,120.937C783.252,120.998 783.246,121.109 783.246,121.186C783.246,121.789 783.597,122.141 784.217,122.141ZM781.27,120.842L781.062,121.811L781.061,121.811L780.877,122.673L780.763,122.673C779.998,122.673 780.186,121.943 780.218,121.802L780.297,121.443L780.797,119.096C780.86,118.674 780.85,118.486 780.85,118.486L781.478,118.486L781.478,119.13C781.717,118.717 782.096,118.408 782.628,118.408C782.714,118.408 782.862,118.425 782.921,118.443L782.767,119.139C782.724,119.13 782.595,119.114 782.5,119.114C782.208,119.114 782,119.208 781.837,119.372C781.528,119.68 781.399,120.24 781.27,120.842ZM777.478,122.735C777.281,122.735 777.016,122.701 776.834,122.65L776.471,124.361L776.357,124.361C775.592,124.361 775.78,123.631 775.813,123.49L776.298,121.195L776.3,121.195L776.561,119.969L776.563,119.969L776.847,118.625C777.97,118.378 778.465,118.408 778.465,118.408C779.404,118.408 780.041,118.874 780.041,119.862C780.041,121.359 779.034,122.735 777.478,122.735ZM775.345,122.735C775.096,122.735 774.889,122.658 774.734,122.511C774.615,122.391 774.529,122.236 774.417,121.978L774.046,121.109L772.764,122.658L771.982,122.658L773.805,120.533L772.929,118.486L773.814,118.486L774.459,120.008L775.671,118.486L776.448,118.486L774.7,120.576L775.258,121.883C775.266,121.902 775.274,121.917 775.282,121.93L775.611,122.7C775.525,122.721 775.434,122.735 775.345,122.735ZM771.237,122.667L770.185,122.667L770.185,122.666L769.202,122.666L769.202,122.665L769.175,122.665C768.365,122.665 768.565,121.892 768.599,121.744L769.576,117.018L772.165,117.018L772.164,117.018L772.861,117.018C772.853,117.083 772.837,117.147 772.816,117.205C772.679,117.566 772.465,117.644 772.101,117.647L771.051,117.646L771.05,117.645L770.341,117.645L769.971,119.382L771.214,119.382L771.898,119.383C771.889,119.447 771.876,119.511 771.855,119.566C771.72,119.921 771.508,119.999 771.153,120.001L771.015,120.001L771.015,120.002L769.841,120.002L769.427,122.038L771.299,122.038L771.299,122.039L771.997,122.039C771.988,122.103 771.973,122.168 771.952,122.224C771.816,122.585 771.6,122.665 771.237,122.667ZM768.336,113.916C768.358,113.846 768.424,113.702 768.611,113.605C768.732,113.543 768.835,113.494 768.935,113.451L769.367,111.378L770.057,111.378L769.747,112.866L769.684,113.167C770.06,113.062 770.453,112.969 770.976,112.87L770.976,112.866L771.287,111.378L771.977,111.378L771.125,115.446L771.032,115.446C770.407,115.446 770.561,114.849 770.587,114.735L770.85,113.473L770.857,113.441C770.344,113.541 769.95,113.63 769.564,113.735L769.207,115.446L769.112,115.446C768.487,115.446 768.641,114.849 768.667,114.735L768.834,113.931C768.672,113.991 768.509,114.052 768.343,114.118C768.32,114.049 768.323,113.963 768.336,113.916ZM773.277,112.833C773.857,112.833 774.275,113.143 774.275,113.755C774.275,114.304 774.05,114.827 773.664,115.14C773.418,115.345 773.093,115.464 772.728,115.464C772.146,115.464 771.729,115.152 771.729,114.54C771.729,113.991 771.955,113.473 772.34,113.159C772.585,112.955 772.911,112.833 773.277,112.833ZM774.431,114.753L775.01,111.979L775.701,111.979L774.97,115.464L774.876,115.464C774.25,115.464 774.406,114.869 774.431,114.753ZM775.777,114.753L776.173,112.881L776.865,112.881L776.315,115.464L776.221,115.464C775.596,115.464 775.75,114.869 775.777,114.753ZM776.744,111.803C776.922,111.803 777.058,111.929 777.058,112.113C777.058,112.358 776.818,112.578 776.578,112.578C776.399,112.578 776.269,112.453 776.269,112.269C776.269,112.023 776.504,111.803 776.744,111.803ZM778.678,112.833C778.778,112.833 778.883,112.845 778.945,112.861L779.234,111.513L779.931,111.513L779.09,115.444L778.998,115.444C778.788,115.444 778.611,115.35 778.563,115.167C778.417,115.339 778.15,115.464 777.837,115.464C777.314,115.464 776.968,115.114 776.968,114.555C776.968,113.645 777.679,112.833 778.678,112.833ZM781.423,112.833C781.75,112.833 782.055,112.927 782.315,113.085L781.811,115.444L781.718,115.444C781.509,115.444 781.329,115.35 781.282,115.167C781.134,115.339 780.869,115.464 780.554,115.464C780.032,115.464 779.713,115.12 779.713,114.56C779.713,113.603 780.47,112.833 781.423,112.833ZM782.649,114.325L782.958,112.881L783.647,112.881L783.338,114.346C783.313,114.471 783.174,114.953 783.611,114.953C784.099,114.953 784.212,114.346 784.28,114.027L784.526,112.881L785.216,112.881L784.746,115.088C784.652,115.533 784.526,115.847 784.323,116.077C784.071,116.359 783.679,116.526 783.182,116.526C782.602,116.526 782.167,116.265 782.167,115.826C782.167,115.528 782.355,115.319 782.758,115.219C782.654,115.104 782.585,114.953 782.585,114.764C782.585,114.633 782.618,114.476 782.649,114.325ZM785.961,114.753L786.661,111.397L787.352,111.397L786.5,115.464L786.407,115.464C785.781,115.464 785.935,114.868 785.961,114.753ZM787.573,112.861L788.1,112.861L788.165,113.164C788.344,112.963 788.627,112.814 788.96,112.814C789.486,112.814 789.857,113.12 789.708,113.816L789.361,115.444L789.268,115.444C788.64,115.444 788.798,114.848 788.825,114.732L789.009,113.843C789.084,113.479 788.959,113.326 788.719,113.326C788.236,113.326 788.118,113.933 788.05,114.251L787.804,115.397L787.114,115.397L787.445,113.821C787.54,113.374 787.573,113.075 787.573,112.861ZM790.247,113.821C790.342,113.374 790.375,113.075 790.375,112.861L790.903,112.861L790.966,113.164C791.147,112.963 791.429,112.814 791.762,112.814C792.288,112.814 792.659,113.12 792.51,113.816L792.163,115.444L792.071,115.444C791.443,115.444 791.599,114.848 791.625,114.732L791.811,113.843C791.887,113.479 791.762,113.326 791.522,113.326C791.038,113.326 790.919,113.933 790.852,114.251L790.606,115.397L789.916,115.397L790.247,113.821ZM766.366,105.132L766.366,133.499L794.731,133.499L794.731,105.132L766.366,105.132ZM754.229,127.535L754.424,127.535C754.542,127.535 754.599,127.583 754.599,127.678C754.599,127.76 754.546,127.819 754.468,127.819L754.612,128.042L754.525,128.042L754.381,127.819L754.313,127.819L754.313,128.042L754.229,128.042L754.229,127.535ZM754.397,128.158C754.596,128.158 754.747,127.997 754.747,127.791C754.747,127.583 754.596,127.42 754.397,127.42C754.195,127.42 754.045,127.583 754.045,127.791C754.045,127.997 754.195,128.158 754.397,128.158ZM754.516,127.673C754.516,127.617 754.464,127.6 754.412,127.6L754.313,127.6L754.313,127.753L754.412,127.753C754.476,127.753 754.516,127.741 754.516,127.673ZM793.073,118.246L792.97,118.084L792.921,118.084L792.921,118.246L792.862,118.246L792.862,117.882L793.001,117.882C793.085,117.882 793.126,117.917 793.126,117.985C793.126,118.043 793.088,118.084 793.032,118.084L793.135,118.246L793.073,118.246ZM792.981,117.801C792.836,117.801 792.73,117.917 792.73,118.064C792.73,118.213 792.836,118.328 792.981,118.328C793.125,118.328 793.231,118.213 793.231,118.064C793.231,117.917 793.125,117.801 792.981,117.801ZM793.066,117.982C793.066,117.941 793.03,117.929 792.992,117.929L792.921,117.929L792.921,118.039L792.992,118.039C793.037,118.039 793.066,118.03 793.066,117.982ZM772.816,115.005C772.989,115.005 773.134,114.905 773.25,114.759C773.465,114.487 773.575,114.052 773.575,113.759C773.575,113.488 773.469,113.294 773.193,113.294C773.02,113.294 772.869,113.394 772.754,113.541C772.539,113.812 772.43,114.247 772.43,114.54C772.43,114.811 772.539,115.005 772.816,115.005ZM780.769,114.994C780.936,114.994 781.056,114.931 781.151,114.827C781.245,114.716 781.302,114.555 781.344,114.367L781.569,113.315C781.527,113.29 781.469,113.274 781.407,113.274C780.8,113.274 780.413,114.005 780.413,114.54C780.413,114.838 780.534,114.994 780.769,114.994ZM778.051,114.994C778.218,114.994 778.333,114.931 778.428,114.827C778.522,114.716 778.584,114.555 778.626,114.367L778.851,113.31C778.814,113.29 778.72,113.274 778.642,113.274C778.108,113.274 777.67,113.927 777.67,114.534C777.67,114.832 777.816,114.994 778.051,114.994ZM783.187,116.124C783.38,116.124 783.559,116.056 783.69,115.93C783.825,115.8 783.919,115.617 783.972,115.413L784.019,115.223C783.883,115.345 783.647,115.408 783.38,115.439C783.004,115.481 782.749,115.543 782.749,115.805C782.749,116.008 782.948,116.124 783.187,116.124ZM778.286,118.993C778.062,118.993 777.761,119.044 777.581,119.122L777.143,121.195L777.146,121.195L776.953,122.098C777.056,122.141 777.253,122.167 777.426,122.167C778.475,122.167 779.18,121.057 779.18,119.904C779.18,119.294 778.889,118.993 778.286,118.993ZM754.396,127.355C754.635,127.355 754.831,127.549 754.831,127.791C754.831,128.03 754.635,128.224 754.396,128.224C754.157,128.224 753.961,128.03 753.961,127.791C753.961,127.549 754.157,127.355 754.396,127.355ZM737.162,133.494L765.523,133.494L765.523,114.316C761.885,114.443 758.507,114.949 755.16,115.847C753.715,121 752.71,126.484 752.255,131.407C752.125,131.459 751.669,131.526 751.427,131.526C750.285,131.526 749.626,131.068 749.626,129.981C749.626,127.343 750.661,121.839 751.965,116.823C750.375,117.368 748.78,118.002 747.162,118.725C746.415,121.9 745.885,125.198 745.622,128.433C745.475,128.503 745.066,128.561 744.814,128.561C743.896,128.561 743.26,127.951 743.26,126.911C743.26,125.157 743.603,122.717 744.127,120.174C742.758,120.869 741.368,121.624 739.948,122.443C739.804,122.172 739.762,121.804 739.793,121.593C739.838,121.287 740.028,120.631 740.754,120.11C742.173,119.089 742.98,118.693 744.665,117.791C745.411,114.727 746.349,111.772 747.204,109.928C747.747,108.757 748.441,108.304 749.632,108.304C749.947,108.304 750.381,108.379 750.607,108.451C749.518,110.812 748.574,113.459 747.797,116.249C749.336,115.556 750.953,114.923 752.637,114.366C753.409,111.693 754.225,109.35 754.953,107.934C755.391,107.08 756.065,106.632 757.07,106.632C757.537,106.632 758.05,106.707 758.344,106.816C757.44,108.852 756.619,111.083 755.885,113.412C758.884,112.642 762.08,112.13 765.523,111.965L765.523,105.132L737.162,105.132L737.162,133.494ZM785.396,119.5C785.396,119.2 785.207,118.993 784.863,118.993C784.13,118.993 783.563,119.75 783.375,120.394C783.512,120.438 783.847,120.481 784.071,120.481C784.906,120.481 785.396,120.102 785.396,119.5Z" style="fill:rgb(104,110,111);fill-rule:nonzero;"/>
        </g>
    </g>
</svg>
