<?xml version="1.0" encoding="UTF-8" standalone="no"?>
<!DOCTYPE svg PUBLIC "-//W3C//DTD SVG 1.1//EN" "http://www.w3.org/Graphics/SVG/1.1/DTD/svg11.dtd">
<svg width="100%" height="100%" viewBox="0 0 141 52" version="1.1" xmlns="http://www.w3.org/2000/svg" xmlns:xlink="http://www.w3.org/1999/xlink" xml:space="preserve" xmlns:serif="http://www.serif.com/" style="fill-rule:evenodd;clip-rule:evenodd;stroke-linejoin:round;stroke-miterlimit:2;">
    <g transform="matrix(1,0,0,1,-583.91,-99.768)">
        <g transform="matrix(2,0,0,2,0,0)">
            <path d="M312.286,56.904L312.285,53.635L309.112,53.635L309.112,56.904L307.661,56.904L307.661,50.035L309.112,50.035L309.112,53.11L312.285,53.11L312.292,50.038L313.731,50.035L313.731,56.904L312.286,56.904Z" style="fill:rgb(32,49,98);fill-rule:nonzero;"/>
            <path d="M328.204,50.643L328.204,56.904L326.737,56.904L326.738,50.643L324.799,50.643L324.799,50.035L330.142,50.035L330.142,50.643L328.204,50.643Z" style="fill:rgb(32,49,98);fill-rule:nonzero;"/>
            <path d="M332.656,56.904L332.656,50.035L337.071,50.035L337.071,50.643L334.235,50.643L334.235,53.11L336.606,53.11L336.606,53.635L334.235,53.635L334.235,56.218L337.122,56.218L337.122,56.904L332.656,56.904Z" style="fill:rgb(32,49,98);fill-rule:nonzero;"/>
            <path d="M340.161,56.904L340.161,50.035L341.75,50.035L341.75,56.218L344.818,56.218L344.818,56.904L340.161,56.904Z" style="fill:rgb(32,49,98);fill-rule:nonzero;"/>
            <path d="M319.69,50.303C318.341,50.303 317.562,51.385 317.562,53.466C317.562,55.494 318.341,56.621 319.69,56.621C321.04,56.621 321.829,55.505 321.829,53.466C321.829,51.447 321.04,50.303 319.69,50.303ZM319.69,57.046C317.448,57.046 316.046,55.652 316.046,53.465C316.046,51.279 317.448,49.884 319.69,49.884C321.993,49.884 323.344,51.249 323.344,53.465C323.344,55.622 321.943,57.046 319.69,57.046Z" style="fill:rgb(32,49,98);fill-rule:nonzero;"/>
            <path d="M307.511,71.837L307.511,63.433L308.571,63.434L308.571,75.436L307.303,75.436L299.809,66.843C299.697,66.715 299.559,66.561 299.402,66.361L299.3,66.361L299.3,75.436L298.24,75.436L298.24,63.433L300.099,63.433L306.984,71.305C307.099,71.436 307.246,71.6 307.408,71.837L307.511,71.837Z" style="fill:rgb(32,49,98);fill-rule:nonzero;"/>
            <path d="M316.802,64.127L314.801,64.127L314.801,74.725L316.486,74.725C318.736,74.725 320.996,73.558 320.996,69.189C320.996,65.346 319.083,64.127 316.802,64.127ZM317.1,75.436L312.341,75.436L312.341,63.434L317.1,63.434C321.347,63.434 323.671,65.031 323.671,69.189C323.671,73.689 320.224,75.436 317.1,75.436Z" style="fill:rgb(32,49,98);fill-rule:nonzero;"/>
            <rect x="291.955" y="63.434" width="2.456" height="12.002" style="fill:rgb(32,49,98);fill-rule:nonzero;"/>
            <rect x="327.088" y="63.434" width="2.457" height="12.002" style="fill:rgb(32,49,98);fill-rule:nonzero;"/>
            <path d="M354.273,63.919C351.916,63.919 350.556,65.81 350.556,69.444C350.556,72.988 351.916,74.956 354.273,74.956C356.63,74.956 358.009,73.006 358.009,69.444C358.009,65.918 356.63,63.919 354.273,63.919ZM354.273,75.699C350.356,75.699 347.907,73.264 347.907,69.443C347.907,65.623 350.356,63.188 354.273,63.188C358.296,63.188 360.657,65.571 360.657,69.443C360.657,73.211 358.208,75.699 354.273,75.699Z" style="fill:rgb(32,49,98);fill-rule:nonzero;"/>
            <path d="M342.361,70.289L342.361,74.434C342.148,74.568 341.414,74.962 340.119,74.968C337.153,74.979 335.658,72.765 335.669,69.426C335.68,66.027 337.867,63.968 340.079,63.948C341.618,63.934 343.076,64.407 344.072,65.748L344.128,65.748C344.239,65.02 344.561,64.231 344.561,64.231C344.561,64.231 343.044,63.188 340.071,63.188C335.895,63.188 332.98,65.989 332.98,69.443C332.98,73.828 336.123,75.699 340.127,75.699C342.382,75.699 344.818,74.933 344.818,74.933L344.818,70.289L342.361,70.289Z" style="fill:rgb(32,49,98);fill-rule:nonzero;"/>
            <path d="M361.442,63.931L361.577,63.817L361.577,63.814L361.442,63.705L361.343,63.705L361.343,63.931L361.442,63.931ZM361.173,63.573L361.446,63.573C361.626,63.573 361.743,63.648 361.743,63.807L361.743,63.811C361.743,63.927 361.676,63.991 361.584,64.019L361.789,64.348L361.612,64.348L361.425,64.047L361.343,64.047L361.343,64.348L361.173,64.348L361.173,63.573ZM362.086,63.97C362.086,63.584 361.817,63.315 361.442,63.315C361.067,63.315 360.798,63.587 360.798,63.973C360.798,64.362 361.082,64.624 361.442,64.624C361.807,64.624 362.086,64.355 362.086,63.97ZM360.657,63.973C360.657,63.538 361.003,63.188 361.442,63.188C361.888,63.188 362.228,63.535 362.228,63.97C362.228,64.412 361.881,64.751 361.442,64.751C361.007,64.751 360.657,64.415 360.657,63.973Z" style="fill:rgb(32,49,98);fill-rule:nonzero;"/>
        </g>
    </g>
</svg>
