<?xml version="1.0" encoding="UTF-8" standalone="no"?>
<!DOCTYPE svg PUBLIC "-//W3C//DTD SVG 1.1//EN" "http://www.w3.org/Graphics/SVG/1.1/DTD/svg11.dtd">
<svg width="100%" height="100%" viewBox="0 0 312 187" version="1.1" xmlns="http://www.w3.org/2000/svg" xmlns:xlink="http://www.w3.org/1999/xlink" xml:space="preserve" xmlns:serif="http://www.serif.com/" style="fill-rule:evenodd;clip-rule:evenodd;stroke-linejoin:round;stroke-miterlimit:2;">
    <g transform="matrix(1,0,0,1,-2160.25,-174.454)">
        <g transform="matrix(4.16667,0,0,4.16667,0,0)">
            <path d="M591.916,78.817L592.001,78.817C592.219,78.817 592.329,78.9 592.329,79.066C592.329,79.167 592.304,79.235 592.255,79.271C592.208,79.307 592.113,79.325 591.972,79.325C591.895,79.325 591.848,79.323 591.83,79.321L591.83,78.819L591.916,78.817ZM592.667,80.145L592.253,79.463C592.45,79.383 592.547,79.246 592.547,79.052C592.547,78.773 592.365,78.634 592.001,78.634L591.614,78.634L591.614,80.145L591.83,80.145L591.83,79.496L592.048,79.496L592.432,80.145L592.667,80.145ZM592.776,80.132C592.576,80.332 592.333,80.433 592.05,80.433C591.766,80.433 591.524,80.332 591.324,80.132C591.123,79.931 591.022,79.688 591.022,79.405C591.022,79.121 591.123,78.879 591.324,78.679C591.524,78.479 591.766,78.379 592.05,78.379C592.333,78.379 592.576,78.479 592.776,78.679C592.976,78.879 593.077,79.121 593.077,79.405C593.077,79.688 592.976,79.931 592.776,80.132ZM591.182,80.272C591.422,80.513 591.711,80.633 592.05,80.633C592.388,80.633 592.677,80.513 592.917,80.272C593.157,80.032 593.276,79.743 593.276,79.405C593.276,79.066 593.157,78.777 592.917,78.538C592.677,78.299 592.388,78.179 592.05,78.179C591.711,78.179 591.422,78.299 591.182,78.538C590.942,78.777 590.822,79.066 590.822,79.405C590.822,79.743 590.942,80.032 591.182,80.272ZM579.397,80.614C579.354,80.46 579.012,79.828 578.966,79.828C578.81,79.649 578.584,79.603 578.358,79.615C578.318,79.709 578.228,79.775 578.165,79.82C578.008,79.909 577.616,80.061 577.502,80.053C577.42,80.046 577.406,80.07 577.323,80.184C577.238,80.296 577.608,80.549 577.713,80.612C577.818,80.675 578.093,80.577 578.383,80.465C578.496,80.397 578.57,80.435 578.579,80.465C578.586,80.495 578.593,80.533 578.609,80.56C578.641,80.823 578.034,81.425 578.01,81.439C577.976,81.491 577.798,81.637 577.793,81.643C577.745,81.702 577.698,81.767 577.682,81.859C577.665,81.973 577.698,82.269 577.729,82.322C577.78,82.42 577.757,82.462 577.883,82.526C578.008,82.59 578.798,82.311 579.008,82.367C579.147,82.403 579.222,82.284 579.254,82.169C579.303,82.049 579.333,81.831 579.225,81.857C579.02,81.906 578.157,82.16 578.326,81.728C578.706,80.903 579.15,80.978 579.214,80.974C579.4,80.961 579.436,80.747 579.397,80.614ZM576.901,80.636C576.906,80.575 576.882,80.515 576.827,80.459L576.822,80.454L576.817,80.453C576.786,80.443 576.767,80.437 576.747,80.43C576.726,80.423 576.708,80.416 576.676,80.408L576.667,80.406L576.661,80.41C576.621,80.441 576.48,80.492 576.342,80.545C576.172,80.604 576.012,80.665 575.968,80.706C575.888,80.78 575.751,81.313 575.755,81.411C575.759,81.498 575.817,81.528 575.877,81.554C575.889,81.561 575.9,81.565 575.912,81.571L575.929,81.581L575.938,81.565C575.991,81.464 576.122,81.3 576.445,81.09C576.467,81.072 576.496,81.053 576.527,81.032C576.667,80.94 576.883,80.797 576.901,80.636ZM575.837,83.619C575.835,83.692 575.839,83.78 575.845,83.885L575.851,83.947L575.881,83.893C575.913,83.838 575.984,83.777 576.061,83.714C576.188,83.606 576.334,83.484 576.349,83.339L576.351,83.335L576.349,83.331C576.338,83.274 576.308,83.248 576.24,83.244C576.178,83.236 575.915,83.266 575.867,83.274L575.851,83.275L575.851,83.291C575.852,83.348 575.847,83.437 575.843,83.516C575.84,83.555 575.839,83.59 575.837,83.619ZM577.34,81.071C577.327,81.09 577.312,81.107 577.296,81.121C577.278,81.138 577.23,81.162 577.197,81.173C577.185,81.175 577.174,81.177 577.163,81.18L577.158,81.181C577.134,81.197 577.105,81.217 577.073,81.241C576.989,81.298 576.875,81.379 576.779,81.419C576.712,81.447 576.474,81.616 576.43,81.708C576.417,81.739 576.419,81.769 576.435,81.791C576.462,81.832 576.534,81.85 576.666,81.85C576.729,81.85 576.797,81.847 576.864,81.842C576.928,81.839 576.996,81.836 577.054,81.836C577.153,81.836 577.212,81.847 577.226,81.871C577.289,81.971 577.319,82.079 577.302,82.14C577.297,82.158 577.289,82.171 577.274,82.18C577.23,82.205 576.882,82.342 576.784,82.365C576.778,82.367 576.756,82.373 576.729,82.384C576.62,82.421 576.364,82.505 576.258,82.505L576.251,82.505C576.179,82.504 576.054,82.413 575.954,82.342C575.892,82.297 575.834,82.256 575.792,82.233L575.762,82.219L575.765,82.253C575.777,82.432 575.797,82.685 575.809,82.841L575.81,82.85L575.815,82.855C575.851,82.89 575.904,82.905 575.972,82.905C576.019,82.905 576.068,82.896 576.107,82.893C576.136,82.887 576.161,82.883 576.178,82.883L576.187,82.883C576.2,82.883 576.252,82.867 576.412,82.81C576.49,82.78 576.572,82.75 576.603,82.742C576.733,82.769 576.984,83.065 576.969,83.22C576.957,83.358 576.833,83.471 576.775,83.526C576.77,83.529 576.766,83.533 576.762,83.537C576.724,83.531 576.69,83.529 576.658,83.529C576.46,83.529 576.33,83.619 576.114,83.822C575.972,83.97 575.976,84.081 575.991,84.133C576.003,84.179 576.032,84.211 576.068,84.221C576.105,84.224 576.146,84.228 576.185,84.228C576.364,84.228 576.584,84.182 576.652,84.073C576.704,84.033 576.842,83.989 576.949,83.97L576.959,83.97C577.043,83.97 577.156,84.133 577.238,84.374C577.257,84.457 577.244,84.559 577.205,84.611C577.188,84.635 577.169,84.647 577.148,84.649L576.967,84.649C576.856,84.649 576.715,84.654 576.646,84.696C576.62,84.712 576.583,84.739 576.542,84.771C576.442,84.845 576.305,84.947 576.232,84.947C576.227,84.947 576.221,84.947 576.218,84.945C576.185,84.938 576.16,84.936 576.139,84.936L576.109,84.938C576.075,84.938 576.048,84.934 576.005,84.891L575.964,84.851L575.972,84.906C576.005,85.173 576.018,85.36 576.012,85.504C576.005,85.655 575.998,85.771 575.987,85.878C575.987,85.897 575.986,85.918 575.984,85.939C575.982,86.018 575.978,86.112 575.941,86.149C575.927,86.164 575.904,86.169 575.872,86.169C575.797,86.169 575.676,86.126 575.556,86.006C575.433,85.882 575.229,85.586 575.233,84.978C575.235,84.891 575.238,84.848 575.243,84.81C575.245,84.783 575.248,84.759 575.248,84.727C575.258,84.685 575.341,83.906 575.362,83.673C575.366,83.621 575.378,83.348 575.377,83.254C575.374,82.943 575.456,82.091 575.507,81.524C575.548,81.095 575.563,80.946 575.558,80.925L575.554,80.92C575.486,80.816 575.363,80.768 575.257,80.726C575.166,80.687 575.089,80.656 575.068,80.604C575.059,80.584 575.06,80.56 575.075,80.527C575.169,80.296 575.229,80.276 575.618,80.145C575.677,80.124 575.744,80.102 575.82,80.077C575.926,80.039 575.998,79.991 576.066,79.945C576.092,79.927 576.118,79.909 576.147,79.893L576.152,79.885C576.241,79.759 576.384,79.684 576.543,79.684C576.666,79.684 576.792,79.727 576.909,79.809C577.128,79.979 577.474,80.388 577.547,80.481C577.626,80.607 577.655,80.686 577.628,80.71C577.58,80.762 577.543,80.806 577.516,80.846C577.474,80.903 577.425,80.973 577.369,81.033C577.358,81.046 577.349,81.059 577.34,81.071ZM578.478,83.478C578.474,83.478 578.465,83.476 578.446,83.476C578.387,83.476 578.283,83.503 578.182,83.529C578.09,83.555 577.997,83.577 577.92,83.586C577.989,83.654 578.059,83.733 578.122,83.804C578.19,83.881 578.271,83.973 578.313,84.007C578.329,83.981 578.35,83.953 578.372,83.92C578.45,83.81 578.567,83.641 578.54,83.545C578.533,83.516 578.512,83.495 578.478,83.478ZM580.154,85.603L580.142,85.634C580.046,85.888 579.856,86.073 579.721,86.157C579.688,86.178 579.652,86.188 579.616,86.188C579.507,86.188 579.411,86.097 579.317,86.006L579.299,85.988C579.221,85.913 579.147,85.825 579.075,85.738C579.027,85.682 578.979,85.622 578.93,85.567C578.893,85.526 578.86,85.491 578.829,85.459C578.667,85.28 578.574,85.179 578.4,84.917C578.366,84.959 578.326,84.989 578.287,85.018C578.255,85.038 578.226,85.061 578.199,85.089C578.157,85.129 578.12,85.173 578.082,85.214C577.89,85.42 577.708,85.615 577.434,85.622L577.399,85.622C577.32,85.622 577.231,85.612 577.158,85.548C577.151,85.543 577.136,85.525 577.095,85.469C577.083,85.453 577.073,85.439 577.066,85.428L577.062,85.428L577.051,85.411C576.989,85.301 577.201,85.163 577.495,84.97C577.708,84.827 577.946,84.673 578.048,84.537C577.821,84.196 577.658,83.915 577.604,83.444L577.603,83.411C577.595,83.396 577.593,83.383 577.597,83.366L577.6,83.354L577.607,83.348C577.667,83.29 577.871,83.244 578.129,83.187C578.234,83.165 578.332,83.144 578.366,83.129C578.396,83.116 578.436,83.095 578.478,83.069C578.582,83.01 578.712,82.935 578.826,82.935C578.895,82.935 578.951,82.96 578.994,83.01C579.042,83.063 579.082,83.132 579.125,83.204C579.149,83.248 579.175,83.29 579.202,83.332L579.208,83.341L579.202,83.522C579.079,83.815 578.867,84.147 578.674,84.434C578.744,84.532 579.158,85.03 579.198,85.065C579.463,85.308 579.717,85.415 580.012,85.539L580.154,85.603ZM574.208,81.227C574.085,81.25 574.01,81.303 573.985,81.443C574.34,82.047 574.231,82.791 574.182,83.451C574.163,83.747 574.157,83.97 574.068,84.241C573.968,84.547 573.856,84.906 573.934,85.239C574.036,85.666 574.085,86.316 574.555,86.39C574.706,86.226 574.658,86 574.706,85.778L574.756,82.316C574.906,82.014 574.78,81.613 574.607,81.381C574.506,81.237 574.358,81.23 574.208,81.227ZM574.828,79.101C574.68,78.962 574.583,78.939 574.42,79.088C574.256,79.232 574.189,79.612 574.095,80.005C573.928,80.723 573.615,81.102 573.199,81.66C572.963,81.976 572.15,83.063 572.439,83.149C572.83,83.274 573.61,81.924 573.815,81.603C574.132,81.104 574.49,80.654 574.843,80.185C575.171,79.75 575.232,79.478 574.828,79.101ZM583.902,83.537L583.89,83.537C583.807,83.608 583.717,83.69 583.709,83.71C583.708,83.718 583.702,83.735 583.693,83.761C583.684,83.788 583.666,83.842 583.666,83.859C583.679,83.872 583.695,83.879 583.706,83.881C583.744,83.865 583.953,83.727 583.971,83.704C583.979,83.686 583.989,83.669 583.994,83.659C583.996,83.648 583.999,83.638 584,83.621C584.006,83.603 584.017,83.561 584.011,83.551C584.005,83.546 583.974,83.537 583.902,83.537ZM584.991,81.013C584.991,81.013 584.89,80.846 584.863,80.811L584.852,80.802C584.793,80.725 584.697,80.614 584.654,80.612C584.639,80.61 584.623,80.612 584.606,80.618L584.599,80.625L584.596,80.628C584.594,80.636 584.591,80.644 584.59,80.645C584.583,80.667 584.578,80.68 584.574,80.692L584.572,80.721C584.572,80.726 584.569,80.762 584.565,80.78C584.551,80.84 584.534,80.929 584.539,80.98C584.534,81.062 584.558,81.19 584.599,81.237C584.621,81.264 584.647,81.282 584.668,81.289C584.682,81.285 584.712,81.28 584.725,81.273C584.752,81.264 584.82,81.25 584.885,81.239C584.929,81.23 584.979,81.22 584.988,81.217C585.003,81.212 585.013,81.2 585.019,81.186C585.04,81.138 585.003,81.046 584.991,81.013ZM586.297,81.568L586.296,81.581L586.287,81.589C586.277,81.595 586.266,81.598 586.227,81.598C586.203,81.598 586.17,81.598 586.142,81.596C586.11,81.595 586.078,81.593 586.067,81.595C585.854,81.63 585.637,81.724 585.446,81.804C585.359,81.84 585.276,81.875 585.201,81.904C585.058,81.955 584.949,82.003 584.861,82.04C584.799,82.067 584.75,82.09 584.71,82.103C584.688,82.109 584.641,82.175 584.61,82.511C584.608,82.526 584.608,82.535 584.608,82.54C584.604,82.574 584.594,82.609 584.584,82.647L584.578,82.679C584.55,82.791 584.469,83.095 584.611,83.258C584.623,83.274 584.645,83.295 584.659,83.295C584.699,83.274 584.725,83.254 584.725,83.254C584.791,83.189 584.929,83.099 585.142,82.978C585.167,82.964 585.205,82.978 585.22,83.01C585.235,83.04 585.23,83.077 585.205,83.113C585.201,83.118 585.192,83.128 585.176,83.147C585.15,83.18 585.1,83.24 585.005,83.353L584.882,83.499C584.734,83.679 584.581,83.864 584.555,83.892L584.55,83.905C584.546,83.917 584.539,83.941 584.532,83.964L584.529,83.973C584.515,84.019 584.477,84.176 584.477,84.179C584.465,84.211 584.464,84.419 584.483,84.5L584.483,84.508C584.477,84.569 584.432,85.347 584.45,85.478L584.454,85.515L584.447,85.515C584.447,85.582 584.451,85.652 584.458,85.724C584.458,85.739 584.45,85.787 584.442,85.802C584.427,85.837 584.384,85.913 584.355,85.972C584.333,86.011 584.145,86.131 584,86.153C583.993,86.155 583.986,86.157 583.978,86.157C583.919,86.157 583.841,86.121 583.801,85.95L583.8,85.939C583.8,85.939 583.796,85.931 583.793,85.92C583.781,85.875 583.752,85.783 583.75,85.699C583.75,85.635 583.758,85.57 583.766,85.508C583.771,85.469 583.775,85.427 583.778,85.39C583.781,85.375 583.784,85.36 583.79,85.335C583.807,85.261 583.844,85.109 583.908,84.606L583.908,84.599L583.913,84.593C583.934,84.564 583.939,84.523 583.925,84.489C583.908,84.456 583.872,84.44 583.831,84.444C583.797,84.498 583.596,84.683 583.423,84.842L583.384,84.879C583.371,84.891 583.362,84.9 583.359,84.901C583.323,84.936 583.296,85.061 583.303,85.131L583.304,85.144L583.293,85.152C583.273,85.168 583.261,85.192 583.249,85.217C583.239,85.239 583.229,85.258 583.214,85.277L583.209,85.281L583.191,85.286C583.176,85.285 583.17,85.29 583.168,85.294L583.159,85.306L583.142,85.304C583.101,85.297 583.048,85.291 582.986,85.291L582.972,85.291C582.94,85.29 582.907,85.288 582.871,85.285L582.858,85.281C582.782,85.271 582.74,85.217 582.694,85.16C582.663,85.122 582.631,85.085 582.59,85.058L582.584,85.05C582.574,85.032 582.559,85.018 582.546,85.005L582.541,84.997C582.534,84.978 582.524,84.962 582.511,84.939L582.507,84.928C582.506,84.908 582.501,84.886 582.492,84.864L582.489,84.853L582.493,84.844C582.495,84.842 582.496,84.84 582.496,84.838C582.5,84.825 582.504,84.813 582.506,84.8L582.51,84.768C582.511,84.741 582.51,84.708 582.504,84.679C582.501,84.667 582.5,84.654 582.498,84.649L582.495,84.635C582.495,84.611 582.489,84.589 582.479,84.57C582.474,84.551 582.469,84.541 582.462,84.529L582.46,84.52L582.461,84.515C582.467,84.478 582.474,84.44 582.486,84.405L582.49,84.399L582.495,84.394C582.515,84.374 582.534,84.356 582.556,84.339L582.598,84.297C583.012,83.909 583.824,82.864 583.849,82.825C583.893,82.774 583.942,82.65 583.972,82.558C583.986,82.527 584.022,82.434 584.017,82.348L584.017,82.336C584.019,82.307 584.022,82.246 583.988,82.209C583.96,82.181 583.912,82.173 583.845,82.184C583.838,82.186 583.83,82.186 583.818,82.19C583.706,82.215 583.368,82.29 583.038,82.29C582.765,82.29 582.567,82.236 582.444,82.14C582.292,81.995 582.261,81.817 582.252,81.68L582.25,81.664L582.264,81.654C582.388,81.584 582.559,81.551 582.796,81.551C582.929,81.551 583.068,81.562 583.199,81.571C583.368,81.551 583.573,81.511 583.696,81.485C583.759,81.473 583.8,81.464 583.818,81.464C583.894,81.455 583.928,81.415 583.942,81.384L583.946,81.379L583.95,81.375C584.028,81.32 584.022,81.23 584.004,81.112C584.008,81.052 584.019,80.823 584.014,80.78C584.013,80.671 584.011,80.565 584.005,80.454L584.003,80.358L584.011,80.268C584.012,80.245 583.997,79.659 583.968,79.506C583.967,79.481 583.963,79.463 583.958,79.447C583.95,79.42 583.946,79.398 583.938,79.377L583.935,79.369L583.936,79.362L583.931,79.353L583.928,79.347C583.927,79.339 583.926,79.331 583.923,79.325L583.917,79.314C583.916,79.308 583.913,79.304 583.912,79.296C583.905,79.276 583.898,79.263 583.896,79.251L583.894,79.243L583.896,79.241L583.893,79.235C583.848,79.178 583.835,79.117 583.861,79.068C583.892,79.005 583.972,78.966 584.061,78.976C584.106,78.982 584.147,78.996 584.18,79.023C584.327,79.156 584.406,79.31 584.469,79.433L584.481,79.457C584.505,79.502 584.528,79.546 584.552,79.582C584.641,79.72 584.632,79.879 584.625,80.03L584.62,80.086C584.619,80.093 584.619,80.102 584.62,80.109L584.62,80.176C584.62,80.188 584.62,80.2 584.622,80.214L584.623,80.218L584.623,80.225C584.622,80.23 584.627,80.244 584.636,80.262L584.639,80.269C584.639,80.27 584.639,80.273 584.64,80.275L584.643,80.282C584.644,80.288 584.648,80.296 584.652,80.302C584.667,80.325 584.731,80.394 584.774,80.438C584.812,80.481 584.835,80.506 584.843,80.517C584.873,80.555 584.952,80.644 584.97,80.656C585.042,80.717 585.278,80.935 585.328,81.021L585.332,81.026L585.359,81.03C585.476,81.05 585.783,81.095 585.928,81.213C585.943,81.227 585.965,81.244 585.995,81.264C586.154,81.385 586.297,81.498 586.297,81.568ZM586.483,82.891L586.485,82.891C586.5,82.935 586.52,82.978 586.539,83.022C586.577,83.103 586.614,83.186 586.633,83.277C586.643,83.332 586.646,83.39 586.65,83.444L586.65,83.449C586.659,83.491 586.669,83.537 586.687,83.579C586.694,83.581 586.7,83.582 586.706,83.586C586.79,83.581 586.864,83.553 586.934,83.495C586.934,83.493 586.936,83.492 586.936,83.491L586.941,83.471L586.95,83.471C586.957,83.467 586.967,83.454 586.979,83.44C587.045,83.37 587.073,83.342 587.085,83.331C587.095,83.32 587.12,83.287 587.143,83.254C587.171,83.215 587.202,83.174 587.217,83.151C587.221,83.139 587.248,83.107 587.368,82.978C587.375,82.969 587.381,82.964 587.385,82.959L587.393,82.939L587.402,82.943C587.408,82.934 587.415,82.921 587.42,82.909C587.415,82.898 587.413,82.887 587.419,82.873C587.408,82.854 587.408,82.83 587.409,82.813C587.393,82.784 587.375,82.753 587.354,82.722L587.337,82.696C587.182,82.623 586.872,82.38 586.869,82.377C586.846,82.358 586.826,82.336 586.804,82.311C586.79,82.295 586.774,82.277 586.757,82.26C586.627,82.212 586.493,82.169 586.371,82.169C586.291,82.169 586.228,82.186 586.178,82.225C586.157,82.275 586.089,82.351 586.04,82.4C586.037,82.422 586.008,82.446 585.985,82.461C585.985,82.484 585.978,82.502 585.974,82.514C585.973,82.518 585.973,82.523 585.973,82.526C585.978,82.523 585.986,82.523 585.994,82.523C585.999,82.523 586.018,82.525 586.028,82.54C586.058,82.532 586.089,82.527 586.12,82.527C586.208,82.527 586.284,82.568 586.33,82.599C586.35,82.603 586.373,82.619 586.389,82.638L586.388,82.641C586.419,82.672 586.455,82.78 586.455,82.78C586.457,82.793 586.458,82.807 586.462,82.817C586.468,82.838 586.48,82.873 586.483,82.891ZM588.436,80.492L588.434,80.489C588.416,80.454 588.295,80.397 588.24,80.397C588.226,80.397 588.218,80.401 588.211,80.406L588.208,80.409L588.209,80.414C588.214,80.438 588.231,80.5 588.283,80.519C588.3,80.527 588.322,80.53 588.342,80.53C588.387,80.53 588.427,80.515 588.434,80.495L588.436,80.492ZM589.406,80.726C589.462,80.79 589.497,80.9 589.472,80.929C589.436,80.986 589.323,81.021 589.17,81.021C589.152,81.021 589.132,81.019 589.114,81.019C589.07,81.015 589.03,81.013 588.991,81.013C588.93,81.013 588.879,81.019 588.826,81.024C588.778,81.029 588.722,81.03 588.652,81.032C588.598,81.035 588.541,81.046 588.487,81.062C588.471,81.062 588.378,81.081 588.342,81.098L588.337,81.103L588.337,81.107C588.335,81.116 588.342,81.155 588.354,81.225C588.369,81.305 588.387,81.406 588.391,81.464C588.381,81.529 588.375,81.602 588.37,81.683L588.37,81.684C588.363,81.938 588.387,82.52 588.423,82.791C588.426,82.813 588.566,85.442 588.15,86.164C588.118,86.182 587.99,86.219 587.913,86.241C587.857,86.257 587.84,86.262 587.834,86.265C587.833,86.266 587.757,86.316 587.726,86.331C587.693,86.33 587.659,86.329 587.625,86.325C587.46,86.308 587.388,86.201 587.302,86.076C587.284,86.052 587.266,86.026 587.248,86C587.08,85.774 586.836,85.563 586.657,85.409C586.564,85.329 586.494,85.268 586.462,85.228C586.384,85.14 586.183,84.844 586.113,84.694C586.049,84.562 586.025,84.457 586.047,84.421C586.053,84.411 586.063,84.405 586.08,84.405C586.085,84.405 586.09,84.407 586.097,84.408C586.179,84.424 586.3,84.523 586.406,84.611C586.455,84.651 586.5,84.69 586.539,84.717C586.563,84.733 586.598,84.765 586.643,84.803C586.816,84.953 587.108,85.207 587.341,85.207C587.447,85.207 587.528,85.156 587.586,85.058L587.588,85.053C587.588,85.024 587.671,84.702 587.702,84.583C587.834,84.23 587.813,83.729 587.797,83.331L587.795,83.277C587.793,83.236 587.79,83.116 587.785,82.993C587.775,82.745 587.774,82.692 587.771,82.679L587.773,82.679C587.77,82.626 587.765,81.654 587.773,81.568C587.779,81.504 587.728,81.305 587.721,81.28C587.702,81.222 587.678,81.208 587.635,81.181C587.625,81.178 587.613,81.169 587.601,81.162L587.593,81.158L587.588,81.164C587.569,81.18 587.287,81.23 587.038,81.276C586.829,81.315 586.613,81.355 586.474,81.385C586.467,81.389 586.462,81.391 586.458,81.394C586.344,81.379 586.258,81.357 586.184,81.327C586.13,81.305 586.086,81.247 586.044,81.193C586.016,81.157 585.989,81.124 585.959,81.097L585.935,81.075C585.926,81.057 585.917,81.04 585.906,81.019C585.863,80.94 585.814,80.853 585.861,80.768C585.87,80.75 585.943,80.7 586.045,80.7C586.052,80.7 586.059,80.703 586.067,80.703C586.075,80.703 586.852,80.688 587.007,80.675C587.219,80.654 587.433,80.566 587.55,80.487C587.573,80.482 587.593,80.463 587.61,80.434C587.717,80.247 587.712,79.585 587.556,79.104L587.555,79.104C587.546,79.063 587.469,78.881 587.468,78.88C587.464,78.872 587.465,78.866 587.471,78.86C587.487,78.832 587.549,78.816 587.577,78.816L587.614,78.816C587.934,78.816 588.148,79.2 588.198,79.334C588.229,79.42 588.214,79.484 588.204,79.541C588.198,79.571 588.193,79.597 588.193,79.624C588.214,79.872 588.357,80.166 588.499,80.249C588.636,80.339 588.819,80.409 589.011,80.486C589.065,80.506 589.119,80.527 589.172,80.549C589.237,80.591 589.287,80.63 589.33,80.667C589.358,80.688 589.382,80.71 589.406,80.726ZM551.015,85.461C551.394,85.168 551.803,84.525 551.778,84.087C551.746,83.603 551.369,83.564 551.065,83.533C550.888,83.512 550.719,83.493 550.598,83.409C550.707,83.275 550.875,83.157 551.053,83.032C551.399,82.793 551.79,82.52 551.756,82.06L551.748,82.024C551.678,81.842 551.483,81.728 551.27,81.766L551.231,81.778C551.169,81.814 551.081,81.82 550.993,81.82L550.838,81.82C550.707,81.82 550.566,81.829 550.454,81.906C550.261,82.028 549.958,82.02 549.665,81.894L549.641,81.884L549.583,81.889C549.431,81.894 549.242,81.905 549.17,82.04C549.145,82.09 549.126,82.169 549.19,82.281C549.345,82.558 549.528,82.689 549.748,82.689C549.964,82.689 550.176,82.557 550.38,82.425C550.544,82.32 550.711,82.215 550.875,82.186C550.869,82.203 550.866,82.222 550.864,82.244C550.54,82.66 549.96,83.062 549.446,83.419C549.339,83.493 549.233,83.565 549.134,83.638L549.102,83.673C549.068,83.727 548.978,83.777 548.888,83.824C548.735,83.909 548.542,84.012 548.522,84.227L548.513,84.319L548.597,84.351C548.667,84.377 548.701,84.434 548.749,84.525C548.814,84.647 548.904,84.812 549.154,84.813L549.188,84.816L549.216,84.796C549.373,84.694 549.536,84.569 549.708,84.436C550.004,84.204 550.313,83.964 550.643,83.819C550.7,83.787 550.82,83.813 550.883,83.873C550.991,84.182 550.667,84.752 550.388,85.024C550.318,85.034 550.111,85.025 549.906,85.012C549.762,85.001 549.612,84.989 549.483,84.989C549.337,84.989 549.234,85.003 549.165,85.034L549.081,85.072L549.095,85.164C549.118,85.297 549.284,85.425 549.835,85.743C549.901,85.781 549.952,85.811 549.981,85.828L550.005,85.845L550.146,85.854C550.297,85.867 550.454,85.878 550.609,85.878C550.842,85.878 551.018,85.853 551.165,85.796L551.376,85.7L551.171,85.574C551.085,85.519 551.04,85.484 551.015,85.461ZM551.214,80.009L551.287,79.979L551.287,79.8L551.267,79.768C551.071,79.494 550.754,79.349 550.388,79.364L550.35,79.366L550.32,79.393C550.264,79.44 550.206,79.48 550.145,79.519L550.126,79.4C550.102,79.219 550.004,79.071 549.91,78.93L549.859,78.853L549.779,78.778C549.674,78.697 549.532,78.591 549.328,78.591C549.301,78.591 549.272,78.592 549.227,78.597C549.122,78.623 549.036,78.704 549.008,78.807C548.985,78.905 549.014,79.008 549.077,79.059C549.368,79.433 549.641,79.615 549.917,79.615L549.918,79.615L549.946,79.614C549.629,79.738 549.26,79.76 548.877,79.781C548.54,79.799 548.188,79.816 547.891,79.909C547.758,79.929 547.63,79.922 547.505,79.914C547.438,79.91 547.37,79.907 547.305,79.907C547.165,79.907 546.983,79.924 546.81,80.035L546.768,80.063L546.757,80.114C546.721,80.314 546.794,80.471 546.986,80.56C547.141,80.601 547.294,80.62 547.455,80.62C547.81,80.62 548.131,80.523 548.441,80.43C548.747,80.336 549.037,80.249 549.353,80.249C549.405,80.249 549.454,80.251 549.504,80.255L549.504,80.296L548.87,81.362L547.497,83.301C547.196,83.603 546.98,83.95 546.768,84.286C546.469,84.763 546.187,85.215 545.683,85.543L545.6,85.597L545.639,85.687C545.657,85.735 545.673,85.783 545.688,85.834C545.752,86.042 545.843,86.33 546.175,86.373L546.25,86.383L547.521,84.28C547.939,83.809 548.278,83.246 548.605,82.706C549.246,81.646 549.909,80.553 551.214,80.009ZM538.412,85.078C538.118,84.852 537.847,84.589 537.536,84.415C537.363,84.417 537.11,84.233 537.03,84.411C537.072,84.741 537.245,85.034 537.471,85.311C537.677,85.532 537.889,85.896 538.239,85.805C538.366,85.773 538.398,85.652 538.431,85.551C538.305,85.36 538.601,85.235 538.412,85.078ZM537.789,82.995C537.891,83.01 537.991,83.019 538.057,82.926C538.138,82.706 538.14,82.399 537.966,82.195C537.583,81.961 537.331,81.461 536.842,81.441C536.541,81.94 537.171,82.336 537.265,82.811C537.474,82.787 537.585,82.995 537.789,82.995ZM542.041,81.726C541.883,81.716 541.528,81.839 541.389,81.872C541.236,82.166 541.014,82.535 540.849,82.825C541.017,82.856 541.188,82.896 541.303,83.028C541.277,83.215 541.464,83.831 541.221,83.934C541.103,83.989 540.991,83.973 540.862,83.922C540.771,84.371 541.646,84.595 541.906,84.844C541.981,84.028 542.11,82.557 542.041,81.726ZM540.738,80.84C540.724,80.894 540.749,81.071 540.808,81.09L541.239,80.946C541.299,80.662 541.324,80.369 541.419,80.102C541.394,79.972 540.972,80.039 540.881,80.058C540.753,80.174 540.616,80.325 540.599,80.489C540.618,80.613 540.76,80.732 540.738,80.84ZM542.884,81.247C542.872,81.461 542.718,81.612 542.735,81.84C542.751,82.096 542.8,82.368 542.751,82.61C542.821,83.429 542.779,84.939 542.739,85.766C542.673,85.912 542.67,86.107 542.468,86.168C542.38,86.188 542.244,86.176 542.158,86.135C541.977,85.956 541.875,85.769 541.923,85.521C541.792,85.428 541.301,85.507 541.159,85.386C540.867,85.018 540.208,84.729 540.471,84.189C540.487,84.014 540.692,83.24 540.409,83.095C540.311,82.696 540.792,82.543 540.781,82.192C540.781,82.116 540.803,82.093 540.717,82.078C540.668,82.067 540.605,82.102 540.562,82.11C540.462,82.138 540.18,82.176 540.072,82.127C539.973,82.104 539.889,82.118 539.828,82.195C539.74,82.896 539.75,84.263 539.769,84.957C539.864,85.286 539.961,85.609 540.046,85.937C540.034,86.047 540.005,86.174 539.879,86.211C539.716,86.255 539.665,86.058 539.594,85.978C539.505,85.686 539.266,85.372 539.434,85.064C539.463,85.012 539.425,84.857 539.422,84.793C539.421,84.698 539.418,84.603 539.418,84.509C539.417,84.017 539.448,82.902 539.44,82.411C539.437,82.171 539.335,81.929 539.349,81.689C539.351,81.649 539.379,81.612 539.375,81.565C539.375,81.551 539.338,81.264 539.38,81.289C539.515,81.364 539.685,81.504 539.836,81.401C539.906,81.361 540.002,81.353 540.032,81.267C539.867,81.197 539.944,81.006 539.819,80.881C539.9,80.675 539.811,80.388 539.781,80.154C539.833,80.13 539.853,80.078 539.879,80.032C540.026,80.063 540.188,80.202 540.332,80.234L541.028,79.735C541.296,79.764 541.967,79.705 542.087,80.016C542.11,80.229 541.918,80.388 542.054,80.597C542.306,80.463 542.499,80.736 542.7,80.848C542.804,80.969 542.894,81.095 542.884,81.247ZM537.832,79.223C537.766,79.221 537.714,79.251 537.693,79.349C537.656,79.501 537.73,79.649 537.727,79.801C537.726,79.942 537.699,80.08 537.66,80.215C537.64,80.276 537.588,80.554 537.527,80.581C537.605,80.549 537.689,80.513 537.778,80.504C537.871,80.496 537.917,80.552 538,80.56C538.05,80.561 538.055,80.536 538.095,80.527C538.229,80.499 538.383,80.579 538.52,80.601C538.608,80.614 538.822,80.625 538.851,80.518C538.915,80.296 538.859,80.039 538.761,79.834C538.741,79.789 538.62,79.714 538.582,79.68C538.473,79.587 538.359,79.502 538.239,79.426C538.136,79.362 537.957,79.228 537.832,79.223ZM543.441,79.119C543.307,78.866 542.998,78.885 542.75,78.819C542.176,78.976 541.375,79.176 540.771,79.235C540.339,79.276 539.647,79.123 539.284,79.345C539.295,79.504 539.333,79.659 539.469,79.785C540.028,80.218 540.661,79.716 541.155,79.639C541.785,79.567 542.683,79.524 543.293,79.398C543.368,79.337 543.485,79.261 543.441,79.119ZM534.597,85.753C534.48,85.634 534.326,85.603 534.186,85.553C534.098,85.519 533.929,85.566 533.839,85.574C533.714,85.579 533.59,85.589 533.464,85.593C532.97,85.609 532.478,85.573 531.986,85.628C531.509,85.679 531.032,85.767 530.547,85.778C530.38,85.779 529.389,85.867 529.298,85.8C529.115,85.669 529.086,85.39 529.106,85.154C529.137,84.827 529.41,84.457 529.19,84.17C529.005,83.931 528.756,84.203 528.534,84.207C528.477,84.331 528.395,84.449 528.424,84.606C528.505,85.054 528.55,85.666 528.917,85.972C528.958,86.003 528.971,86.137 529.019,86.187C529.192,86.366 529.487,86.343 529.704,86.345C529.917,86.348 530.134,86.357 530.348,86.335C530.876,86.278 531.423,86.252 531.958,86.252C532.158,86.251 532.355,86.265 532.553,86.252C532.727,86.239 532.897,86.157 533.069,86.153C533.473,86.144 533.92,86.064 534.347,86.019C534.444,85.945 534.626,85.925 534.597,85.753ZM530.888,82.451C531.394,82.683 530.902,83.144 531.019,83.435C531.446,83.455 531.533,82.797 531.784,82.548C531.835,82.411 531.843,82.361 531.843,82.195C531.739,82.11 531.6,81.932 531.482,82.06C531.16,82.043 530.866,82.118 530.587,82.212C530.57,82.367 530.783,82.377 530.888,82.451ZM529.554,82.351C529.461,82.351 529.371,82.377 529.288,82.391C529.237,82.4 528.714,82.552 528.728,82.568C528.651,82.453 528.528,82.262 528.618,82.102C528.696,82.017 528.888,82.11 529.003,82.091C529.137,82.067 529.249,81.99 529.377,81.95C529.776,81.823 530.222,81.816 530.641,81.75C530.983,81.695 531.313,81.61 531.653,81.549C531.937,81.399 532.318,81.47 532.576,81.234C532.894,81.264 533.054,81.619 533.232,81.855C533.275,82.153 533.024,82.232 532.877,82.393C532.672,82.727 532.253,83.011 532.225,83.43C532.326,83.64 532.643,83.677 532.688,83.917C531.996,84.144 531.171,84.022 530.505,84.311C530.337,84.281 530.314,84.125 530.173,84.038L529.631,83.94C529.602,83.881 529.52,83.849 529.55,83.784C529.584,83.71 529.804,83.692 529.878,83.681C529.997,83.669 530.13,83.679 530.23,83.624C530.421,83.516 530.421,83.22 530.484,83.011C530.578,82.699 530.185,82.454 529.967,82.425C529.837,82.406 529.701,82.361 529.572,82.353C529.566,82.353 529.561,82.353 529.554,82.351ZM529.583,80.811C529.553,80.978 529.562,81.494 529.833,81.489C529.931,81.485 530.068,81.41 530.16,81.371C530.38,81.273 530.622,81.237 530.862,81.199C531.011,81.177 531.156,81.133 531.306,81.112C531.471,81.092 531.641,81.11 531.803,81.075C531.976,81.04 532.055,80.911 532.134,80.762C532.242,80.549 532.416,80.262 532.583,80.099C532.662,80.024 532.769,79.956 532.815,79.853C532.863,79.742 532.826,79.624 532.785,79.514C532.731,79.369 532.705,79.209 532.602,79.088C532.363,78.802 531.977,78.643 531.627,78.699C531.477,78.721 531.335,78.772 531.184,78.793C530.909,78.832 530.625,78.805 530.352,78.864C530.204,78.894 529.864,78.964 529.864,79.17C529.86,79.278 529.983,79.323 530.059,79.37C530.222,79.469 530.387,79.569 530.564,79.634C530.678,79.675 530.91,79.816 531.019,79.759C531.292,79.615 531.555,79.42 531.893,79.432C532.062,79.714 531.687,79.916 531.542,80.121C531.364,80.454 531.004,80.571 530.697,80.62C530.622,80.587 530.511,80.578 530.444,80.636C530.147,80.337 529.785,79.96 529.381,79.854C529.357,79.85 529.425,80.028 529.433,80.042C529.47,80.106 529.531,80.163 529.572,80.226C529.696,80.408 529.616,80.618 529.583,80.811ZM522.284,83.233C522.5,83.204 522.625,82.984 522.731,82.788C522.758,82.739 522.784,82.692 522.81,82.65C522.789,82.641 522.752,82.631 522.697,82.619C522.622,82.601 522.534,82.582 522.46,82.531C522.419,82.502 522.336,82.443 522.354,82.344C522.373,82.25 522.468,82.228 522.508,82.218C522.544,82.208 522.63,82.193 522.723,82.181C522.806,82.168 522.945,82.147 522.976,82.138C522.992,82.127 523.005,82.107 523.012,82.078C523.025,82.018 523,81.943 522.968,81.9L522.947,81.872C522.9,81.811 522.755,81.618 522.677,81.613C522.646,81.613 522.551,81.636 522.487,81.649C522.412,81.667 522.341,81.681 522.302,81.684C522.268,81.689 522.219,81.688 522.164,81.683C522.083,81.68 521.987,81.681 521.948,81.689C521.959,81.697 521.972,81.705 521.981,81.711C522.016,81.737 522.047,81.759 522.073,81.788C522.135,81.853 522.245,81.991 522.26,82.147C522.267,82.244 522.236,82.32 522.208,82.39C522.19,82.428 522.176,82.464 522.172,82.494C522.149,82.654 522.135,83.087 522.244,83.211C522.258,83.229 522.27,83.233 522.284,83.233ZM526.041,83.743C526.038,83.778 526.019,83.812 525.99,83.832C525.96,83.853 525.923,83.861 525.889,83.851C525.568,83.771 525.253,83.69 524.938,83.676C524.707,83.664 524.468,83.683 524.237,83.704L524.181,83.707C523.995,83.723 523.241,83.729 522.742,83.733C522.552,83.733 522.404,83.735 522.349,83.737C522.292,83.738 522.25,83.747 522.224,83.752C522.228,83.822 522.224,83.9 522.219,83.983C522.21,84.129 522.201,84.289 522.249,84.377C522.431,84.329 522.651,84.314 522.865,84.303C523.086,84.287 523.315,84.273 523.476,84.221C523.495,84.215 523.516,84.211 523.536,84.217C523.852,84.274 524.01,84.5 524.151,84.698L524.213,84.783C524.245,84.826 524.245,84.886 524.215,84.928C524.169,84.991 524.094,85.025 524,85.025C523.927,85.025 523.852,85.003 523.801,84.983C523.731,84.968 523.659,84.95 523.588,84.934C523.474,84.906 523.356,84.879 523.245,84.863C523.133,84.85 522.963,84.853 522.806,84.861C522.693,84.864 522.584,84.868 522.502,84.864L522.451,84.863C522.253,84.863 522.205,84.918 522.18,84.978C522.151,85.052 522.172,85.14 522.197,85.243C522.211,85.311 522.227,85.381 522.231,85.449C522.235,85.509 522.242,85.57 522.25,85.632C522.275,85.821 522.304,86.036 522.209,86.23C522.197,86.255 522.184,86.287 522.169,86.325C522.12,86.469 522.049,86.663 521.88,86.732C521.867,86.737 521.851,86.742 521.834,86.742C521.814,86.742 521.792,86.736 521.775,86.727C521.656,86.659 521.627,86.536 521.607,86.453C521.604,86.436 521.599,86.418 521.596,86.404C521.552,86.257 521.537,85.637 521.568,85.409L521.583,85.322C521.609,85.168 521.622,85.059 521.56,84.978C521.456,84.997 521.306,85.015 521.137,85.032C520.903,85.058 520.612,85.089 520.521,85.131C520.505,85.138 520.489,85.14 520.472,85.142L520.471,85.142C520.262,85.142 520.086,85.073 519.925,85.003C519.874,84.98 519.843,84.928 519.852,84.871C519.87,84.761 520.018,84.667 520.129,84.659C520.331,84.608 521.094,84.529 521.302,84.526C521.538,84.519 521.556,84.419 521.565,84.378C521.577,84.311 521.568,83.904 521.547,83.836C521.547,83.834 521.517,83.836 521.51,83.836C521.481,83.836 521.452,83.842 521.432,83.849C521.284,83.877 521.12,83.889 520.958,83.904C520.788,83.92 520.612,83.934 520.485,83.956C520.254,83.996 519.469,84.168 519.307,84.221L519.234,84.246C519.125,84.282 519.012,84.321 518.878,84.321L518.836,84.319C518.797,84.315 518.761,84.294 518.74,84.258C518.722,84.228 518.681,84.189 518.643,84.155C518.549,84.065 518.391,83.917 518.495,83.727C518.517,83.69 518.552,83.669 518.593,83.664C519.189,83.611 519.771,83.533 520.328,83.43C520.326,83.414 520.307,83.348 520.297,83.319L520.288,83.277C520.288,83.277 520.278,83.269 520.263,83.258C520.015,83.309 519.794,83.17 519.596,83.036C519.5,82.97 519.409,82.911 519.318,82.873C519.271,82.856 519.242,82.811 519.242,82.76C519.242,82.555 519.513,82.543 519.693,82.534C519.719,82.532 519.742,82.532 519.755,82.531C519.82,82.523 519.879,82.531 519.94,82.54C519.961,82.545 519.984,82.548 520.003,82.552C520.041,82.553 520.078,82.55 520.091,82.546C520.088,82.54 520.084,82.527 520.073,82.509C520.037,82.428 520.013,82.358 519.992,82.291C519.943,82.133 519.914,82.047 519.747,81.966C519.705,81.943 519.677,81.902 519.677,81.855C519.676,81.786 519.674,81.715 519.729,81.657C519.766,81.618 519.82,81.598 519.888,81.596C520.085,81.596 520.284,81.853 520.633,82.395C520.664,82.443 520.693,82.487 520.716,82.526C520.757,82.523 520.788,82.511 520.82,82.497C520.911,82.464 521.034,82.434 521.141,82.486C521.177,82.504 521.203,82.54 521.208,82.582C521.213,82.623 521.197,82.664 521.164,82.689L520.859,82.941C520.859,82.975 520.859,83.01 520.857,83.045C520.852,83.227 520.859,83.3 520.968,83.341C521.072,83.38 521.339,83.348 521.476,83.303C521.539,83.011 521.498,82.689 521.458,82.38C521.448,82.295 521.437,82.212 521.427,82.13C521.395,82.028 521.32,81.92 521.2,81.816C520.805,81.939 520.409,81.837 520.245,81.565C520.234,81.547 520.227,81.524 520.227,81.502L520.227,81.433C520.227,81.399 520.24,81.367 520.263,81.347C520.286,81.323 520.318,81.311 520.349,81.311C520.638,81.311 521.002,81.289 521.257,81.239C521.216,80.875 521.137,80.717 521.077,80.644C521.02,80.657 520.956,80.675 520.888,80.694C520.722,80.74 520.55,80.788 520.414,80.795C520.116,80.77 519.556,80.445 519.492,80.369C519.473,80.347 519.461,80.318 519.461,80.29L519.461,80.238C519.461,80.191 519.492,80.147 519.536,80.127C519.612,80.094 519.75,80.08 520.004,80.08C520.104,80.08 520.203,80.081 520.283,80.082C520.335,80.084 520.38,80.086 520.411,80.086C520.671,80.068 520.917,79.989 520.945,79.935C521.004,79.828 520.998,79.802 520.956,79.667L520.943,79.627C520.905,79.501 520.886,79.381 520.869,79.264C520.859,79.213 520.852,79.164 520.843,79.114C520.839,79.084 520.828,79.057 520.818,79.027C520.796,78.963 520.771,78.89 520.781,78.807C520.786,78.773 520.802,78.744 520.828,78.722C520.856,78.704 520.891,78.696 520.924,78.702C521.041,78.721 521.149,78.823 521.19,78.864L521.228,78.896C521.289,78.951 521.357,79.015 521.39,79.109C521.399,79.132 521.408,79.175 521.419,79.229C521.445,79.345 521.492,79.571 521.557,79.684L521.56,79.684L521.698,79.683C521.724,79.683 521.745,79.684 521.754,79.686C521.807,79.693 521.883,79.705 521.956,79.735C522.046,79.768 522.161,79.834 522.18,79.95C522.187,79.989 522.185,80.068 522.096,80.143C522.075,80.163 522.042,80.177 521.917,80.238C521.841,80.275 521.706,80.341 521.625,80.388C521.684,80.492 521.729,80.614 521.775,80.736C521.83,80.878 521.886,81.029 521.958,81.133C522.122,81.11 522.315,81.062 522.398,80.942C522.477,80.763 522.541,80.502 522.604,80.245C522.64,80.098 522.674,79.954 522.714,79.826L522.663,79.781C522.632,79.754 522.617,79.714 522.623,79.675C522.625,79.634 522.651,79.599 522.685,79.581C522.836,79.501 522.841,78.915 522.786,78.801C522.745,78.735 522.703,78.671 522.692,78.592C522.692,78.591 522.684,78.422 522.749,78.344C522.781,78.307 522.849,78.288 522.896,78.304C523.175,78.414 523.392,78.623 523.466,78.852C523.507,78.976 523.502,79.103 523.498,79.213C523.495,79.273 523.492,79.334 523.498,79.394C523.5,79.436 523.508,79.471 523.523,79.501C523.531,79.502 523.542,79.504 523.549,79.504C523.637,79.496 523.724,79.486 523.812,79.478C523.892,79.472 523.969,79.466 524.047,79.457L524.05,79.457C524.13,79.457 524.197,79.499 524.403,79.661L524.441,79.693C524.545,79.771 524.649,79.86 524.709,79.981C524.753,80.068 524.736,80.154 524.723,80.218C524.713,80.27 524.668,80.323 524.615,80.329C524.377,80.357 524.167,80.259 523.966,80.163C523.867,80.114 523.773,80.07 523.679,80.046C523.649,80.035 523.619,80.028 523.586,80.022C523.53,80.009 523.474,79.997 523.419,79.976C523.315,79.938 523.274,80.039 523.214,80.185C523.203,80.214 523.193,80.238 523.181,80.262C523.163,80.303 523.143,80.351 523.123,80.401C523.05,80.579 522.96,80.795 522.82,80.946C522.834,80.951 522.849,80.957 522.865,80.963L522.882,80.961C522.995,80.94 523.135,80.912 523.271,80.912C523.458,80.912 523.599,80.961 523.708,81.057C523.719,81.068 523.731,81.084 523.739,81.102C523.742,81.104 523.757,81.119 523.767,81.129C523.81,81.171 523.913,81.269 523.847,81.413C523.828,81.454 523.789,81.48 523.747,81.484C523.685,81.489 523.625,81.504 523.568,81.516C523.528,81.526 523.487,81.533 523.447,81.543C523.424,81.545 523.403,81.549 523.38,81.551L523.393,81.56C523.422,81.575 523.452,81.589 523.484,81.603C523.521,81.619 523.559,81.639 523.591,81.657C523.754,81.747 523.752,81.845 523.697,81.971C523.664,82.046 523.632,82.085 523.612,82.109C523.607,82.116 523.603,82.12 523.601,82.124C523.635,82.132 523.677,82.138 523.695,82.138C523.702,82.138 523.718,82.132 523.735,82.127C523.806,82.104 523.926,82.093 524.023,82.161C524.111,82.222 524.267,82.405 524.242,82.57C524.228,82.657 524.169,82.722 524.081,82.75C523.986,82.78 523.853,82.745 523.768,82.721C523.742,82.71 523.689,82.706 523.612,82.706C523.573,82.706 523.538,82.706 523.52,82.709C523.318,82.737 523.222,82.989 523.146,83.191L523.143,83.195C523.211,83.227 523.388,83.211 523.53,83.183C523.565,83.179 523.597,83.172 523.627,83.168C523.875,83.128 524.12,83.095 524.368,83.061L524.575,83.03C524.69,83.017 525.073,82.978 525.157,82.975C525.188,82.973 525.217,82.969 525.246,82.965C525.336,82.956 525.423,82.953 525.498,82.97C525.522,82.978 525.559,82.986 525.598,83.011C525.702,83.069 525.771,83.16 525.833,83.24L525.858,83.274C525.943,83.38 526.057,83.545 526.041,83.743ZM556.932,84.125C556.99,84.036 557.052,83.952 557.107,83.883C557.029,83.927 556.971,84.02 556.932,84.125ZM559.795,83.988C559.796,83.985 559.797,83.983 559.798,83.98C559.867,83.826 559.93,83.681 559.994,83.561C560.101,83.362 560.217,82.984 560.145,82.766C560.071,82.548 559.718,82.339 559.515,82.233C559.503,82.228 559.482,82.216 559.455,82.201C559.065,82.001 558.85,81.867 558.814,81.803C558.757,81.698 558.918,81.517 559.09,81.326C559.199,81.202 559.321,81.062 559.411,80.921C559.421,80.907 559.436,80.888 559.452,80.864C559.571,80.712 559.844,80.357 559.409,79.942C559.345,79.881 559.287,79.809 559.228,79.741C559.116,79.603 558.997,79.457 558.828,79.381C558.746,79.345 558.666,79.327 558.581,79.327C558.424,79.327 558.282,79.39 558.129,79.454C558.088,79.472 558.048,79.489 558.006,79.506C557.598,79.667 557.073,79.764 556.609,79.848C556.25,79.914 555.938,79.97 555.773,80.043C555.664,80.089 555.667,80.168 555.674,80.2C555.712,80.394 556.164,80.63 556.493,80.63C556.501,80.63 556.512,80.63 556.527,80.628C556.833,80.587 556.995,80.481 557.15,80.376C557.265,80.298 557.375,80.226 557.542,80.176C557.951,80.053 558.251,79.993 558.461,79.993C558.622,79.993 558.722,80.026 558.765,80.095C558.899,80.304 558.76,80.549 558.638,80.762C558.602,80.824 558.569,80.882 558.543,80.94C558.502,81.03 558.443,81.135 558.38,81.247C558.212,81.543 558.039,81.845 558.15,82.018C558.255,82.184 558.564,82.377 558.75,82.491C558.798,82.52 558.85,82.555 558.859,82.562C558.931,82.629 559.083,82.783 559.129,82.858C559.216,82.997 559.219,83.208 559.14,83.488C559.038,83.409 558.933,83.338 558.829,83.304C558.052,83.23 557.89,83.103 557.256,83.714C557.23,83.736 557.173,83.8 557.107,83.883C557.108,83.882 557.109,83.881 557.11,83.881C557.357,83.753 557.657,83.425 557.935,83.501C558.169,83.561 558.499,83.653 558.735,83.967C558.81,84.085 558.764,84.606 558.181,84.813C557.814,84.93 557.236,84.816 556.927,84.606C556.85,84.586 556.854,84.332 556.932,84.125C556.792,84.337 556.676,84.572 556.737,84.687C557.049,85.034 556.975,85.1 557.514,85.232C558.166,85.333 558.735,85.083 559.19,84.796C559.681,84.95 559.854,85.657 560.292,85.715C560.556,85.706 560.811,85.301 560.833,85.214C560.821,84.871 560.151,84.273 559.795,83.988ZM556.753,83.387C557.003,82.696 557.699,81.713 557.861,80.969C557.774,80.916 557.654,80.816 557.562,80.788C557.471,80.807 557.272,80.762 557.21,80.891C556.535,83.114 555.181,84.469 555.029,84.758C554.834,84.976 554.907,85.449 554.895,85.789C554.978,85.962 555.097,85.8 555.231,85.856C555.461,85.724 555.494,85.482 555.57,85.268L556.753,83.387ZM569.298,85.469C569.222,85.43 569.144,85.392 569.068,85.347C569.004,85.311 568.135,84.775 568.15,84.761C568.421,84.498 568.736,84.125 568.949,83.809L568.954,83.659C568.834,83.563 568.737,83.449 568.618,83.377C568.371,83.229 567.904,83.498 567.666,83.577C567.496,83.632 567.276,83.663 567.127,83.755C567.165,83.771 567.217,83.838 567.238,83.844C567.41,83.9 567.614,83.766 567.792,83.799C568.186,83.873 567.752,84.305 567.649,84.438C567.489,84.43 566.797,83.889 566.533,83.938C566.618,84.374 566.873,84.611 567.269,84.932C566.932,85.257 565.798,85.853 565.635,85.887C565.639,85.885 565.777,85.988 565.794,85.997C565.92,86.052 566.077,86.038 566.208,86.026C566.712,85.979 567.012,85.699 567.407,85.427C567.525,85.345 567.672,85.306 567.777,85.197C568.135,85.497 568.549,85.702 568.949,85.931C569.148,86.046 569.337,86.186 569.546,86.284C569.749,86.384 569.947,86.492 570.163,86.395C570.4,86.29 570.68,86.09 570.823,85.854C570.263,85.758 569.793,85.693 569.298,85.469ZM567.269,81.891C567.28,82.052 567.301,82.489 567.414,82.601C567.542,82.726 567.752,82.66 567.876,82.546C567.909,82.517 567.933,82.486 567.952,82.454C567.981,82.396 568.008,81.82 568.031,81.816C567.792,81.85 567.511,81.902 567.269,81.891ZM566.042,82.347C565.757,82.878 565.465,83.425 565.088,83.896L563.99,85.954L563.917,85.951C563.643,85.939 563.372,85.671 563.375,85.394C563.38,85.096 563.691,84.95 563.856,84.739C564.045,84.5 564.194,84.23 564.343,83.964C564.522,83.638 564.714,83.297 564.988,82.993L566.2,81.079C566.297,80.891 566.396,80.696 566.508,80.519C566.24,80.597 565.961,80.667 565.662,80.667C565.499,80.667 565.344,80.645 565.186,80.607C564.993,80.517 564.919,80.358 564.954,80.152L564.964,80.102L565.006,80.075C565.184,79.96 565.368,79.945 565.511,79.945C565.577,79.945 565.645,79.95 565.711,79.952C565.839,79.96 565.97,79.968 566.103,79.948C566.405,79.854 566.76,79.834 567.103,79.816C567.657,79.785 568.18,79.759 568.564,79.423L568.595,79.395L568.634,79.394C569.004,79.377 569.326,79.527 569.522,79.802L569.546,79.834C569.753,80.135 568.94,80.179 568.818,80.191C568.372,80.234 567.924,80.251 567.482,80.306C567.437,80.336 567.392,80.363 567.359,80.393C566.963,80.738 566.674,81.186 566.417,81.645C566.525,81.598 566.633,81.556 566.745,81.54C566.752,81.538 566.626,80.84 567.064,81.349C567.232,81.545 567.507,81.441 567.747,81.397C568.047,81.341 568.043,81.118 568.036,80.872C568.03,80.793 568.011,80.626 568.066,80.56C568.153,80.457 568.23,80.542 568.338,80.493C568.441,80.649 568.564,80.793 568.639,80.963C569.018,80.723 569.042,80.828 569.315,81.148C569.495,81.361 569.572,81.551 569.201,81.537C568.959,81.528 568.734,81.473 568.591,81.71C568.542,81.788 568.536,82.33 568.52,82.336C568.762,82.228 568.971,82.25 569.207,82.367C569.335,82.432 569.59,82.525 569.55,82.709C569.524,82.828 569.432,82.858 569.387,82.864C569.121,82.893 568.875,82.81 568.605,82.86C568.388,82.902 568.196,82.984 567.993,83.065C567.808,83.141 567.651,83.183 567.453,83.217C567.22,83.254 566.961,83.396 566.731,83.403C566.446,83.411 566.2,83.118 566.091,82.884C566.304,82.854 566.793,82.964 566.962,82.835C567.179,82.672 566.881,82.233 566.816,82.026C566.597,82.061 566.366,82.062 566.177,82.096C566.132,82.18 566.087,82.264 566.042,82.347ZM567.61,79.583L567.777,79.572L567.756,79.439C567.735,79.272 567.641,79.127 567.546,78.99L567.494,78.912L567.429,78.852C567.325,78.773 567.197,78.676 567.011,78.676C566.988,78.676 566.962,78.676 566.926,78.683C566.842,78.702 566.775,78.766 566.753,78.845C566.734,78.922 566.76,79.003 566.81,79.046C567.092,79.405 567.354,79.583 567.61,79.583ZM577.451,72.873L576.662,72.873L576.662,70.448L577.184,70.439C577.77,70.439 578.163,70.549 578.533,70.811L579.052,69.775L576.662,69.775L576.662,67.591L577.421,67.591C578.079,67.591 578.489,67.685 578.819,67.913L579.299,66.925L575.384,66.925C575.551,67.22 575.575,67.424 575.575,67.954L575.575,72.508C575.575,73.039 575.551,73.243 575.384,73.537L579.014,73.537L579.479,72.53C578.803,72.785 578.28,72.873 577.451,72.873ZM570.025,70.974L571.167,72.721C571.35,73.007 571.426,73.218 571.426,73.432C571.426,73.461 571.425,73.483 571.419,73.513C571.417,73.521 571.415,73.528 571.415,73.537L573.129,73.537C572.793,73.26 572.569,72.995 572.213,72.47L570.649,70.091L570.663,70.073L571.908,68.145C572.269,67.591 572.516,67.292 572.929,66.925L571.318,66.925C571.338,66.997 571.347,67.046 571.347,67.123C571.347,67.351 571.262,67.568 571.035,67.922L570.138,69.32L570.11,69.277L569.262,67.983C569.021,67.611 568.909,67.325 568.909,67.08C568.909,67.029 568.909,66.991 568.923,66.925L567.208,66.925C567.587,67.303 567.8,67.591 568.215,68.216L569.483,70.173L569.471,70.19L568.042,72.367C567.733,72.835 567.453,73.158 567.03,73.537L568.608,73.537C568.603,73.497 568.603,73.467 568.603,73.44C568.603,73.225 568.678,73.012 568.863,72.701L569.995,70.931L570.025,70.974ZM559.899,73.078C560.287,73.476 560.856,73.677 561.587,73.677C562.316,73.677 562.835,73.5 563.437,73.046L563.494,73.001L563.494,73.537L564.779,73.537C564.612,73.233 564.59,73.039 564.59,72.508L564.59,67.954C564.59,67.424 564.612,67.228 564.779,66.925L563.302,66.925C563.461,67.213 563.494,67.398 563.494,67.954L563.494,71.134C563.494,71.799 563.38,72.164 563.073,72.48C562.791,72.782 562.369,72.955 561.916,72.955C561.424,72.955 560.998,72.747 560.744,72.391C560.524,72.067 560.463,71.771 560.463,71.004L560.463,67.954C560.463,67.407 560.498,67.215 560.663,66.925L559.185,66.925C559.342,67.216 559.376,67.419 559.376,67.954L559.376,71.307C559.376,72.25 559.5,72.665 559.899,73.078ZM555.093,72.873L554.313,72.873L554.313,67.954C554.313,67.424 554.337,67.22 554.503,66.925L553.028,66.925C553.191,67.22 553.217,67.424 553.217,67.954L553.217,72.508C553.217,73.061 553.187,73.255 553.036,73.537L556.471,73.537L556.954,72.455C556.35,72.768 555.885,72.873 555.093,72.873ZM546.533,70.676L548.22,70.676L547.372,68.825L546.553,70.628L546.533,70.676ZM546.213,71.391L545.695,72.523C545.609,72.713 545.548,72.979 545.548,73.169C545.548,73.297 545.567,73.38 545.625,73.537L544.112,73.537C544.314,73.274 544.464,73.012 544.684,72.542L547.414,66.719L550.272,72.634C550.501,73.123 550.606,73.294 550.794,73.537L549.189,73.537C549.244,73.394 549.264,73.285 549.264,73.169C549.264,72.998 549.193,72.735 549.085,72.514L548.566,71.411L548.556,71.391L546.213,71.391ZM536.998,73.078C537.385,73.476 537.954,73.677 538.689,73.677C539.417,73.677 539.937,73.5 540.54,73.046L540.591,73.001L540.591,73.537L541.88,73.537C541.712,73.235 541.69,73.039 541.69,72.508L541.69,67.954C541.69,67.424 541.712,67.228 541.88,66.925L540.401,66.925C540.562,67.213 540.591,67.398 540.591,67.954L540.591,71.134C540.591,71.795 540.478,72.162 540.175,72.48C539.892,72.782 539.47,72.955 539.015,72.955C538.522,72.955 538.096,72.747 537.844,72.391C537.621,72.065 537.56,71.769 537.56,71.004L537.56,67.954C537.56,67.409 537.595,67.216 537.762,66.925L536.285,66.925C536.44,67.216 536.474,67.415 536.474,67.954L536.474,71.307C536.474,72.25 536.598,72.665 536.998,73.078ZM532.588,66.925L534.065,66.925C533.901,67.225 533.867,67.415 533.867,67.954L533.867,72.508C533.867,73.046 533.901,73.237 534.065,73.537L532.588,73.537C532.748,73.257 532.78,73.072 532.78,72.508L532.78,70.477L529.882,70.477L529.882,72.508C529.882,73.039 529.907,73.243 530.072,73.537L528.595,73.537C528.761,73.243 528.785,73.037 528.785,72.508L528.785,67.954C528.785,67.424 528.761,67.22 528.595,66.925L530.072,66.925C529.907,67.22 529.882,67.424 529.882,67.954L529.882,69.746L532.78,69.746L532.78,67.954C532.78,67.391 532.748,67.207 532.588,66.925Z" style="fill:rgb(104,110,111);fill-rule:nonzero;"/>
            <path d="M553.325,44.764L553.325,42.899C553.325,42.662 553.131,42.447 552.898,42.419L548.247,41.872C548.012,41.844 547.821,42.015 547.821,42.251L547.821,44.446L553.325,44.764ZM547.821,57.7L547.821,60.023C547.821,60.26 548.012,60.429 548.247,60.401L552.898,59.853C553.131,59.827 553.325,59.609 553.325,59.374L553.325,57.256L547.821,57.7ZM547.821,52.441L547.821,54.29L550.129,54.148L550.141,52.38L547.821,52.441ZM547.821,50.142L547.821,51.909L550.145,51.848L550.156,50.142L547.821,50.142ZM552.334,56.571L553.325,56.492L553.325,45.527L552.334,45.47L552.334,50.142L550.689,50.142L550.678,51.832L552.334,51.789L552.334,56.571ZM550.171,47.901L547.821,47.849L547.821,49.61L550.157,49.61L550.171,47.901ZM547.821,56.936L551.801,56.615L551.801,52.336L550.674,52.367L550.659,54.649L547.821,54.824L547.821,56.936ZM547.821,45.21L547.821,47.316L550.706,47.381L550.692,49.61L551.801,49.61L551.801,45.439L547.821,45.21ZM560.255,44.446L560.255,42.251C560.255,42.015 560.061,41.844 559.828,41.872L555.175,42.419C554.943,42.447 554.75,42.662 554.75,42.899L554.75,44.764L560.255,44.446ZM554.75,57.256L554.75,59.374C554.75,59.609 554.943,59.827 555.175,59.853L559.828,60.401C560.061,60.429 560.255,60.26 560.255,60.023L560.255,57.7L554.75,57.256ZM557.933,52.38L557.944,54.148L560.255,54.29L560.255,52.441L557.933,52.38ZM557.919,50.142L557.93,51.848L560.255,51.909L560.255,50.142L557.919,50.142ZM555.742,51.789L557.398,51.832L557.386,50.142L555.742,50.142L555.742,45.47L554.75,45.527L554.75,56.492L555.742,56.571L555.742,51.789ZM557.916,49.61L560.255,49.61L560.255,47.849L557.904,47.901L557.916,49.61ZM560.255,54.824L557.416,54.649L557.401,52.367L556.273,52.336L556.273,56.615L560.255,56.936L560.255,54.824ZM560.255,45.21L560.255,47.316L557.369,47.381L557.383,49.61L556.273,49.61L556.273,45.439L560.255,45.21Z" style="fill:rgb(104,110,111);fill-rule:nonzero;"/>
        </g>
    </g>
</svg>
