<?xml version="1.0" encoding="UTF-8" standalone="no"?>
<!DOCTYPE svg PUBLIC "-//W3C//DTD SVG 1.1//EN" "http://www.w3.org/Graphics/SVG/1.1/DTD/svg11.dtd">
<svg width="100%" height="100%" viewBox="0 0 459 141" version="1.1" xmlns="http://www.w3.org/2000/svg" xmlns:xlink="http://www.w3.org/1999/xlink" xml:space="preserve" xmlns:serif="http://www.serif.com/" style="fill-rule:evenodd;clip-rule:evenodd;stroke-linejoin:round;stroke-miterlimit:2;">
    <g transform="matrix(1,0,0,1,-107.563,-396.571)">
        <g transform="matrix(4.16667,0,0,4.16667,0,0)">
            <path d="M90.257,128.741L90.257,128.505C90.1,128.492 89.606,128.507 89.605,127.894L89.605,121.328C89.606,120.716 90.1,120.732 90.257,120.719L90.257,120.484L87.912,120.484L87.912,120.719C88.069,120.732 88.563,120.716 88.564,121.33L88.564,127.897C88.562,128.507 88.069,128.492 87.912,128.505L87.912,128.741L90.257,128.741Z" style="fill:rgb(104,110,111);fill-rule:nonzero;"/>
            <path d="M28.303,128.741L28.303,128.485C28.134,128.472 27.601,128.49 27.599,127.828L27.599,120.265C27.601,119.604 28.134,119.621 28.303,119.607L28.303,119.353L25.815,119.353L25.815,119.607C25.986,119.621 26.519,119.604 26.519,120.266L26.519,127.829C26.518,128.49 25.986,128.472 25.815,128.485L25.815,128.741L28.303,128.741Z" style="fill:rgb(104,110,111);fill-rule:nonzero;"/>
            <path d="M133.269,128.741L133.269,127.388L133.034,127.388C133.022,127.545 133.038,128.04 132.424,128.042L130.337,128.042L130.337,121.328C130.338,120.716 130.832,120.732 130.99,120.719L130.99,120.484L128.644,120.484L128.644,120.719C128.8,120.732 129.294,120.716 129.296,121.33L129.296,127.897C129.294,128.507 128.8,128.492 128.644,128.505L128.644,128.741L133.269,128.741Z" style="fill:rgb(104,110,111);fill-rule:nonzero;"/>
            <path d="M68.734,128.911C66.279,128.911 65.286,126.552 65.286,124.615C65.286,122.74 66.254,120.317 68.818,120.317C70.948,120.317 72.274,121.907 72.274,124.417C72.274,126.926 70.905,128.911 68.734,128.911ZM69.105,128.287C69.729,128.287 71.17,127.923 71.17,124.818C71.17,122.412 70.021,120.918 68.562,120.918C67.539,120.918 66.376,121.606 66.376,124.281C66.376,126.513 67.45,128.287 69.09,128.287" style="fill:rgb(104,110,111);"/>
            <path d="M97.007,120.484L97.007,120.719C97.165,120.732 97.657,120.716 97.659,121.328L97.659,126.842L93.424,120.484L92.032,120.486L92.032,120.719C92.189,120.732 92.683,120.716 92.685,121.328L92.685,127.894C92.684,128.507 92.19,128.492 92.032,128.505L92.032,128.741L94.076,128.741L94.076,128.505C93.918,128.492 93.425,128.507 93.424,127.897L93.424,122.42L97.659,128.741L98.399,128.741L98.399,121.33C98.4,120.716 98.894,120.732 99.051,120.719L99.051,120.484L97.007,120.484Z" style="fill:rgb(104,110,111);fill-rule:nonzero;"/>
            <path d="M112.528,120.484L112.528,120.719C112.686,120.732 113.179,120.716 113.181,121.328L113.181,126.842L108.945,120.484L107.554,120.486L107.554,120.719C107.711,120.732 108.205,120.716 108.206,121.328L108.206,127.894C108.205,128.507 107.711,128.492 107.554,128.505L107.554,128.741L109.598,128.741L109.598,128.505C109.44,128.492 108.947,128.507 108.945,127.897L108.945,122.42L113.181,128.741L113.92,128.741L113.92,121.33C113.921,120.716 114.415,120.732 114.572,120.719L114.572,120.484L112.528,120.484Z" style="fill:rgb(104,110,111);fill-rule:nonzero;"/>
            <path d="M49.341,128.741L49.341,127.388L49.106,127.388C49.093,127.545 49.108,128.04 48.496,128.042L46.057,128.042L46.057,124.846L48.025,124.846C48.637,124.848 48.621,125.341 48.634,125.499L48.869,125.499L48.869,123.599L48.634,123.599C48.621,123.755 48.588,124.147 48.024,124.147L46.057,124.147L46.057,121.182L48.496,121.182C49.108,121.183 49.093,121.677 49.106,121.834L49.341,121.834L49.341,120.484L44.364,120.484L44.364,120.719C44.521,120.732 45.015,120.716 45.016,121.33L45.016,127.897C45.014,128.507 44.521,128.492 44.364,128.505L44.364,128.741L49.341,128.741Z" style="fill:rgb(104,110,111);fill-rule:nonzero;"/>
            <path d="M105.699,128.741L105.698,127.388L105.462,127.388C105.45,127.545 105.465,128.04 104.853,128.042L102.413,128.042L102.413,124.846L104.381,124.846C104.994,124.848 104.977,125.341 104.991,125.499L105.225,125.499L105.225,123.599L104.991,123.599C104.977,123.755 104.945,124.147 104.38,124.147L102.413,124.147L102.413,121.182L104.853,121.182C105.465,121.183 105.45,121.677 105.462,121.834L105.698,121.834L105.699,120.484L100.721,120.484L100.721,120.719C100.877,120.732 101.372,120.716 101.373,121.33L101.373,127.897C101.371,128.507 100.877,128.492 100.721,128.505L100.721,128.741L105.699,128.741Z" style="fill:rgb(104,110,111);fill-rule:nonzero;"/>
            <path d="M62.027,128.836C62.57,128.836 63.697,128.705 64.313,128.348L64.591,126.553L64.34,126.516C63.891,127.871 63.024,128.127 62.157,128.127C60.849,128.127 59.08,127.015 59.08,124.113C59.08,122.033 59.885,119.877 61.814,119.877C63.951,119.877 64.181,121.516 64.2,121.762L64.454,121.762L64.454,119.652C63.673,119.419 62.608,119.281 62.003,119.281C59.188,119.281 57.89,121.25 57.89,124.145C57.89,126.767 59.336,128.836 62.027,128.836Z" style="fill:rgb(104,110,111);fill-rule:nonzero;"/>
            <path d="M121.042,121.834L120.808,121.834C120.795,121.677 120.81,121.183 120.198,121.182L118.765,121.182L118.765,127.894C118.765,128.507 119.258,128.492 119.416,128.504L119.416,128.741L117.07,128.741L117.07,128.504C117.228,128.492 117.721,128.507 117.724,127.897L117.724,121.182L116.273,121.182C115.66,121.183 115.676,121.677 115.664,121.834L115.428,121.834L115.428,120.484L121.042,120.484L121.042,121.834Z" style="fill:rgb(104,110,111);fill-rule:nonzero;"/>
            <path d="M124.119,122.155L125.27,125.317L122.965,125.317L124.119,122.155ZM125.507,125.965L126.212,127.896C126.43,128.507 125.932,128.492 125.779,128.505L125.779,128.741L128.087,128.741L128.087,128.505C127.914,128.505 127.482,128.411 127.142,127.547L124.579,120.486L123.894,120.486L121.317,127.557C120.977,128.42 120.633,128.505 120.46,128.505L120.46,128.741L122.458,128.741L122.458,128.505C122.304,128.492 121.804,128.507 122.025,127.896L122.729,125.965L125.507,125.965Z" style="fill:rgb(104,110,111);fill-rule:nonzero;"/>
            <path d="M34.815,120.484L34.815,120.719C34.973,120.732 35.466,120.716 35.468,121.328L35.468,126.842L31.232,120.484L29.84,120.486L29.84,120.719C29.999,120.732 30.492,120.716 30.493,121.328L30.493,127.894C30.492,128.507 29.999,128.492 29.84,128.505L29.84,128.741L31.885,128.741L31.885,128.505C31.728,128.492 31.235,128.507 31.232,127.897L31.232,122.42L35.468,128.741L36.207,128.741L36.207,121.33C36.209,120.716 36.702,120.732 36.86,120.719L36.86,120.484L34.815,120.484Z" style="fill:rgb(104,110,111);fill-rule:nonzero;"/>
            <path d="M43.33,121.834L43.094,121.834C43.081,121.677 43.097,121.183 42.485,121.182L41.051,121.182L41.051,127.894C41.052,128.507 41.545,128.492 41.703,128.504L41.703,128.741L39.357,128.741L39.357,128.504C39.515,128.492 40.008,128.507 40.01,127.897L40.01,121.182L38.56,121.182C37.947,121.183 37.964,121.677 37.95,121.834L37.715,121.834L37.715,120.484L43.33,120.484L43.33,121.834Z" style="fill:rgb(104,110,111);fill-rule:nonzero;"/>
            <path d="M78.352,120.484L78.352,120.719C78.51,120.732 79.003,120.716 79.005,121.328L79.005,126.842L74.769,120.484L73.377,120.486L73.377,120.719C73.535,120.732 74.028,120.716 74.03,121.328L74.03,127.894C74.028,128.507 73.535,128.492 73.377,128.505L73.377,128.741L75.421,128.741L75.421,128.505C75.264,128.492 74.771,128.507 74.769,127.897L74.769,122.42L79.005,128.741L79.745,128.741L79.745,121.33C79.745,120.716 80.238,120.732 80.397,120.719L80.397,120.484L78.352,120.484Z" style="fill:rgb(104,110,111);fill-rule:nonzero;"/>
            <path d="M86.865,121.834L86.63,121.834C86.617,121.677 86.634,121.183 86.022,121.182L84.587,121.182L84.587,127.894C84.588,128.507 85.083,128.492 85.239,128.504L85.239,128.741L82.895,128.741L82.895,128.504C83.05,128.492 83.545,128.507 83.546,127.897L83.546,121.182L82.097,121.182C81.483,121.183 81.5,121.677 81.487,121.834L81.252,121.834L81.252,120.484L86.865,120.484L86.865,121.834Z" style="fill:rgb(104,110,111);fill-rule:nonzero;"/>
            <path d="M52.7,124.497L52.583,124.497L52.583,121.035L52.708,121.035C54.264,121.035 54.775,121.599 54.775,122.648C54.775,123.417 54.391,124.497 52.7,124.497ZM56.97,128.142C55.984,127.228 55.329,126.213 54.395,124.846C54.395,124.846 55.913,124.279 55.913,122.599C55.913,121.776 55.433,120.486 53.162,120.486L52.583,120.486L52.583,120.484L50.889,120.484L50.889,120.719C51.047,120.732 51.54,120.716 51.542,121.33L51.542,127.897C51.54,128.507 51.047,128.492 50.889,128.505L50.889,128.741L53.234,128.741L53.234,128.505C53.076,128.492 52.584,128.507 52.583,127.894L52.583,125.088L53.373,125.078C53.739,125.606 54.718,126.983 55.023,127.417C55.859,128.606 56.613,128.86 57.433,128.86C57.656,128.86 57.854,128.825 57.918,128.801L57.918,128.567C57.788,128.567 57.449,128.562 56.97,128.142Z" style="fill:rgb(104,110,111);fill-rule:nonzero;"/>
            <path d="M134.728,127.534L134.728,127.829L134.923,127.829C135.004,127.829 135.065,127.816 135.103,127.792C135.141,127.77 135.16,127.731 135.16,127.679C135.16,127.626 135.141,127.587 135.105,127.567C135.068,127.543 135.003,127.534 134.91,127.534L134.728,127.534ZM134.728,128.38L134.568,128.38L134.568,127.4L134.91,127.4C135.029,127.4 135.115,127.41 135.165,127.428C135.214,127.448 135.254,127.479 135.284,127.524C135.314,127.567 135.329,127.616 135.329,127.665C135.329,127.74 135.303,127.803 135.251,127.855C135.198,127.906 135.13,127.935 135.048,127.942C135.085,127.958 135.12,127.982 135.152,128.017C135.186,128.052 135.226,128.111 135.277,128.19L135.395,128.38L135.203,128.38L135.115,128.226C135.052,128.117 135.003,128.044 134.968,128.013C134.932,127.981 134.883,127.963 134.822,127.963L134.728,127.963L134.728,128.38ZM134.935,127.129C134.725,127.129 134.544,127.205 134.395,127.353C134.246,127.502 134.172,127.681 134.172,127.891C134.172,128.101 134.246,128.282 134.395,128.429C134.543,128.578 134.724,128.652 134.935,128.652C135.144,128.652 135.325,128.578 135.472,128.429C135.621,128.28 135.696,128.1 135.696,127.891C135.696,127.681 135.621,127.502 135.472,127.353C135.322,127.205 135.144,127.129 134.935,127.129ZM134.935,126.977C135.097,126.977 135.249,127.017 135.392,127.099C135.533,127.182 135.645,127.294 135.726,127.434C135.809,127.577 135.849,127.728 135.849,127.891C135.849,128.055 135.809,128.207 135.727,128.348C135.645,128.488 135.533,128.599 135.392,128.681C135.251,128.762 135.098,128.803 134.935,128.803C134.769,128.803 134.616,128.762 134.475,128.681C134.333,128.601 134.221,128.49 134.14,128.348C134.059,128.208 134.017,128.055 134.017,127.891C134.017,127.728 134.059,127.575 134.141,127.433C134.222,127.292 134.335,127.181 134.475,127.099C134.618,127.017 134.77,126.977 134.935,126.977Z" style="fill:rgb(104,110,111);fill-rule:nonzero;"/>
            <path d="M82.038,100.271C82.038,100.271 80.374,100.247 80.374,102.356C80.374,104.473 80.38,107.382 80.38,107.382C80.38,107.382 80.38,107.465 80.383,107.599C80.399,108.129 80.59,109.458 82.038,109.556L82.038,109.742L76.814,109.742L76.814,109.556C78.262,109.458 78.443,108.129 78.467,107.599C78.471,107.465 78.471,107.382 78.471,107.382C78.471,107.382 78.479,104.473 78.479,102.356C78.479,100.247 76.814,100.271 76.814,100.271L76.814,100.094L82.038,100.094L82.038,100.271ZM82.964,99.896C81.715,98.234 80.104,97.302 79.432,96.733C78.993,97.065 78.295,97.526 77.512,98.21C76.976,98.675 76.369,99.25 75.869,99.923C75.277,100.698 74.762,101.631 74.48,102.735C74.311,103.405 74.22,104.126 74.22,104.932C74.22,106.109 74.466,107.164 74.827,108.042C75.573,109.867 76.872,111.06 77.977,111.899C78.224,112.087 78.443,112.237 78.658,112.38C78.806,112.474 78.971,112.58 79.087,112.663C79.213,112.748 79.402,112.865 79.426,112.886C79.629,112.748 79.747,112.675 79.972,112.528C80.19,112.373 80.427,112.217 80.692,112.027C80.98,111.815 81.238,111.622 81.597,111.309C81.691,111.22 81.856,111.081 81.957,110.981C83.293,109.723 84.608,107.833 84.608,104.899C84.608,102.775 83.889,101.125 82.964,99.896Z" style="fill:rgb(104,110,111);fill-rule:nonzero;"/>
            <path d="M79.432,113.896C78.086,112.777 73.49,110.447 73.49,104.863C73.49,99.278 78.081,96.95 79.429,95.832C80.799,96.95 85.39,99.278 85.39,104.863C85.39,110.447 80.793,112.777 79.432,113.896ZM79.432,95.181L79.432,95.177L79.43,95.178L79.427,95.178L79.426,95.181C77.992,96.363 72.888,98.978 72.888,104.863C72.888,110.753 78.004,113.375 79.432,114.558C80.868,113.375 85.985,110.753 85.985,104.863C85.985,98.978 80.88,96.363 79.432,95.181Z" style="fill:rgb(104,110,111);fill-rule:nonzero;"/>
        </g>
    </g>
</svg>
