<?xml version="1.0" encoding="UTF-8" standalone="no"?>
<!DOCTYPE svg PUBLIC "-//W3C//DTD SVG 1.1//EN" "http://www.w3.org/Graphics/SVG/1.1/DTD/svg11.dtd">
<svg width="100%" height="100%" viewBox="0 0 319 94" version="1.1" xmlns="http://www.w3.org/2000/svg" xmlns:xlink="http://www.w3.org/1999/xlink" xml:space="preserve" xmlns:serif="http://www.serif.com/" style="fill-rule:evenodd;clip-rule:evenodd;stroke-linejoin:round;stroke-miterlimit:2;">
    <g transform="matrix(1,0,0,1,-180.408,-221.146)">
        <g transform="matrix(4.16667,0,0,4.16667,0,0)">
            <path d="M118.415,53.357C117.634,53.357 116.999,53.997 116.999,54.777C116.999,55.558 117.634,56.193 118.415,56.193C119.196,56.193 119.834,55.558 119.834,54.777C119.834,53.997 119.196,53.357 118.415,53.357ZM118.415,55.921C117.784,55.921 117.271,55.408 117.271,54.777C117.271,54.142 117.784,53.633 118.415,53.633C119.05,53.633 119.559,54.142 119.559,54.777C119.559,55.408 119.05,55.921 118.415,55.921ZM117.907,55.419L117.981,55.495L118.127,55.495L118.203,55.419L118.203,54.975L118.446,54.975L118.644,55.44L118.715,55.495L118.892,55.495L118.959,55.389C118.892,55.246 118.821,55.097 118.75,54.951C118.869,54.907 119.05,54.797 119.05,54.517C119.05,54.217 118.809,54.051 118.565,54.051L117.981,54.051L117.907,54.126L117.907,55.419ZM118.194,54.714L118.194,54.328L118.545,54.328C118.664,54.328 118.743,54.406 118.743,54.52C118.743,54.627 118.664,54.714 118.545,54.714L118.194,54.714ZM113.485,75.098C113.574,75.182 114,75.536 114.676,75.536C115.395,75.536 115.91,75.064 115.91,74.489C115.91,73.813 115.361,73.509 114.72,73.249C114.26,73.061 114.017,72.868 114.017,72.552C114.017,72.347 114.177,72.054 114.642,72.054C114.963,72.054 115.351,72.308 115.39,72.331L115.583,72.275L115.722,72.065L115.687,71.876C115.633,71.838 115.218,71.55 114.664,71.55C113.784,71.55 113.452,72.142 113.452,72.574C113.452,73.216 113.895,73.509 114.459,73.747C115.007,73.974 115.294,74.185 115.294,74.517C115.294,74.799 115.052,75.032 114.669,75.032C114.244,75.032 113.818,74.678 113.784,74.649L113.596,74.694L113.452,74.921L113.485,75.098ZM110.122,71.605L110.016,71.711L110.016,72.02L110.122,72.125L111.022,72.125L111.022,75.375L111.128,75.479L111.495,75.479L111.6,75.375L111.6,72.125L112.501,72.125L112.606,72.02L112.606,71.711L112.501,71.605L110.122,71.605ZM105.81,71.55L105.705,71.65L105.705,75.374L105.81,75.48L106.158,75.48L106.264,75.374L106.264,72.68L106.269,72.68L108.67,75.535L108.815,75.535L108.921,75.435L108.921,71.71L108.815,71.605L108.461,71.605L108.355,71.71L108.355,74.329L108.351,74.329L105.947,71.55L105.81,71.55ZM101.117,75.479L101.466,75.479L101.592,75.397C101.703,75.143 101.819,74.893 101.931,74.639L103.74,74.639L104.083,75.397L104.211,75.479L104.56,75.479L104.653,75.336L102.966,71.611L102.872,71.551L102.816,71.551L102.722,71.611L101.023,75.336L101.117,75.479ZM102.146,74.162L102.821,72.646L102.849,72.646L103.53,74.162L102.146,74.162ZM97.365,75.374L97.47,75.48L97.83,75.48L97.935,75.374L97.935,73.963L98.771,73.963L99.507,75.431L99.595,75.48L100.027,75.48L100.122,75.319L99.362,73.914C99.844,73.72 100.182,73.299 100.182,72.79C100.182,72.131 99.639,71.605 98.975,71.605L97.47,71.605L97.365,71.711L97.365,75.374ZM97.946,73.487L97.946,72.143L98.931,72.143C99.291,72.143 99.606,72.441 99.606,72.801C99.606,73.184 99.291,73.487 98.931,73.487L97.946,73.487ZM92.833,74.036C92.833,74.877 93.463,75.536 94.333,75.536C95.208,75.536 95.843,74.877 95.843,74.036L95.843,71.71L95.738,71.605L95.368,71.605L95.262,71.71L95.262,74.007C95.262,74.556 94.902,74.981 94.333,74.981C93.768,74.981 93.414,74.55 93.414,73.997L93.414,71.71L93.309,71.605L92.937,71.605L92.833,71.71L92.833,74.036ZM88.339,75.479L88.688,75.479L88.814,75.397C88.925,75.143 89.042,74.893 89.152,74.639L90.962,74.639L91.305,75.397L91.433,75.479L91.782,75.479L91.875,75.336L90.188,71.611L90.094,71.551L90.038,71.551L89.944,71.611L88.245,75.336L88.339,75.479ZM89.368,74.162L90.044,72.646L90.071,72.646L90.751,74.162L89.368,74.162ZM86.297,75.374L86.403,75.48L86.767,75.48L86.873,75.374L86.873,72.125L87.775,72.125L87.88,72.021L87.88,71.71L87.775,71.606L85.395,71.606L85.289,71.71L85.289,72.021L85.395,72.125L86.297,72.125L86.297,75.374ZM82.08,75.098C82.168,75.182 82.595,75.536 83.27,75.536C83.99,75.536 84.504,75.064 84.504,74.489C84.504,73.813 83.957,73.509 83.314,73.249C82.855,73.061 82.611,72.868 82.611,72.552C82.611,72.347 82.772,72.054 83.236,72.054C83.559,72.054 83.945,72.308 83.984,72.331L84.178,72.275L84.316,72.065L84.282,71.876C84.228,71.838 83.812,71.55 83.259,71.55C82.378,71.55 82.047,72.142 82.047,72.574C82.047,73.216 82.489,73.509 83.054,73.747C83.603,73.974 83.89,74.185 83.89,74.517C83.89,74.799 83.647,75.032 83.265,75.032C82.838,75.032 82.413,74.678 82.378,74.649L82.19,74.694L82.047,74.921L82.08,75.098ZM78.644,71.605L78.538,71.711L78.538,75.375L78.644,75.479L80.857,75.479L80.962,75.375L80.962,75.071L80.857,74.965L79.109,74.965L79.109,73.775L80.587,73.775L80.691,73.67L80.691,73.36L80.587,73.255L79.109,73.255L79.109,72.125L80.857,72.125L80.962,72.019L80.962,71.711L80.857,71.605L78.644,71.605ZM74.361,75.374L74.465,75.48L74.826,75.48L74.93,75.374L74.93,73.963L75.766,73.963L76.502,75.431L76.591,75.48L77.023,75.48L77.117,75.319L76.358,73.914C76.84,73.72 77.177,73.299 77.177,72.79C77.177,72.131 76.635,71.605 75.971,71.605L74.465,71.605L74.361,71.711L74.361,75.374ZM74.941,73.487L74.941,72.143L75.926,72.143C76.287,72.143 76.601,72.441 76.601,72.801C76.601,73.184 76.287,73.487 75.926,73.487L74.941,73.487ZM69.059,73.399C68.859,73.515 68.289,73.841 68.289,74.506C68.289,75.06 68.71,75.536 69.408,75.536C70.016,75.536 70.415,75.253 70.614,75.026L71.052,75.468L71.289,75.485L71.434,75.341C71.561,75.214 71.511,75.153 71.444,75.087L70.93,74.588C71.068,74.34 71.224,73.941 71.267,73.526C71.272,73.476 71.301,73.376 71.174,73.354L70.947,73.31C70.841,73.288 70.797,73.322 70.792,73.443C70.775,73.725 70.703,74.007 70.582,74.24L69.806,73.465C70.022,73.316 70.553,72.961 70.553,72.43C70.553,71.949 70.171,71.55 69.563,71.55C68.881,71.55 68.55,72.026 68.55,72.447C68.543,72.779 68.716,73.022 68.932,73.25L69.059,73.388L69.059,73.399ZM69.452,75.07C69.098,75.07 68.815,74.821 68.815,74.473C68.815,74.035 69.186,73.803 69.358,73.698L70.282,74.672C70.122,74.86 69.851,75.07 69.452,75.07ZM70.061,72.452C70.061,72.823 69.652,73.04 69.485,73.139L69.363,73.018C69.175,72.829 69.037,72.669 69.042,72.452C69.042,72.192 69.225,71.977 69.536,71.977C69.867,71.977 70.061,72.214 70.061,72.452ZM62.988,75.098C63.077,75.182 63.503,75.536 64.178,75.536C64.898,75.536 65.413,75.064 65.413,74.489C65.413,73.813 64.865,73.509 64.223,73.249C63.763,73.061 63.519,72.868 63.519,72.552C63.519,72.347 63.68,72.054 64.144,72.054C64.467,72.054 64.853,72.308 64.893,72.331L65.086,72.275L65.224,72.065L65.19,71.876C65.136,71.838 64.722,71.55 64.167,71.55C63.287,71.55 62.955,72.142 62.955,72.574C62.955,73.216 63.398,73.509 63.962,73.747C64.51,73.974 64.798,74.185 64.798,74.517C64.798,74.799 64.555,75.032 64.173,75.032C63.747,75.032 63.321,74.678 63.287,74.649L63.099,74.694L62.955,74.921L62.988,75.098ZM60.05,71.605L59.944,71.711L59.944,75.375L60.05,75.479L62.021,75.479L62.125,75.375L62.125,75.071L62.021,74.965L60.521,74.965L60.521,71.711L60.416,71.605L60.05,71.605ZM56.188,75.374L56.293,75.48L58.506,75.48L58.611,75.374L58.611,75.07L58.506,74.965L56.758,74.965L56.758,73.775L58.235,73.775L58.34,73.67L58.34,73.36L58.235,73.255L56.758,73.255L56.758,72.126L58.506,72.126L58.611,72.02L58.611,71.71L58.506,71.605L56.293,71.605L56.188,71.71L56.188,75.374ZM53.509,75.374L53.615,75.48L53.979,75.48L54.084,75.374L54.084,72.125L54.987,72.125L55.091,72.021L55.091,71.71L54.987,71.606L52.607,71.606L52.501,71.71L52.501,72.021L52.607,72.125L53.509,72.125L53.509,75.374ZM49.751,71.55C48.645,71.55 47.764,72.44 47.764,73.548C47.764,74.655 48.645,75.536 49.751,75.536C50.858,75.536 51.744,74.655 51.744,73.548C51.744,72.44 50.858,71.55 49.751,71.55ZM49.751,74.981C48.965,74.981 48.318,74.34 48.318,73.548C48.318,72.763 48.965,72.103 49.751,72.103C50.543,72.103 51.19,72.763 51.19,73.548C51.19,74.34 50.543,74.981 49.751,74.981ZM46.005,71.605L45.899,71.711L45.899,73.255L43.874,73.255L43.874,71.711L43.769,71.605L43.404,71.605L43.299,71.711L43.299,75.375L43.404,75.479L43.769,75.479L43.874,75.375L43.874,73.775L45.899,73.775L45.899,75.375L46.005,75.479L46.371,75.479L46.475,75.375L46.475,71.711L46.371,71.605L46.005,71.605ZM69.76,53.231L65.035,59.596L60.307,53.231L58.702,53.231L58.702,65.328L60.241,65.328L60.241,55.97L64.62,61.738L65.448,61.738L69.827,55.97L69.827,65.328L71.367,65.328L71.367,53.231L69.76,53.231ZM114.353,53.239L114.353,62.427L107.809,53.239L106.292,53.239L106.292,65.327L107.822,65.327L107.822,55.976L114.562,65.327L115.899,65.327L115.899,53.239L114.353,53.239ZM98.404,53.075C101.736,53.075 104.448,55.86 104.448,59.283C104.448,62.697 101.736,65.475 98.404,65.475C95.071,65.475 92.36,62.697 92.36,59.283C92.36,55.86 95.071,53.075 98.404,53.075ZM98.404,63.875C100.865,63.875 102.867,61.815 102.867,59.283C102.867,56.742 100.865,54.673 98.404,54.673C95.953,54.673 93.957,56.742 93.957,59.283C93.957,61.815 95.953,63.875 98.404,63.875ZM82.965,53.223L82.965,54.814L86.783,54.814L86.783,65.328L88.335,65.328L88.335,54.814L92.154,54.814L92.154,53.223L82.965,53.223ZM77.732,53.223C80.106,53.223 82.038,54.824 82.038,57.197C82.038,59.561 80.106,61.154 77.732,61.154L75.215,61.154L75.215,65.327L73.679,65.327L73.679,53.223L77.732,53.223ZM77.732,59.602C79.25,59.602 80.483,58.706 80.483,57.197C80.483,55.68 79.25,54.775 77.732,54.775L75.215,54.775L75.215,59.602L77.732,59.602ZM52.054,63.775C51.769,63.775 51.486,63.308 51.486,63.308L47.892,58.368L52.801,53.223L50.626,53.223L44.834,59.27L44.834,53.223L43.298,53.223L43.298,65.327L44.834,65.327L44.834,61.569L46.809,59.5L50.299,64.295C50.299,64.295 50.987,65.327 52.026,65.327L52.801,65.327L52.801,63.775L52.054,63.775ZM54.806,53.223L56.341,53.223L56.341,65.327L54.806,65.327L54.806,53.223Z" style="fill:rgb(104,110,111);fill-rule:nonzero;"/>
        </g>
    </g>
</svg>
