<?xml version="1.0" encoding="UTF-8" standalone="no"?>
<!DOCTYPE svg PUBLIC "-//W3C//DTD SVG 1.1//EN" "http://www.w3.org/Graphics/SVG/1.1/DTD/svg11.dtd">
<svg width="100%" height="100%" viewBox="0 0 353 102" version="1.1" xmlns="http://www.w3.org/2000/svg" xmlns:xlink="http://www.w3.org/1999/xlink" xml:space="preserve" xmlns:serif="http://www.serif.com/" style="fill-rule:evenodd;clip-rule:evenodd;stroke-linejoin:round;stroke-miterlimit:2;">
    <g transform="matrix(1,0,0,1,-671.867,-225.133)">
        <g transform="matrix(4.16667,0,0,4.16667,0,0)">
            <path d="M244.665,55.999C244.665,55.999 243.302,56.14 242.892,56.14C242.892,56.323 242.063,57.785 241.938,57.969C241.818,58.058 241.61,58.746 239.464,58.746L239.297,59.25L241.319,59.25C241.319,59.478 236.698,68.58 236.698,69.769C236.698,70.04 236.779,70.727 237.936,70.727C239.708,70.727 242.063,69.173 242.145,69.081L241.859,68.717C241.818,68.764 240.249,69.586 239.464,69.586C239.382,69.586 238.846,69.628 238.846,68.946C238.846,67.895 243.258,59.25 243.258,59.25L245.491,59.25L245.777,58.654L243.55,58.654L244.665,55.999ZM225.722,59.478L225.801,60.027C225.801,60.027 226.381,59.798 226.875,59.798C227.04,59.798 227.495,59.888 227.495,60.347C227.495,61.628 223.079,70.27 223.079,70.456L225.269,69.769C226.998,65.241 232.819,59.798 234.347,59.798C234.552,59.798 234.677,59.888 234.677,60.074C234.677,60.987 230.876,65.789 230.094,70.41C231.582,70.41 234.347,68.946 234.633,68.623L234.347,68.259C234.347,68.259 233.522,68.671 233.022,68.671C232.9,68.671 232.57,68.717 232.57,68.304C232.57,66.839 237.111,60.987 237.111,58.975C237.111,58.517 236.863,58.197 236.243,58.197C233.522,58.197 227.991,64.007 227.907,64.007C227.991,63.963 229.97,59.936 229.97,58.473C229.97,58.473 230.01,58.15 229.97,58.15C229.807,58.338 226.135,59.478 225.722,59.478ZM204.382,67.895C204.382,67.025 211.77,63.917 211.77,61.309C211.77,60.439 210.905,60.074 210.905,60.074C210.905,60.987 209.253,64.877 206.61,64.877C205.784,64.877 205.251,64.372 205.251,63.365C205.251,62.406 207.27,59.384 213.38,59.384C214.166,59.384 214.45,59.434 214.45,59.434C214.45,59.569 213.754,60.894 213.754,61.766L214.329,61.811C214.329,61.537 216.184,58.15 216.312,58.014C216.312,58.014 215.938,57.969 215.031,57.969C207.435,57.969 203.434,63.045 203.434,64.877C203.434,66.112 204.422,66.295 205.167,66.295C205.045,66.43 201.203,68.946 201.203,68.946C201.203,68.946 205.741,70.27 205.58,70.41C205.538,70.498 197.82,72.282 197.82,75.44C197.82,76.81 199.307,78.412 204.754,78.412C207.685,78.412 214.414,77.362 214.414,73.427C214.414,70.227 204.382,68.671 204.382,67.895ZM205.741,77.636C202.111,77.636 199.72,76.493 199.72,74.8C199.72,71.641 207.27,71.002 207.645,71.002C207.724,71.002 212.516,72.375 212.516,74.387C212.516,75.896 210.575,77.636 205.741,77.636ZM223.327,57.921C219.157,57.921 213.094,63.135 213.094,68.304C213.094,69.081 213.38,70.363 215.031,70.363C217.711,70.363 222.459,66.382 222.459,64.555C222.459,64.191 222.378,63.822 222.21,63.686C222.21,63.822 219.651,69.081 216.433,69.081C215.319,69.081 215.071,68.031 215.071,67.438C215.071,64.92 218.084,59.067 221.595,59.067C222.666,59.067 222.666,59.615 222.666,59.753C222.666,60.527 220.728,62.406 218.248,62.406C217.751,62.406 217.343,62.359 217.26,62.266C217.26,62.495 217.425,63.045 218.414,63.045C220.682,63.045 224.565,60.621 224.565,58.789C224.565,58.15 224.11,57.921 223.327,57.921ZM202.69,58.058C198.52,58.058 192.455,63.228 192.455,68.442C192.455,69.221 192.742,70.498 194.394,70.498C197.078,70.498 201.823,66.475 201.823,64.692C201.823,64.327 201.741,63.963 201.574,63.822C201.574,63.963 198.979,69.221 195.758,69.221C194.683,69.221 194.394,68.166 194.394,67.572C194.394,65.057 197.448,59.205 200.955,59.205C202.03,59.205 202.03,59.753 202.03,59.888C202.03,60.668 200.089,62.495 197.613,62.495C197.078,62.495 196.664,62.495 196.582,62.406C196.582,62.587 196.748,63.181 197.78,63.181C200.006,63.181 203.929,60.759 203.929,58.932C203.929,58.289 203.474,58.058 202.69,58.058ZM196.664,71.459C196.664,71.78 196.542,73.29 194.476,73.29C191.133,73.29 188.492,69.54 183.789,64.829L184.239,64.007L188.451,64.007C188.451,61.945 194.522,62.041 194.522,58.15C194.522,54.859 189.934,54.032 184.736,54.032C171.485,54.032 161.248,59.707 161.248,67.62C161.248,69.628 162.732,74.662 169.461,74.662C178.05,74.662 182.92,67.07 182.92,66.794C186.306,70.227 190.019,74.021 193.774,74.021C196.169,74.021 197.159,72.832 197.159,72.144C197.159,71.689 196.748,71.459 196.664,71.459ZM182.671,63.822C182.631,63.779 180.691,62.406 177.265,62.406C173.51,62.406 172.723,63.963 172.723,64.418C172.723,64.785 173.137,64.967 173.137,64.967C173.137,64.877 173.88,63.002 176.731,63.002C179.867,63.002 181.805,65.745 181.805,65.745C181.805,65.745 178.959,73.563 170.824,73.563C167.563,73.563 163.397,71.689 163.397,67.252C163.397,60.21 171.322,54.859 183.085,54.859C185.229,54.859 192.331,54.904 192.331,58.426C192.331,61.08 189.481,62.313 186.509,62.313L185.024,62.313C185.108,62.22 186.427,57.921 186.427,57.422L181.725,58.473L181.888,59.019C181.972,59.019 182.549,58.932 182.796,58.932C183.002,58.932 183.953,58.884 183.953,59.888C183.953,60.711 182.963,63.551 182.671,63.822Z" style="fill:rgb(104,110,111);fill-rule:nonzero;"/>
        </g>
    </g>
</svg>
