<?xml version="1.0" encoding="UTF-8" standalone="no"?>
<!DOCTYPE svg PUBLIC "-//W3C//DTD SVG 1.1//EN" "http://www.w3.org/Graphics/SVG/1.1/DTD/svg11.dtd">
<svg width="100%" height="100%" viewBox="0 0 327 92" version="1.1" xmlns="http://www.w3.org/2000/svg" xmlns:xlink="http://www.w3.org/1999/xlink" xml:space="preserve" xmlns:serif="http://www.serif.com/" style="fill-rule:evenodd;clip-rule:evenodd;stroke-linejoin:round;stroke-miterlimit:2;">
    <g transform="matrix(1,0,0,1,-1201.46,-451.258)">
        <g transform="matrix(4.16667,0,0,4.16667,0,0)">
            <path d="M328.543,126.933L329.274,126.933L329.274,130.183L330.234,130.183L330.234,126.933L330.966,126.933L330.966,126.134L328.543,126.134L328.543,126.933ZM322.86,117.577L321.865,117.577L321.865,114.693L322.686,114.693C323.507,114.693 324.396,115.17 324.396,116.22C324.396,117.124 323.878,117.577 322.86,117.577ZM321.865,111.292L322.686,111.292C323.303,111.292 324.04,111.468 324.04,112.291C324.04,113.167 323.135,113.824 322.326,113.824L321.865,113.824L321.865,111.292ZM323.951,114.032C324.545,113.789 325.259,113.229 325.259,111.935C325.259,111.008 324.347,110.253 323.217,110.253L320.64,110.253L320.64,118.613L322.86,118.613C324.474,118.613 325.794,117.543 325.794,116.22C325.794,114.877 324.897,114.18 323.951,114.032ZM349.054,117.606C348.718,117.755 348.368,117.755 347.698,117.755C346.26,117.755 345.092,116.262 345.092,114.44C345.092,112.417 346.182,111.115 347.873,111.115C348.593,111.115 349.275,111.471 349.611,111.806L349.686,111.875L350.107,111.027L350.071,110.988C349.728,110.644 348.99,110.074 347.873,110.074C345.274,110.074 343.87,112.322 343.87,114.44C343.87,117.086 345.37,118.794 347.698,118.794C348.365,118.794 349.037,118.6 349.632,118.422C349.838,118.361 350.031,118.304 350.217,118.262L350.267,118.249L350.267,114.719L349.054,114.719L349.054,117.606ZM333.688,118.613L334.905,118.613L334.905,110.253L333.688,110.253L333.688,118.613ZM336.333,130.183L338.596,130.183L338.596,129.383L337.294,129.383L337.294,128.558L338.596,128.558L338.596,127.762L337.294,127.762L337.294,126.933L338.596,126.933L338.596,126.134L336.333,126.134L336.333,130.183ZM353.13,117.577L353.13,114.693L355.809,114.693L355.809,113.824L353.13,113.824L353.13,111.295L355.809,111.295L355.809,110.253L351.906,110.253L351.906,118.613L356.348,118.613L356.348,117.577L353.13,117.577ZM345.552,127.597C345.256,127.461 345.034,127.397 345.002,127.188C344.984,127.081 345.009,126.978 345.054,126.919C345.128,126.816 345.234,126.799 345.352,126.807C345.516,126.824 345.669,126.967 345.687,127.159C345.695,127.191 345.695,127.225 345.695,127.26L346.604,127.26C346.594,126.952 346.471,126.566 346.248,126.341C346.012,126.113 345.681,125.975 345.357,125.975C344.601,125.975 344.116,126.442 344.116,127.173C344.116,127.471 344.257,127.778 344.459,127.971C344.639,128.129 344.946,128.313 345.27,128.45C345.582,128.59 345.822,128.726 345.832,129.045C345.852,129.454 345.582,129.545 345.396,129.545C345.154,129.545 345.042,129.42 344.984,129.284C344.938,129.181 344.914,129.013 344.911,128.883L344.014,128.879L344.021,128.952C344.041,129.767 344.645,130.345 345.401,130.345C345.781,130.345 346.118,130.208 346.354,129.958C346.58,129.726 346.711,129.403 346.697,129.047C346.679,128.63 346.509,128.261 346.28,128.045C346.094,127.868 345.851,127.729 345.552,127.597ZM329.118,114.18L328.473,114.18L328.473,111.292L329.29,111.292C329.698,111.292 330.648,111.422 330.648,112.644C330.648,113.075 330.371,114.18 329.118,114.18ZM331.87,112.472C331.87,111.08 331.039,110.253 329.651,110.253L327.257,110.253L327.257,118.613L328.473,118.613L328.473,115.225L329.605,115.225L331.372,118.755L331.403,118.813L332.614,118.408L330.636,114.813C331.318,114.299 331.87,113.75 331.87,112.472ZM338.939,117.577L337.942,117.577L337.942,111.292L339.121,111.292C340.852,111.292 341.725,112.291 341.725,114.26C341.725,116.43 340.761,117.577 338.939,117.577ZM339.121,110.253L336.725,110.253L336.725,118.613L338.939,118.613C341.445,118.613 342.944,116.99 342.944,114.26C342.944,112.409 341.946,110.253 339.121,110.253ZM307.389,110.253L301.171,110.253L301.171,111.292L303.676,111.292L303.676,118.613L304.887,118.613L304.887,111.292L307.389,111.292L307.389,110.253ZM307.028,127.597C306.722,127.461 306.504,127.397 306.471,127.188C306.449,127.081 306.485,126.978 306.531,126.919C306.601,126.816 306.703,126.799 306.828,126.807C306.989,126.824 307.145,126.967 307.16,127.159C307.168,127.191 307.164,127.225 307.164,127.26L308.067,127.26C308.067,126.952 307.943,126.566 307.717,126.341C307.487,126.113 307.148,125.975 306.828,125.975C306.075,125.975 305.585,126.442 305.585,127.173C305.585,127.471 305.73,127.778 305.935,127.971C306.108,128.129 306.413,128.313 306.743,128.45C307.054,128.59 307.285,128.726 307.298,129.045C307.32,129.454 307.054,129.545 306.863,129.545C306.626,129.545 306.513,129.42 306.453,129.284C306.413,129.181 306.386,129.013 306.38,128.883L305.485,128.879L305.49,128.952C305.515,129.767 306.117,130.345 306.872,130.345C307.249,130.345 307.589,130.208 307.823,129.958C308.055,129.726 308.184,129.403 308.169,129.047C308.149,128.63 307.979,128.261 307.747,128.045C307.563,127.868 307.32,127.729 307.028,127.597ZM298.783,113.841C297.666,113.092 297.208,112.589 297.208,112.112C297.208,111.641 297.692,111.115 298.388,111.115C298.7,111.115 298.957,111.251 299.227,111.394C299.402,111.484 299.582,111.577 299.79,111.645L299.847,111.667L300.261,111.04L300.236,110.999C299.865,110.447 299.121,110.074 298.388,110.074C297.083,110.074 295.989,111.008 295.989,112.112C295.989,113.258 296.579,113.688 297.208,114.138C297.288,114.195 297.363,114.251 297.439,114.311C297.563,114.43 297.724,114.567 297.898,114.708C298.48,115.188 299.201,115.786 299.201,116.581C299.201,117.37 298.758,117.755 297.847,117.755C297.278,117.755 296.749,117.522 296.293,117.065L296.232,116.999L295.604,117.839L295.652,117.882C296.217,118.448 297.123,118.794 298.029,118.794C299.159,118.794 300.425,117.848 300.425,116.581C300.425,115.432 299.799,114.683 298.783,113.841ZM315.693,128.647C315.693,129.022 315.649,129.139 315.588,129.252C315.504,129.397 315.309,129.495 315.142,129.495C314.963,129.495 314.773,129.397 314.703,129.252C314.641,129.129 314.588,129.022 314.588,128.647L314.588,126.134L313.741,126.134L313.741,128.647C313.741,129.025 313.741,129.461 314.091,129.828C314.42,130.172 314.762,130.34 315.142,130.34C315.528,130.34 315.86,130.174 316.193,129.828C316.539,129.465 316.539,129.025 316.539,128.647L316.539,126.134L315.693,126.134L315.693,128.647ZM322.326,130.183L323.225,130.183L323.225,126.134L322.326,126.134L322.326,130.183ZM316.614,113.913L314.889,110.112L314.861,110.058L313.464,110.46L315.82,114.991L315.82,118.613L317.038,118.613L317.038,114.991L319.764,110.277L318.714,110.063L316.614,113.913ZM309.207,115.258C309.312,114.947 309.432,114.624 309.554,114.283C309.818,113.557 310.118,112.748 310.35,111.875C310.675,113.14 311.004,114.283 311.327,115.25L309.207,115.258ZM310.943,110.253L309.947,110.253L306.89,118.523L306.856,118.613L307.904,118.613L308.797,116.112L311.729,116.112L312.429,118.563L312.44,118.613L313.856,118.613L310.943,110.253Z" style="fill:rgb(104,110,111);fill-rule:nonzero;"/>
            <path d="M365.66,128.345L365.473,128.345L365.473,128.052L365.652,128.052C365.723,128.052 365.773,128.062 365.804,128.074C365.833,128.086 365.86,128.101 365.874,128.124C365.887,128.149 365.896,128.174 365.896,128.203C365.896,128.243 365.883,128.281 365.845,128.313C365.811,128.34 365.754,128.345 365.66,128.345ZM365.865,128.519C365.848,128.496 365.818,128.475 365.784,128.46C365.865,128.455 365.936,128.429 365.988,128.37C366.041,128.32 366.065,128.261 366.065,128.191C366.065,128.141 366.051,128.088 366.014,128.045C365.988,128 365.95,127.971 365.896,127.95C365.845,127.932 365.761,127.921 365.652,127.921L365.312,127.921L365.312,128.897L365.473,128.897L365.473,128.484L365.563,128.484C365.617,128.484 365.658,128.496 365.691,128.519C365.73,128.546 365.784,128.623 365.848,128.743L365.938,128.897L366.127,128.897L366.014,128.706C365.953,128.616 365.904,128.553 365.865,128.519ZM361.917,129.2L364.28,129.2L364.28,114.844L361.917,114.844L361.917,129.2ZM366.363,128.776C366.296,128.892 366.203,128.985 366.086,129.053C365.962,129.123 365.839,129.157 365.708,129.157C365.579,129.157 365.453,129.123 365.332,129.053C365.209,128.985 365.115,128.892 365.054,128.776C364.988,128.652 364.951,128.525 364.951,128.393C364.951,128.266 364.988,128.141 365.054,128.019C365.125,127.898 365.215,127.806 365.336,127.738C365.456,127.673 365.579,127.636 365.708,127.636C365.833,127.636 365.962,127.673 366.083,127.738C366.203,127.806 366.295,127.898 366.363,128.019C366.431,128.141 366.462,128.266 366.462,128.393C366.462,128.525 366.431,128.652 366.363,128.776ZM366.493,127.943C366.415,127.794 366.3,127.687 366.153,127.607C366.006,127.53 365.86,127.493 365.708,127.493C365.558,127.493 365.409,127.53 365.263,127.607C365.115,127.687 365.001,127.794 364.923,127.943C364.843,128.088 364.803,128.239 364.803,128.393C364.803,128.553 364.843,128.703 364.923,128.851C365.001,128.997 365.114,129.106 365.253,129.181C365.402,129.267 365.555,129.303 365.708,129.303C365.865,129.303 366.014,129.267 366.158,129.181C366.306,129.106 366.417,128.997 366.5,128.851C366.576,128.703 366.617,128.553 366.617,128.393C366.617,128.239 366.576,128.088 366.493,127.943ZM358.412,113.573L364.28,113.573L364.28,108.302L358.412,108.302L358.412,113.573ZM288.351,129.2L290.699,129.2L290.699,114.844L288.351,114.844L288.351,129.2ZM358.378,124.255C326.798,117.577 300.349,122.975 294.243,124.417L294.243,114.844L291.884,114.844L291.884,129.192L294.243,129.192L294.243,125.592C299.733,124.261 326.423,118.607 358.378,125.417L358.378,129.192L360.736,129.192L360.736,114.844L358.378,114.844L358.378,124.255ZM294.243,108.302L288.382,108.302L288.382,113.571L294.243,113.571L294.243,108.302Z" style="fill:rgb(104,110,111);fill-rule:nonzero;"/>
        </g>
    </g>
</svg>
